<svg viewBox="0 0 1446 400" xmlns="http://www.w3.org/2000/svg"><g><g><g><g><g><line x1="51.52000045776367" y1="372.52059990730174" x2="46.52000045776367" y2="372.52059990730174" style="visibility: inherit;" fill="rgb(0, 0, 0)" stroke="rgb(204, 204, 204)" stroke-width="1px"></line><line x1="51.52000045776367" y1="360.6367325238198" x2="46.52000045776367" y2="360.6367325238198" style="visibility: inherit;" fill="rgb(0, 0, 0)" stroke="rgb(204, 204, 204)" stroke-width="1px"></line><line x1="51.52000045776367" y1="350.5890658169641" x2="46.52000045776367" y2="350.5890658169641" style="visibility: inherit;" fill="rgb(0, 0, 0)" stroke="rgb(204, 204, 204)" stroke-width="1px"></line><line x1="51.52000045776367" y1="341.88538102298855" x2="46.52000045776367" y2="341.88538102298855" style="visibility: inherit;" fill="rgb(0, 0, 0)" stroke="rgb(204, 204, 204)" stroke-width="1px"></line><line x1="51.52000045776367" y1="334.2081869468857" x2="46.52000045776367" y2="334.2081869468857" style="visibility: inherit;" fill="rgb(0, 0, 0)" stroke="rgb(204, 204, 204)" stroke-width="1px"></line><line x1="51.52000045776367" y1="327.3407028295364" x2="46.52000045776367" y2="327.3407028295364" style="visibility: inherit;" fill="rgb(0, 0, 0)" stroke="rgb(204, 204, 204)" stroke-width="1px"></line><line x1="51.52000045776367" y1="282.160805751771" x2="46.52000045776367" y2="282.160805751771" style="visibility: inherit;" fill="rgb(0, 0, 0)" stroke="rgb(204, 204, 204)" stroke-width="1px"></line><line x1="51.52000045776367" y1="255.73226017483697" x2="46.52000045776367" y2="255.73226017483697" style="visibility: inherit;" fill="rgb(0, 0, 0)" stroke="rgb(204, 204, 204)" stroke-width="1px"></line><line x1="51.52000045776367" y1="236.9809086740057" x2="46.52000045776367" y2="236.9809086740057" style="visibility: inherit;" fill="rgb(0, 0, 0)" stroke="rgb(204, 204, 204)" stroke-width="1px"></line><line x1="51.52000045776367" y1="222.43623048055358" x2="46.52000045776367" y2="222.43623048055358" style="visibility: inherit;" fill="rgb(0, 0, 0)" stroke="rgb(204, 204, 204)" stroke-width="1px"></line><line x1="51.52000045776367" y1="210.5523630970716" x2="46.52000045776367" y2="210.5523630970716" style="visibility: inherit;" fill="rgb(0, 0, 0)" stroke="rgb(204, 204, 204)" stroke-width="1px"></line><line x1="51.52000045776367" y1="200.50469639021586" x2="46.52000045776367" y2="200.50469639021586" style="visibility: inherit;" fill="rgb(0, 0, 0)" stroke="rgb(204, 204, 204)" stroke-width="1px"></line><line x1="51.52000045776367" y1="191.8010115962403" x2="46.52000045776367" y2="191.8010115962403" style="visibility: inherit;" fill="rgb(0, 0, 0)" stroke="rgb(204, 204, 204)" stroke-width="1px"></line><line x1="51.52000045776367" y1="184.1238175201375" x2="46.52000045776367" y2="184.1238175201375" style="visibility: inherit;" fill="rgb(0, 0, 0)" stroke="rgb(204, 204, 204)" stroke-width="1px"></line><line x1="51.52000045776367" y1="177.25633340278821" x2="46.52000045776367" y2="177.25633340278821" style="visibility: inherit;" fill="rgb(0, 0, 0)" stroke="rgb(204, 204, 204)" stroke-width="1px"></line><line x1="51.52000045776367" y1="132.07643632502283" x2="46.52000045776367" y2="132.07643632502283" style="visibility: inherit;" fill="rgb(0, 0, 0)" stroke="rgb(204, 204, 204)" stroke-width="1px"></line><line x1="51.52000045776367" y1="105.64789074808874" x2="46.52000045776367" y2="105.64789074808874" style="visibility: inherit;" fill="rgb(0, 0, 0)" stroke="rgb(204, 204, 204)" stroke-width="1px"></line><line x1="51.52000045776367" y1="86.89653924725746" x2="46.52000045776367" y2="86.89653924725746" style="visibility: inherit;" fill="rgb(0, 0, 0)" stroke="rgb(204, 204, 204)" stroke-width="1px"></line><line x1="51.52000045776367" y1="72.35186105380535" x2="46.52000045776367" y2="72.35186105380535" style="visibility: inherit;" fill="rgb(0, 0, 0)" stroke="rgb(204, 204, 204)" stroke-width="1px"></line><line x1="51.52000045776367" y1="60.46799367032338" x2="46.52000045776367" y2="60.46799367032338" style="visibility: inherit;" fill="rgb(0, 0, 0)" stroke="rgb(204, 204, 204)" stroke-width="1px"></line><line x1="51.52000045776367" y1="50.42032696346763" x2="46.52000045776367" y2="50.42032696346763" style="visibility: inherit;" fill="rgb(0, 0, 0)" stroke="rgb(204, 204, 204)" stroke-width="1px"></line><line x1="51.52000045776367" y1="41.716642169492104" x2="46.52000045776367" y2="41.716642169492104" style="visibility: inherit;" fill="rgb(0, 0, 0)" stroke="rgb(204, 204, 204)" stroke-width="1px"></line><line x1="51.52000045776367" y1="34.03944809338935" x2="46.52000045776367" y2="34.03944809338935" style="visibility: inherit;" fill="rgb(0, 0, 0)" stroke="rgb(204, 204, 204)" stroke-width="1px"></line><line x1="51.52000045776367" y1="27.17196397603999" x2="46.52000045776367" y2="27.17196397603999" style="visibility: inherit;" fill="rgb(0, 0, 0)" stroke="rgb(204, 204, 204)" stroke-width="1px"></line></g><g transform="translate(41.52000045776367, 0)"><text style="text-anchor: end; visibility: hidden; font-family: &quot;Helvetica Neue&quot;, sans-serif; font-size: 12px; font-weight: 200;" x="0" y="372.52059990730174" dx="0em" dy="0.3em" fill="rgb(50, 49, 63)" stroke="none" stroke-width="1px">5e-3</text><text style="text-anchor: end; visibility: inherit; font-family: &quot;Helvetica Neue&quot;, sans-serif; font-size: 12px; font-weight: 200;" x="0" y="360.6367325238198" dx="0em" dy="0.3em" fill="rgb(50, 49, 63)" stroke="none" stroke-width="1px">6e-3</text><text style="text-anchor: end; visibility: hidden; font-family: &quot;Helvetica Neue&quot;, sans-serif; font-size: 12px; font-weight: 200;" x="0" y="350.5890658169641" dx="0em" dy="0.3em" fill="rgb(50, 49, 63)" stroke="none" stroke-width="1px">7e-3</text><text style="text-anchor: end; visibility: hidden; font-family: &quot;Helvetica Neue&quot;, sans-serif; font-size: 12px; font-weight: 200;" x="0" y="341.88538102298855" dx="0em" dy="0.3em" fill="rgb(50, 49, 63)" stroke="none" stroke-width="1px">8e-3</text><text style="text-anchor: end; visibility: inherit; font-family: &quot;Helvetica Neue&quot;, sans-serif; font-size: 12px; font-weight: 200;" x="0" y="334.2081869468857" dx="0em" dy="0.3em" fill="rgb(50, 49, 63)" stroke="none" stroke-width="1px">9e-3</text><text style="text-anchor: end; visibility: hidden; font-family: &quot;Helvetica Neue&quot;, sans-serif; font-size: 12px; font-weight: 200;" x="0" y="327.3407028295364" dx="0em" dy="0.3em" fill="rgb(50, 49, 63)" stroke="none" stroke-width="1px">0.01</text><text style="text-anchor: end; visibility: hidden; font-family: &quot;Helvetica Neue&quot;, sans-serif; font-size: 12px; font-weight: 200;" x="0" y="282.160805751771" dx="0em" dy="0.3em" fill="rgb(50, 49, 63)" stroke="none" stroke-width="1px">0.02</text><text style="text-anchor: end; visibility: inherit; font-family: &quot;Helvetica Neue&quot;, sans-serif; font-size: 12px; font-weight: 200;" x="0" y="255.73226017483697" dx="0em" dy="0.3em" fill="rgb(50, 49, 63)" stroke="none" stroke-width="1px">0.03</text><text style="text-anchor: end; visibility: hidden; font-family: &quot;Helvetica Neue&quot;, sans-serif; font-size: 12px; font-weight: 200;" x="0" y="236.9809086740057" dx="0em" dy="0.3em" fill="rgb(50, 49, 63)" stroke="none" stroke-width="1px">0.04</text><text style="text-anchor: end; visibility: hidden; font-family: &quot;Helvetica Neue&quot;, sans-serif; font-size: 12px; font-weight: 200;" x="0" y="222.43623048055358" dx="0em" dy="0.3em" fill="rgb(50, 49, 63)" stroke="none" stroke-width="1px">0.05</text><text style="text-anchor: end; visibility: inherit; font-family: &quot;Helvetica Neue&quot;, sans-serif; font-size: 12px; font-weight: 200;" x="0" y="210.5523630970716" dx="0em" dy="0.3em" fill="rgb(50, 49, 63)" stroke="none" stroke-width="1px">0.06</text><text style="text-anchor: end; visibility: hidden; font-family: &quot;Helvetica Neue&quot;, sans-serif; font-size: 12px; font-weight: 200;" x="0" y="200.50469639021586" dx="0em" dy="0.3em" fill="rgb(50, 49, 63)" stroke="none" stroke-width="1px">0.07</text><text style="text-anchor: end; visibility: hidden; font-family: &quot;Helvetica Neue&quot;, sans-serif; font-size: 12px; font-weight: 200;" x="0" y="191.8010115962403" dx="0em" dy="0.3em" fill="rgb(50, 49, 63)" stroke="none" stroke-width="1px">0.08</text><text style="text-anchor: end; visibility: inherit; font-family: &quot;Helvetica Neue&quot;, sans-serif; font-size: 12px; font-weight: 200;" x="0" y="184.1238175201375" dx="0em" dy="0.3em" fill="rgb(50, 49, 63)" stroke="none" stroke-width="1px">0.09</text><text style="text-anchor: end; visibility: hidden; font-family: &quot;Helvetica Neue&quot;, sans-serif; font-size: 12px; font-weight: 200;" x="0" y="177.25633340278821" dx="0em" dy="0.3em" fill="rgb(50, 49, 63)" stroke="none" stroke-width="1px">0.1</text><text style="text-anchor: end; visibility: hidden; font-family: &quot;Helvetica Neue&quot;, sans-serif; font-size: 12px; font-weight: 200;" x="0" y="132.07643632502283" dx="0em" dy="0.3em" fill="rgb(50, 49, 63)" stroke="none" stroke-width="1px">0.2</text><text style="text-anchor: end; visibility: inherit; font-family: &quot;Helvetica Neue&quot;, sans-serif; font-size: 12px; font-weight: 200;" x="0" y="105.64789074808874" dx="0em" dy="0.3em" fill="rgb(50, 49, 63)" stroke="none" stroke-width="1px">0.3</text><text style="text-anchor: end; visibility: hidden; font-family: &quot;Helvetica Neue&quot;, sans-serif; font-size: 12px; font-weight: 200;" x="0" y="86.89653924725746" dx="0em" dy="0.3em" fill="rgb(50, 49, 63)" stroke="none" stroke-width="1px">0.4</text><text style="text-anchor: end; visibility: hidden; font-family: &quot;Helvetica Neue&quot;, sans-serif; font-size: 12px; font-weight: 200;" x="0" y="72.35186105380535" dx="0em" dy="0.3em" fill="rgb(50, 49, 63)" stroke="none" stroke-width="1px">0.5</text><text style="text-anchor: end; visibility: inherit; font-family: &quot;Helvetica Neue&quot;, sans-serif; font-size: 12px; font-weight: 200;" x="0" y="60.46799367032338" dx="0em" dy="0.3em" fill="rgb(50, 49, 63)" stroke="none" stroke-width="1px">0.6</text><text style="text-anchor: end; visibility: hidden; font-family: &quot;Helvetica Neue&quot;, sans-serif; font-size: 12px; font-weight: 200;" x="0" y="50.42032696346763" dx="0em" dy="0.3em" fill="rgb(50, 49, 63)" stroke="none" stroke-width="1px">0.7</text><text style="text-anchor: end; visibility: hidden; font-family: &quot;Helvetica Neue&quot;, sans-serif; font-size: 12px; font-weight: 200;" x="0" y="41.716642169492104" dx="0em" dy="0.3em" fill="rgb(50, 49, 63)" stroke="none" stroke-width="1px">0.8</text><text style="text-anchor: end; visibility: inherit; font-family: &quot;Helvetica Neue&quot;, sans-serif; font-size: 12px; font-weight: 200;" x="0" y="34.03944809338935" dx="0em" dy="0.3em" fill="rgb(50, 49, 63)" stroke="none" stroke-width="1px">0.9</text><text style="text-anchor: end; visibility: hidden; font-family: &quot;Helvetica Neue&quot;, sans-serif; font-size: 12px; font-weight: 200;" x="0" y="27.17196397603999" dx="0em" dy="0.3em" fill="rgb(50, 49, 63)" stroke="none" stroke-width="1px">1</text></g><line x1="51.52000045776367" y1="0" x2="51.52000045776367" y2="377.95999908447266" fill="rgb(0, 0, 0)" stroke="rgb(204, 204, 204)" stroke-width="1px"></line></g></g><g transform="translate(51, 0)" clip-path="url(#clip_0)"><clipPath id="clip_0"><rect width="1394" height="377"></rect></clipPath><g><g><g><line x1="0" y1="0" x2="0" y2="377.95999908447266" fill="rgb(0, 0, 0)" stroke="rgb(60, 60, 60)" stroke-width="1px" opacity="0.25"></line><line x1="99.60571425301687" y1="0" x2="99.60571425301687" y2="377.95999908447266" fill="rgb(0, 0, 0)" stroke="rgb(60, 60, 60)" stroke-width="1px" opacity="0.25"></line><line x1="199.21142850603374" y1="0" x2="199.21142850603374" y2="377.95999908447266" fill="rgb(0, 0, 0)" stroke="rgb(60, 60, 60)" stroke-width="1px" opacity="0.25"></line><line x1="298.8171427590506" y1="0" x2="298.8171427590506" y2="377.95999908447266" fill="rgb(0, 0, 0)" stroke="rgb(60, 60, 60)" stroke-width="1px" opacity="0.25"></line><line x1="398.4228570120675" y1="0" x2="398.4228570120675" y2="377.95999908447266" fill="rgb(0, 0, 0)" stroke="rgb(60, 60, 60)" stroke-width="1px" opacity="0.25"></line><line x1="498.0285712650844" y1="0" x2="498.0285712650844" y2="377.95999908447266" fill="rgb(0, 0, 0)" stroke="rgb(60, 60, 60)" stroke-width="1px" opacity="0.25"></line><line x1="597.6342855181013" y1="0" x2="597.6342855181013" y2="377.95999908447266" fill="rgb(0, 0, 0)" stroke="rgb(60, 60, 60)" stroke-width="1px" opacity="0.25"></line><line x1="697.2399997711182" y1="0" x2="697.2399997711182" y2="377.95999908447266" fill="rgb(0, 0, 0)" stroke="rgb(60, 60, 60)" stroke-width="1px" opacity="0.25"></line><line x1="796.845714024135" y1="0" x2="796.845714024135" y2="377.95999908447266" fill="rgb(0, 0, 0)" stroke="rgb(60, 60, 60)" stroke-width="1px" opacity="0.25"></line><line x1="896.451428277152" y1="0" x2="896.451428277152" y2="377.95999908447266" fill="rgb(0, 0, 0)" stroke="rgb(60, 60, 60)" stroke-width="1px" opacity="0.25"></line><line x1="996.0571425301688" y1="0" x2="996.0571425301688" y2="377.95999908447266" fill="rgb(0, 0, 0)" stroke="rgb(60, 60, 60)" stroke-width="1px" opacity="0.25"></line><line x1="1095.6628567831856" y1="0" x2="1095.6628567831856" y2="377.95999908447266" fill="rgb(0, 0, 0)" stroke="rgb(60, 60, 60)" stroke-width="1px" opacity="0.25"></line><line x1="1195.2685710362025" y1="0" x2="1195.2685710362025" y2="377.95999908447266" fill="rgb(0, 0, 0)" stroke="rgb(60, 60, 60)" stroke-width="1px" opacity="0.25"></line><line x1="1294.8742852892194" y1="0" x2="1294.8742852892194" y2="377.95999908447266" fill="rgb(0, 0, 0)" stroke="rgb(60, 60, 60)" stroke-width="1px" opacity="0.25"></line><line x1="1394.4799995422363" y1="0" x2="1394.4799995422363" y2="377.95999908447266" fill="rgb(0, 0, 0)" stroke="rgb(60, 60, 60)" stroke-width="1px" opacity="0.25"></line></g><g><line x1="0" y1="372.52059990730174" x2="1394.4799995422363" y2="372.52059990730174" fill="rgb(0, 0, 0)" stroke="rgb(60, 60, 60)" stroke-width="1px" opacity="0.25"></line><line x1="0" y1="360.6367325238198" x2="1394.4799995422363" y2="360.6367325238198" fill="rgb(0, 0, 0)" stroke="rgb(60, 60, 60)" stroke-width="1px" opacity="0.25"></line><line x1="0" y1="350.5890658169641" x2="1394.4799995422363" y2="350.5890658169641" fill="rgb(0, 0, 0)" stroke="rgb(60, 60, 60)" stroke-width="1px" opacity="0.25"></line><line x1="0" y1="341.88538102298855" x2="1394.4799995422363" y2="341.88538102298855" fill="rgb(0, 0, 0)" stroke="rgb(60, 60, 60)" stroke-width="1px" opacity="0.25"></line><line x1="0" y1="334.2081869468857" x2="1394.4799995422363" y2="334.2081869468857" fill="rgb(0, 0, 0)" stroke="rgb(60, 60, 60)" stroke-width="1px" opacity="0.25"></line><line x1="0" y1="327.3407028295364" x2="1394.4799995422363" y2="327.3407028295364" fill="rgb(0, 0, 0)" stroke="rgb(60, 60, 60)" stroke-width="1px" opacity="0.25"></line><line x1="0" y1="282.160805751771" x2="1394.4799995422363" y2="282.160805751771" fill="rgb(0, 0, 0)" stroke="rgb(60, 60, 60)" stroke-width="1px" opacity="0.25"></line><line x1="0" y1="255.73226017483697" x2="1394.4799995422363" y2="255.73226017483697" fill="rgb(0, 0, 0)" stroke="rgb(60, 60, 60)" stroke-width="1px" opacity="0.25"></line><line x1="0" y1="236.9809086740057" x2="1394.4799995422363" y2="236.9809086740057" fill="rgb(0, 0, 0)" stroke="rgb(60, 60, 60)" stroke-width="1px" opacity="0.25"></line><line x1="0" y1="222.43623048055358" x2="1394.4799995422363" y2="222.43623048055358" fill="rgb(0, 0, 0)" stroke="rgb(60, 60, 60)" stroke-width="1px" opacity="0.25"></line><line x1="0" y1="210.5523630970716" x2="1394.4799995422363" y2="210.5523630970716" fill="rgb(0, 0, 0)" stroke="rgb(60, 60, 60)" stroke-width="1px" opacity="0.25"></line><line x1="0" y1="200.50469639021586" x2="1394.4799995422363" y2="200.50469639021586" fill="rgb(0, 0, 0)" stroke="rgb(60, 60, 60)" stroke-width="1px" opacity="0.25"></line><line x1="0" y1="191.8010115962403" x2="1394.4799995422363" y2="191.8010115962403" fill="rgb(0, 0, 0)" stroke="rgb(60, 60, 60)" stroke-width="1px" opacity="0.25"></line><line x1="0" y1="184.1238175201375" x2="1394.4799995422363" y2="184.1238175201375" fill="rgb(0, 0, 0)" stroke="rgb(60, 60, 60)" stroke-width="1px" opacity="0.25"></line><line x1="0" y1="177.25633340278821" x2="1394.4799995422363" y2="177.25633340278821" fill="rgb(0, 0, 0)" stroke="rgb(60, 60, 60)" stroke-width="1px" opacity="0.25"></line><line x1="0" y1="132.07643632502283" x2="1394.4799995422363" y2="132.07643632502283" fill="rgb(0, 0, 0)" stroke="rgb(60, 60, 60)" stroke-width="1px" opacity="0.25"></line><line x1="0" y1="105.64789074808874" x2="1394.4799995422363" y2="105.64789074808874" fill="rgb(0, 0, 0)" stroke="rgb(60, 60, 60)" stroke-width="1px" opacity="0.25"></line><line x1="0" y1="86.89653924725746" x2="1394.4799995422363" y2="86.89653924725746" fill="rgb(0, 0, 0)" stroke="rgb(60, 60, 60)" stroke-width="1px" opacity="0.25"></line><line x1="0" y1="72.35186105380535" x2="1394.4799995422363" y2="72.35186105380535" fill="rgb(0, 0, 0)" stroke="rgb(60, 60, 60)" stroke-width="1px" opacity="0.25"></line><line x1="0" y1="60.46799367032338" x2="1394.4799995422363" y2="60.46799367032338" fill="rgb(0, 0, 0)" stroke="rgb(60, 60, 60)" stroke-width="1px" opacity="0.25"></line><line x1="0" y1="50.42032696346763" x2="1394.4799995422363" y2="50.42032696346763" fill="rgb(0, 0, 0)" stroke="rgb(60, 60, 60)" stroke-width="1px" opacity="0.25"></line><line x1="0" y1="41.716642169492104" x2="1394.4799995422363" y2="41.716642169492104" fill="rgb(0, 0, 0)" stroke="rgb(60, 60, 60)" stroke-width="1px" opacity="0.25"></line><line x1="0" y1="34.03944809338935" x2="1394.4799995422363" y2="34.03944809338935" fill="rgb(0, 0, 0)" stroke="rgb(60, 60, 60)" stroke-width="1px" opacity="0.25"></line><line x1="0" y1="27.17196397603999" x2="1394.4799995422363" y2="27.17196397603999" fill="rgb(0, 0, 0)" stroke="rgb(60, 60, 60)" stroke-width="1px" opacity="0.25"></line></g></g></g><g><g><line x1="99.60571425301687" y1="0" x2="99.60571425301687" y2="377.95999908447266" fill="rgb(0, 0, 0)" stroke="rgb(153, 153, 153)" stroke-width="1.5px"></line></g></g><g><g><g><g><g><path style="fill: none;" stroke="rgb(255, 112, 67)" stroke-width="2px" d="M109.56628567831856,483.50508100961497L112.056428534644,165.7476712761526L114.54657139096942,155.39910444120125L117.03671424729482,169.70904005091307L119.52685710362026,186.50580794434288L122.01699995994566,158.59019978899772L124.5071428162711,173.81556656243592L126.99728567259652,189.1056341348469L129.48742852892195,182.0036393453322L131.97757138524736,200.50414760278974L134.4677142415728,224.96299584162938L136.9578570978982,216.02703613338943L139.44799995422363,227.4740367011511L141.93814281054907,246.64224204548293L144.42828566687447,241.84806165915825L146.9184285231999,241.82570350510292L149.4085713795253,242.0331848099944L151.89871423585075,265.21254291148824L154.38885709217615,278.778263407918L156.8789999485016,289.61739523230307L159.369142804827,253.15965478398778L161.85928566115243,233.47605339179606L164.34942851747786,259.8364593707199L166.8395713738033,253.0773120068712L169.3297142301287,245.11331500115557L171.81985708645414,249.1888256819218L174.30999994277954,263.011301926036L176.80014279910495,288.51159126324774L179.29028565543038,306.375404534457L181.78042851175582,330.5189280651023L184.27057136808122,293.3108861241289L186.76071422440666,260.3235255547545L189.25085708073206,233.78814578279233L191.74099993705752,255.31713130944223L194.23114279338293,262.18058948467L196.72128564970834,223.63352500373568L199.21142850603374,229.4197218430859L201.7015713623592,245.1794188343111L204.1917142186846,256.95073243554265L206.68185707501002,232.0767159283172L209.17199993133545,251.62976538598133L211.66214278766085,273.72052127243717L214.15228564398632,289.68087367545706L216.64242850031172,254.22991603510178L219.13257135663713,227.64407467815397L221.62271421296253,230.24419500357743L224.112857069288,216.40531858654364L226.6029999256134,240.59113360861159L229.09314278193884,266.654203156L231.58328563826424,271.92069484608305L234.07342849458965,262.2412029413393L236.5635713509151,280.8335029014065L239.05371420724052,270.5945624579705L241.54385706356592,286.3081577551376L244.03399991989133,307.749391065481L246.5241427762168,282.19357025172997L249.0142856325422,285.4730579060416L251.50442848886763,287.8171642722246L253.99457134519304,297.6415422722578L256.4847142015185,259.54784130810043L258.9748570578439,268.4152754934861L261.4649999141693,276.76319516325225L263.9551427704947,237.73557988421214L266.4452856268201,238.62491379516462L268.9354284831456,251.61128999469122L271.425571339471,242.72471408482866L273.9157141957964,266.9809076244705L276.4058570521218,282.077858131047L278.89599990844727,304.0329686707115L281.38614276477267,263.13360723153335L283.87628562109813,281.90775778053023L286.36642847742354,288.91451666848917L288.85657133374895,313.4425984718882L291.3467141900744,313.2728357346392L293.8368570463998,286.2300474006029L296.3269999027252,298.14275395677066L298.8171427590506,295.73049939750706L301.3072856153761,314.98931746836183L303.7974284717015,321.2553924926857L306.2875713280269,297.44989426330966L308.7777141843523,269.25263512838967L311.26785704067777,242.0860814129091L313.7579998970032,266.5512490073946L316.2481427533286,289.25526457383097L318.738285609654,279.3821465414238L321.22842846597945,283.843199186197L323.71857132230485,297.9394402358089L326.20871417863026,319.1059523422865L328.6988570349557,337.92725750551097L331.1889998912811,339.5822499242474L333.6791427476066,287.1814912903838L336.169285603932,299.7311507041569L338.6594284602574,275.69910240279535L341.1495713165828,261.99785680743474L343.63971417290827,266.58890088989745L346.1298570292337,287.41488976638516L348.6199998855591,263.7414811938457L351.1101427418845,234.16090763516527L353.6002855982099,260.5948018743819L356.0904284545353,238.70286218641533L358.58057131086076,244.63756488545664L361.0707141671862,265.8428188570697L363.56085702351163,280.808799992929L366.05099987983704,293.8200254338137L368.54114273616244,277.10912644848617L371.0312855924879,280.24612795153837L373.5214284488133,302.3817357954514L376.0115713051387,292.2144651480997L378.5017141614641,308.4949490634978L380.9918570177895,326.7112889849621L383.48199987411505,281.6645541853128L385.97214273044045,278.98904027833174L388.46228558676586,248.89874032148072L390.95242844309126,246.10105523971333L393.44257129941667,270.9624220501545L395.9327141557421,279.03563677380396L398.4228570120675,282.5114421797583L400.9129998683929,291.3399140174669L403.4031427247184,296.8612809252998L405.8932855810438,319.5683468868058L408.3834284373692,321.1326478467823L410.8735712936946,275.07725330507424L413.36371415002003,281.96288686622506L415.8538570063455,296.4244092096376L418.3439998626709,236.04742590863296L420.8341427189963,252.22432499750403L423.3242855753217,230.86201400321085L425.8144284316472,233.20593784798126L428.30457128797264,252.98603431689247L430.79471414429804,245.003786987056L433.28485700062345,269.5237295047866L435.77499985694885,281.8162504631366L438.26514271327426,302.9384905725256L440.75528556959966,251.02854281025603L443.24542842592507,274.5665948790121L445.73557128225053,298.91189653297226L448.225714138576,287.7876500534383L450.7158569949014,309.09608220691774L453.2059998512268,328.1338423191246L455.6961427075522,314.12382576109076L458.1862855638777,335.613638276861L460.6764284202031,292.05390211007955L463.1665712765285,243.63356881019027L465.6567141328539,236.3918058434448L468.1468569891793,238.86170208383783L470.6369998455048,252.56778797323597L473.1271427018302,265.4308476189002L475.61728555815563,285.7270912640596L478.10742841448103,250.12823761991325L480.59757127080644,275.3931523781314L483.08771412713185,258.51889593302246L485.57785698345725,279.7664612669178L488.06799983978266,292.0375533359014L490.5581426961082,274.68323672451237L493.0482855524336,293.9794982117822L495.538428408759,254.16711472933167L498.0285712650844,278.76495350054347L500.5187141214098,258.8391577891276L503.00885697773526,274.47542486395093L505.49899983406067,292.8173833851906L507.9891426903861,263.4157788967154L510.4792855467115,282.4766439729091L512.969428403037,272.02244164149573L515.4595712593624,271.6492619801395L517.9497141156878,263.30202084166797L520.4398569720132,248.3689957871342L522.9299998283386,252.7352373937539L525.420142684664,239.8548966354911L527.9102855409894,250.4972895302272L530.4004283973148,276.8330683209123L532.8905712536402,272.57071046490296L535.3807141099658,293.47288019439225L537.8708569662912,288.01448091707584L540.3609998226166,306.6764063260762L542.851142678942,278.88893818818L545.3412855352674,292.2024900096837L547.8314283915928,279.0769215211353L550.3215712479182,285.7189081685632L552.8117141042436,297.6843322990138L555.3018569605691,317.90942818128804L557.7919998168945,270.1674939957533L560.2821426732199,287.66384642387436L562.7722855295453,258.568315891232L565.2624283858707,277.3380438139982L567.7525712421963,295.3155058526947L570.2427140985217,313.2477410423718L572.7328569548471,327.3043885963255L575.2229998111725,294.7619342389209L577.7131426674979,315.5348181154063L580.2032855238234,340.27952995840315L582.6934283801488,346.4011823582785L585.1835712364742,320.045908954293L587.6737140927996,339.45304924348955L590.163856949125,316.42466394278546L592.6539998054504,315.3172935795014L595.1441426617758,335.50912817286167L597.6342855181013,340.518077164803L600.1244283744268,352.46170697225307L602.6145712307522,294.7739806672845L605.1047140870776,279.69252027207915L607.594856943403,302.888371835956L610.0849997997284,324.17404453876975L612.5751426560538,334.06492446118244L615.0652855123792,296.71770627097294L617.5554283687046,261.1312063751382L620.04557122503,280.9240291498767L622.5357140813555,256.27096544519827L625.0258569376809,269.7576528818928L627.5159997940063,269.82993775714135L630.0061426503318,281.41262502015445L632.4962855066572,272.0923630802187L634.9864283629826,289.7963455099599L637.476571219308,308.00987155022756L639.9667140756334,268.62687120749627L642.4568569319589,287.1495029079414L644.9469997882843,285.0731776475461L647.4371426446097,305.1291636999925L649.9272855009351,286.65697164146854L652.4174283572605,308.4254452524873L654.907571213586,329.1930575624422L657.3977140699114,336.2911844022316L659.8878569262369,262.6803947716127L662.3779997825623,251.1257660076081L664.8681426388877,276.70650922864286L667.3582854952132,291.5318228734681L669.8484283515386,289.1912757527907L672.338571207864,303.3532838876615L674.8287140641894,313.04602614670296L677.3188569205148,316.04190569054595L679.8089997768402,323.313971853132L682.2991426331656,345.8616551238093L684.789285489491,366.9570307087197L687.2794283458165,383.98039474439975" fill="none"></path></g><g><path style="fill: none;" stroke="rgb(0, 119, 187)" stroke-width="2px" d="M103.50029768030984,63.16447748700108L107.3948811076028,62.98124583152895L111.28946453489576,62.698628136833634L115.18404796218873,48.6034479160615L119.07863138948169,53.543273981691186L122.97321481677464,58.94653029899308L126.86779824406759,57.51247570091908L130.76238167136057,57.16710660393511L134.65696509865353,57.27995150587452L138.5515485259465,59.79373903208807L142.44613195323944,59.63040554223505L146.3407153805324,61.26368887468243L150.23529880782536,61.115945660180614L154.12988223511832,61.1510439382497L158.02446566241127,60.26956334055552L161.91904908970423,62.05774959366357L165.81363251699722,60.68868748790385L169.70821594429017,62.58665208022842L173.60279937158313,60.82774405687894L177.49738279887606,59.95524848563048L181.39196622616905,60.1170237463229L185.28654965346203,56.01511245078461L189.18113308075496,58.88000934119026L193.07571650804792,57.536574013903646L196.97029993534088,57.93709897074018L200.86488336263383,59.129609885240995L204.75946678992682,59.993578455775946L208.65405021721975,59.804439283291174L212.5486336445127,53.7694918741646L216.4432170718057,52.580256242386895L220.33780049909862,55.4346336332199L224.2323839263916,54.696102916131224L228.12696735368456,55.95344404629407L232.02155078097752,54.50112304595223L235.91613420827048,57.76594716974222L239.81071763556346,59.502245155952664L243.7053010628564,57.22194867817484L247.59988449014935,56.68409190883057L251.49446791744234,57.474697465072154L255.38905134473526,54.30534964119465L259.2836347720282,56.04248510222192L263.17821819932124,57.71650347879415L267.07280162661414,58.35671235088682L270.96738505390715,57.82632387101495L274.8619684812001,60.383701101735824L278.756551908493,60.52553742941109L282.651135335786,59.94665165099639L286.545718763079,61.229580560259706L290.44030219037194,59.418668803822584L294.3348856176649,58.25527009944227L298.2294690449578,59.08775549158901L302.1240524722508,57.25975911079223L306.01863589954377,58.82620068810894L309.9132193268367,55.70206090022714L313.8078027541297,56.38864122176136L317.70238618142264,58.07898594066546L321.5969696087156,58.636088315645736L325.49155303600855,56.53696642234581L329.3861364633015,58.73163139608505L333.28071989059447,53.798481781723524L337.1753033178874,56.175907920901295L341.06988674518044,56.07929382488453L344.96447017247334,56.258263716526415L348.8590535997663,52.90111935890724L352.75363702705926,55.32417144171029L356.6482204543522,56.74871174904189L360.5428038816452,57.549394231483916L364.4373873089382,57.57085584013663L368.33197073623114,54.33902654817916L372.22655416352404,55.53490171389774L376.121137590817,55.294339479368546L380.01572101811,57.29025224442938L383.91030444540297,57.45010467703878L387.80488787269593,54.28897306746177L391.69947129998894,51.39993640456129L395.5940547272818,52.216622624043964L399.4886381545748,56.44129079511413L403.38322158186776,53.73696957925796L407.2778050091607,53.749552937475016L411.17238843645373,54.63666830074271L415.0669718637467,56.642957737153665L418.9615552910396,58.45826375929863L422.85613871833255,55.99934082360352L426.7507221456255,56.51645051156504L430.6453055729185,57.67868947708615L434.5398890002115,59.472801663635096L438.4344724275044,57.94812675642936L442.32905585479733,55.90904777130294L446.2236392820903,55.93945031950204L450.1182227093833,57.15266047198202L454.01280613667626,54.83560824179921L457.9073895639692,53.464555590556415L461.8019729912621,53.50279146915483L465.6965564185551,50.42941842166374L469.5911398458481,52.767659939114765L473.48572327314105,49.63220831266733L477.380306700434,52.011886981229395L481.274890127727,54.52894618938137L485.16947355501986,54.404336453261976L489.0640569823129,55.06141849407783L492.95864040960583,55.414495952744005L496.8532238368988,53.79289093580974L500.7478072641918,51.85420480642523L504.64239069148476,54.34822010613277L508.53697411877766,54.71224320800263L512.4315575460706,56.39481347534024L516.3261409733636,56.328526516530246L520.2207244006565,56.702840454435716L524.1153078279496,52.25132647931298L528.0098912552426,55.29799193924299L531.9044746825355,58.05420418414411L535.7990581098284,58.944409024779645L539.6936415371214,57.17028443825478L543.5882249644144,57.39927852339616L547.4828083917073,56.6820503574703L551.3773918190002,54.08551675230325L555.2719752462932,56.19749580975645L559.1665586735861,56.59082593045616L563.0611421008791,59.37263108241814L566.9557255281721,57.449293211913925L570.850308955465,56.76736629307658L574.7448923827579,56.9347245437026L578.639475810051,57.04476306146512L582.534059237344,56.50141561818998L586.4286426646369,56.75896586015381L590.3232260919299,57.643179496959306L594.2178095192228,58.64902213416349L598.1123929465157,58.14091731385389L602.0069763738087,56.06259683907018L605.9015598011017,56.74321329724586L609.7961432283946,56.088203470002725L613.6907266556876,55.884166819567156L617.5853100829806,57.06264435355871L621.4798935102735,54.09314376110814L625.3744769375664,55.03841214679443L629.2690603648595,53.72961102802242L633.1636437921525,56.37256350612387L637.0582272194454,57.549304532039855L640.9528106467383,56.32545793045972L644.8473940740313,58.24220770276327L648.7419775013242,55.36299010561231L652.6365609286172,55.69683256353562L656.5311443559102,57.596778477605994L660.4257277832031,57.46234704021293L664.320311210496,58.65106018524523L668.214894637789,58.413177879410455L672.109478065082,56.44996495935095L676.004061492375,58.03669635763157L679.898644919668,58.37743447487958L683.793228346961,61.73489474296423L687.6878117742538,63.81294343328659L691.5823952015468,65.10272237615459L695.4769786288398,65.9599338360967L699.3715620561327,66.48998710402003L703.2661454834257,66.85408298973721L707.1607289107187,66.97945616261057L711.0553123380116,67.11638769389305L714.9498957653046,67.11020267117465L718.8444791925976,67.1147067160536L722.7390626198904,67.1300251353191L726.6336460471834,67.05788121417777L730.5282294744763,66.98460887593205L734.4228129017694,67.11310153053375L738.3173963290623,67.24919809487574L742.2119797563553,67.20510451384558L746.1065631836483,67.10751654131997L750.0011466109412,66.96311556503963L753.8957300382342,66.92264505094033L757.7903134655272,67.04008444978189L761.6848968928201,67.01979590345769L765.579480320113,66.99534311832218L769.4740637474059,67.007043429943L773.3686471746989,67.04726966471094L777.263230601992,66.94257110289362L781.1578140292849,66.96492260005203L785.0523974565779,66.91196146187235L788.9469808838708,66.85778021036805L792.8415643111638,67.00072846364475L796.7361477384568,67.06015107089843L800.6307311657497,67.09796050158275L804.5253145930427,67.12129512762641L808.4198980203357,67.24112868521757L812.3144814476285,67.31832866483757L816.2090648749215,67.17510419286134L820.1036483022144,67.0461693732596L823.9982317295074,67.09914007720101L827.8928151568003,67.09915698485918L831.7873985840934,67.1202712707206L835.6819820113864,67.14346874305608L839.5765654386793,67.2416316935836L843.4711488659723,67.2919973299708L847.3657322932653,67.2664940610706L851.2603157205582,67.30033729043095L855.1548991478511,67.31662089173358L859.049482575144,67.44279031544454L862.944066002437,67.4762483066022L866.83864942973,67.43808224483519L870.7332328570229,67.37718082495076L874.6278162843159,67.38559810759182L878.5223997116088,67.30616525407993L882.4169831389019,67.24215215698786L886.3115665661949,67.40109040405201L890.2061499934878,67.46290477757401L894.1007334207808,67.37347830869487L897.9953168480738,67.37145467940951L901.8899002753666,67.41343343096065L905.7844837026596,67.34769590932842L909.6790671299525,67.4237233132124L913.5736505572455,67.36236351250744L917.4682339845385,67.42745224233761L921.3628174118314,67.48072325294095L925.2574008391244,67.37111770493982L929.1519842664173,67.3568792018437L933.0465676937104,67.41324057649126L936.9411511210034,67.4289530497283L940.8357345482963,67.5084983930958L944.7303179755892,67.48215474187606L948.6249014028821,67.21779424472061L952.5194848301751,67.24588166508767L956.4140682574681,67.15124043937305L960.308651684761,67.2701518383879L964.203235112054,67.37515638203229L968.0978185393469,67.35813180048666L971.9924019666399,67.29961371525252L975.886985393933,67.38623278483607L979.7815688212258,67.3769435966455L983.6761522485189,67.46307306527899L987.5707356758119,67.55348491140978L991.4653191031047,67.69623397456775L995.3599025303977,67.60605496879168L999.2544859576906,67.6455773704999L1003.1490693849836,67.48445043989699L1007.0436528122766,67.42707220934312L1010.9382362395695,67.38805819238235L1014.8328196668625,67.31278368700833L1018.7274030941554,67.36726455649364L1022.6219865214484,67.30387950468815L1026.5165699487413,67.4069399458383L1030.4111533760345,67.41550537383011L1034.3057368033271,67.51636297647815L1038.2003202306203,67.60798452128302L1042.0949036579132,67.72346715233243L1045.989487085206,67.62969070494717L1049.8840705124992,67.6443143516143L1053.778653939792,67.62616116625804L1057.673237367085,67.66684745622314L1061.5678207943781,67.7168146391931L1065.462404221671,67.7152949355239L1069.356987648964,67.70686115644207L1073.251571076257,67.60447352260792L1077.14615450355,67.66181298001709L1081.0407379308426,67.70387132929852L1084.9353213581358,67.79807896962154L1088.8299047854287,67.76236709714613L1092.7244882127216,67.73156541776024L1096.6190716400147,67.7195119791034L1100.5136550673076,67.66208180212215L1104.4082384946005,67.55001623016818L1108.3028219218936,67.44065151821161L1112.1974053491865,67.4447126467349L1116.0919887764794,67.57298245379172L1119.9865722037725,67.66019818246349L1123.8811556310654,67.60414861991956L1127.7757390583583,67.63993048352734L1131.6703224856512,67.58636791225518L1135.5649059129441,67.66017506316172L1139.4594893402373,67.78780397991915L1143.3540727675302,67.84311317345356L1147.248656194823,67.7519789842737L1151.1432396221162,67.78842055487524L1155.037823049409,67.88502102829761L1158.932406476702,67.87379361034107L1162.8269899039951,67.88591827180579L1166.721573331288,67.70001741709359L1170.616156758581,67.71263024605184L1174.5107401858738,67.68714523340327L1178.4053236131667,67.72209871697731L1182.2999070404596,67.84023308020699L1186.1944904677528,67.92204858104986L1190.0890738950457,67.7755856886655L1193.9836573223386,67.72271600232506L1197.8782407496317,67.76310202825147L1201.7728241769246,67.76522716276446L1205.6674076042175,67.7705561311754L1209.5619910315106,67.79192201692155L1213.4565744588035,67.78233444635742L1217.3511578860964,67.78585982058223L1221.2457413133893,67.73590073496416L1225.1403247406822,67.81702061933305L1229.0349081679753,67.86482220613385L1232.9294915952682,67.8215370220961L1236.8240750225611,67.96727548917715L1240.7186584498543,67.72587053836145L1244.6132418771472,67.8186675906694L1248.50782530444,67.90330530809297L1252.4024087317332,67.92819145233562L1256.296992159026,67.8998795485096L1260.191575586319,67.8585177535769L1264.086159013612,67.64973712380771L1267.9807424409048,67.64554690227607" fill="none"></path></g></g></g></g><g opacity="0.2"><g><g><g><path style="fill: none;" stroke="rgb(255, 112, 67)" stroke-width="2px" d="M109.56628567831856,489.0745706242952L112.056428534644,106.37875217068051L114.54657139096942,141.5806096620042L117.03671424729482,204.3702613964301L119.52685710362026,232.64604645548783L122.01699995994566,127.48599739618462L124.5071428162711,214.81927605370464L126.99728567259652,230.78162743785697L129.48742852892195,170.92480220552216L131.97757138524736,258.73225343664035L134.4677142415728,337.1063404884373L136.9578570978982,202.46668116460387L139.44799995422363,255.2352001792384L141.93814281054907,309.35602068113985L144.42828566687447,233.98532124211116L146.9184285231999,241.78529200215965L149.4085713795253,242.41011403491157L151.89871423585075,361.69957272089374L154.38885709217615,314.1155163732998L156.8789999485016,315.45490248591955L159.369142804827,215.76046483444108L161.85928566115243,208.29778456437663L164.34942851747786,411.0014191995267L166.8395713738033,242.38907728247125L169.3297142301287,232.79326966148514L171.81985708645414,257.27859509959274L174.30999994277954,299.3460410485421L176.80014279910495,419.5794986438504L179.29028565543038,361.44296491344346L181.78042851175582,439.11627748424377L184.27057136808122,255.47743380944812L186.76071422440666,225.03341314827748L189.25085708073206,202.9507246338179L191.74099993705752,335.55540875012616L194.23114279338293,276.79656476303103L196.72128564970834,185.0462511564667L199.21142850603374,241.402480282986L201.7015713623592,289.68411237816986L204.1917142186846,285.8420450701171L206.68185707501002,202.51401468891518L209.17199993133545,316.93922076734464L211.66214278766085,359.01315636291054L214.15228564398632,335.108486666571L216.64242850031172,217.42332150314385L219.13257135663713,196.76881888208104L221.62271421296253,235.22867768870609L224.112857069288,197.03564382797023L226.6029999256134,349.77785852339053L229.09314278193884,410.1257526285922L231.58328563826424,282.68505232250567L234.07342849458965,247.7151006843677L236.5635713509151,340.0901023049275L239.05371420724052,255.37703031752366L241.54385706356592,330.6030376341777L244.03399991989133,387.2361311070201L246.5241427762168,252.10077640569097L249.0142856325422,291.8603752241353L251.50442848886763,292.28444719364785L253.99457134519304,320.35950844467163L256.4847142015185,221.21308529976312L258.9748570578439,288.36183878607346L261.4649999141693,295.26936268082034L263.9551427704947,198.88360488159793L266.4452856268201,240.2652012455702L268.9354284831456,284.7801327082027L271.425571339471,229.20175989399024L273.9157141957964,377.1608989777701L276.4058570521218,323.6429807738933L278.89599990844727,388.0647396989252L281.38614276477267,223.27883842460977L283.87628562109813,342.26110330317357L286.36642847742354,303.89230473641527L288.85657133374895,427.619433177528L291.3467141900744,312.9668557314255L293.8368570463998,255.01454980437774L296.3269999027252,327.51364958040034L298.8171427590506,291.5814208751239L301.3072856153761,378.3750072552544L303.7974284717015,334.39266808190104L306.2875713280269,268.73814822052304L308.7777141843523,237.19573835619784L311.26785704067777,210.7791413598536L313.7579998970032,379.77968431054427L316.2481427533286,380.6104071505292L318.738285609654,264.61523538803146L321.22842846597945,292.7815481469204L323.71857132230485,335.3545433031476L326.20871417863026,396.3006126809624L328.6988570349557,398.568539157325L331.1889998912811,342.6872396639667L333.6791427476066,242.02293729339914L336.169285603932,331.32078856692897L338.6594284602574,246.80483269017626L341.1495713165828,242.7780965328507L343.63971417290827,275.81700276974135L346.1298570292337,361.88857331541635L348.6199998855591,235.13668567431648L351.1101427418845,201.12894162730692L353.6002855982099,413.8286669975374L356.0904284545353,211.57977933372342L358.58057131086076,256.97452241434047L361.0707141671862,343.3552956345721L363.56085702351163,321.8118012107969L366.05099987983704,327.080208890151L368.54114273616244,254.7551352313303L371.0312855924879,286.3354906922635L373.5214284488133,388.0972949922437L376.0115713051387,277.0847723363192L378.5017141614641,355.42869141636316L380.9918570177895,383.7666224867941L383.48199987411505,239.73733261881728L385.97214273044045,274.41161302097424L388.46228558676586,215.51624415635362L390.95242844309126,241.3263790675607L393.44257129941667,390.42406514846687L395.9327141557421,296.7973609214924L398.4228570120675,289.31260357482677L400.9129998683929,311.1769376104962L403.4031427247184,308.21911109803625L405.8932855810438,410.95524905135915L408.3834284373692,324.0615094918475L410.8735712936946,232.67498036607827L413.36371415002003,296.63466975078404L415.8538570063455,335.3166068153652L418.3439998626709,187.91744451773647L420.8341427189963,298.6660977898506L423.3242855753217,204.19402937336625L425.8144284316472,237.67285422079377L428.30457128797264,319.825975282626L430.79471414429804,232.6594863724173L433.28485700062345,383.5770368729373L435.77499985694885,312.4984512868767L438.26514271327426,379.7720849105681L440.75528556959966,206.0698009582448L443.24542842592507,375.3026888168265L445.73557128225053,410.37318255490493L448.225714138576,271.5025209104814L450.7158569949014,387.4635489473119L453.2059998512268,390.1161505858485L455.6961427075522,294.56865534596227L458.1862855638777,415.51524103521376L460.6764284202031,250.84713621092857L463.1665712765285,200.1586992995067L465.6567141328539,225.04129243810323L468.1468569891793,243.5823392499107L470.6369998455048,288.4501327534624L473.1271427018302,298.1487988998444L475.61728555815563,356.20738631154416L478.10742841448103,213.23350572786447L480.59757127080644,401.92840335435454L483.08771412713185,236.00302027385712L485.57785698345725,357.6280338006202L488.06799983978266,322.6448593531754L490.5581426961082,251.69626489084732L493.0482855524336,357.60639675935477L495.538428408759,214.88930542498025L498.0285712650844,394.0108236003935L500.5187141214098,233.4409930253169L503.00885697773526,318.42021363648337L505.49899983406067,350.59857773994673L507.9891426903861,230.50799000231007L510.4792855467115,344.60400682082513L512.969428403037,256.542368750009L515.4595712593624,270.97956518920523L517.9497141156878,250.47746632675586L520.4398569720132,227.83061047387315L522.9299998283386,261.4634226386971L525.420142684664,221.54324579337666L527.9102855409894,275.71592559164196L530.4004283973148,427.33281253896627L532.8905712536402,265.5041411476883L535.3807141099658,368.5442858027554L537.8708569662912,279.17051189355936L540.3609998226166,366.35038079128736L542.851142678942,247.12776124349847L545.3412855352674,326.58718266654523L547.8314283915928,260.4914624330083L550.3215712479182,299.78117032264913L552.8117141042436,327.23521266824514L555.3018569605691,387.8739279574848L557.7919998168945,226.99454896515422L560.2821426732199,340.73309691585837L562.7722855295453,225.87424034995587L565.2624283858707,337.66445962187606L567.7525712421963,351.0161972965099L570.2427140985217,368.695647838608L572.7328569548471,364.56186905381657L575.2229998111725,259.7557394470448L577.7131426674979,389.5954621261932L580.2032855238234,457.8391700174147L582.6934283801488,359.1879444374615L585.1835712364742,289.34392244096284L587.6737140927996,403.8003281155415L590.163856949125,288.34782003002795L592.6539998054504,313.36065744836867L595.1441426617758,405.2340803485042L597.6342855181013,350.6905103201272L600.1244283744268,381.9381007245514L602.6145712307522,247.59074914223135L605.1047140870776,258.99867533044903L607.594856943403,399.59621506325726L610.0849997997284,402.35183099034793L612.5751426560538,356.9814910257416L615.0652855123792,258.8047562714735L617.5554283687046,224.24382438208062L620.04557122503,347.85098885452186L622.5357140813555,226.88218157448307L625.0258569376809,304.79756949815305L627.5159997940063,269.96090430445525L630.0061426503318,309.6711883259791L632.4962855066572,258.0173138677483L634.9864283629826,343.9858526080114L637.476571219308,365.0490537511417L639.9667140756334,229.5810754155727L642.4568569319589,345.9915704332069L644.9469997882843,281.47735698167793L647.4371426446097,373.8860220193557L649.9272855009351,262.599104084635L652.4174283572605,390.7654299005935L654.907571213586,403.21286116720177L657.3977140699114,351.50113313754076L659.8878569262369,210.57400722911947L662.3779997825623,234.33301703272173L664.8681426388877,409.4040130215279L667.3582854952132,331.9376692629202L669.8484283515386,285.15966335346826L672.338571207864,341.0312653969261L674.8287140641894,335.3732451666385L677.3188569205148,321.8381399516169L679.8089997768402,338.969097251695L682.2991426331656,435.61144064891477" fill="none"></path></g><g><path style="fill: none;" stroke="rgb(0, 119, 187)" stroke-width="2px" d="M103.50029768030984,63.16447748700108L107.3948811076028,62.86351673310821L111.28946453489576,62.40074010089893L115.18404796218873,33.651987870705966L119.07863138948169,61.72224210921138L122.97321481677464,68.70384698950124L126.86779824406759,55.17217856010535L130.76238167136057,56.57531140373948L134.65696509865353,57.478520847372465L138.5515485259465,64.50809441294695L142.44613195323944,59.33957774516051L146.3407153805324,64.30167732934581L150.23529880782536,60.8508807757749L154.12988223511832,61.21437604480576L158.02446566241127,58.707909537582054L161.91904908970423,65.41802869840319L165.81363251699722,58.28491680937731L169.70821594429017,66.16501222569946L173.60279937158313,57.76278997152377L177.49738279887606,58.406347017103315L181.39196622616905,60.410653114480056L185.28654965346203,49.1938701308585L189.18113308075496,64.40555389583983L193.07571650804792,55.17460236216948L196.97029993534088,58.66793795572329L200.86488336263383,61.34385467805447L204.75946678992682,61.58617389837525L208.65405021721975,59.463679235916345L212.5486336445127,44.09706093022078L216.4432170718057,50.482574556068926L220.33780049909862,60.93888898945511L224.2323839263916,53.381007390604964L228.12696735368456,58.291473300684004L232.02155078097752,51.95339188987339L235.91613420827048,64.12250619714064L239.81071763556346,62.76574922505438L243.7053010628564,53.289299304585086L247.59988449014935,55.72225025984409L251.49446791744234,58.92972288783159L255.38905134473526,48.93650147400962L259.2836347720282,59.30762557630544L263.17821819932124,60.85853432957725L267.07280162661414,59.53106508698903L270.96738505390715,56.87768699796146L274.8619684812001,65.28140651474223L278.756551908493,60.78290455984023L282.651135335786,58.91234023385164L286.545718763079,63.61655258863192L290.44030219037194,56.265358785091166L294.3348856176649,56.20204668673921L298.2294690449578,60.62126917838282L302.1240524722508,54.07781965410618L306.01863589954377,61.759211237347756L309.9132193268367,50.405017109352514L313.8078027541297,57.64933533632001L317.70238618142264,61.25282760074748L321.5969696087156,59.656139566811646L325.49155303600855,52.903361428809546L329.3861364633015,62.89982839380485L333.28071989059447,45.725099981673964L337.1753033178874,60.71015705270378L341.06988674518044,55.904883028229335L344.96447017247334,56.583272062998674L348.8590535997663,47.23536489743424L352.75363702705926,59.95028718241059L356.6482204543522,59.407555230614605L360.5428038816452,59.02329194842912L364.4373873089382,57.6096976121288L368.33197073623114,48.8711498146144L372.22655416352404,57.75559699450497L376.121137590817,54.861408114993196L380.01572101811,61.06384130475266L383.91030444540297,57.74027574246867L387.80488787269593,48.93316506541112L391.69947129998894,46.4783999838948L395.5940547272818,53.72050960730883L399.4886381545748,64.85747692766375L403.38322158186776,49.11294493257316L407.2778050091607,53.77232226498518L411.17238843645373,56.27278381157299L415.0669718637467,60.437060240650794L418.9615552910396,61.87636463098164L422.85613871833255,51.773996231868125L426.7507221456255,57.462448372771064L430.6453055729185,59.835310792622295L434.5398890002115,62.84937785982254L438.4344724275044,55.27748209146603L442.32905585479733,52.37503666644881L446.2236392820903,55.9944842428024L450.1182227093833,59.406414896160186L454.01280613667626,50.84255778007696L457.9073895639692,51.05531924215887L461.8019729912621,53.57201678275487L465.6965564185551,45.21316204968531L469.5911398458481,57.22316632228308L473.48572327314105,44.317185675013434L477.380306700434,56.55066697537006L481.274890127727,59.34495554595162L485.16947355501986,54.17952232267885L489.0640569823129,56.2671679122987L492.95864040960583,56.05810933154521L496.8532238368988,50.958160145652585L500.7478072641918,48.487262978472074L504.64239069148476,59.11760438741595L508.53697411877766,55.3759670228755L512.4315575460706,59.55350421793065L516.3261409733636,56.20878515951745L520.2207244006565,57.38548037026226L524.1153078279496,44.89821563220346L528.0098912552426,61.19949026609339L531.9044746825355,63.35705692536243L535.7990581098284,60.58633435481721L539.6936415371214,54.078688486545616L543.5882249644144,57.81558138867308L547.4828083917073,55.40431095033546L551.3773918190002,49.63612148871863L555.2719752462932,60.20108943605101L559.1665586735861,57.308442759775176L563.0611421008791,64.72790566603288L566.9557255281721,54.10795376986698L570.850308955465,55.551607759141916L574.7448923827579,57.23856984068948L578.639475810051,57.24429471592612L582.534059237344,55.529868374456555L586.4286426646369,57.22747277943506L590.3232260919299,59.273838979932464L594.2178095192228,60.50897859863005L598.1123929465157,57.2317055832504L602.0069763738087,52.46346779828332L605.9015598011017,57.99279313553524L609.7961432283946,54.91976738342635L613.6907266556876,55.51668178678625L617.5853100829806,59.25018670356525L621.4798935102735,49.04269386530467L625.3744769375664,56.7840187293333L629.2690603648595,51.42677917980603L633.1636437921525,61.44417751815553L637.0582272194454,59.733539202786744L640.9528106467383,54.16828146385524L644.8473940740313,61.85962025942888L648.7419775013242,50.45721346077744L652.6365609286172,56.305128665899645L656.5311443559102,61.181112034612966L660.4257277832031,57.2198642817724L664.320311210496,60.858104404009055L668.214894637789,57.98504491658355L672.109478065082,53.04214342943283L676.004061492375,61.00905215062244L679.898644919668,58.99838825981698L683.793228346961,68.2861172937479L687.6878117742538,67.74917202798724L691.5823952015468,67.50280575444543L695.4769786288398,67.53985547057727L699.3715620561327,67.45993806732122L703.2661454834257,67.51794056248502L707.1607289107187,67.20686934012497L711.0553123380116,67.3648285423015L714.9498957653046,67.09901552549496L718.8444791925976,67.12285527347075L722.7390626198904,67.15774513365449L726.6336460471834,66.92757620472713L730.5282294744763,66.85226895233689L734.4228129017694,67.34618882388781L738.3173963290623,67.49611956816125L742.2119797563553,67.12541542799488L746.1065631836483,66.93135135987416L750.0011466109412,66.70270584635597L753.8957300382342,66.84949812774312L757.7903134655272,67.25307010391765L761.6848968928201,66.98311018836966L765.579480320113,66.95113159865429L769.4740637474059,67.02821449986186L773.3686471746989,67.12010160606218L777.263230601992,66.75359881222664L781.1578140292849,67.00537569129528L785.0523974565779,66.81626455427869L788.9469808838708,66.75988121745337L792.8415643111638,67.26011946142836L796.7361477384568,67.16778373156967L800.6307311657497,67.16641310991315L804.5253145930427,67.16352844017166L808.4198980203357,67.4584675821215L812.3144814476285,67.45821529632809L816.2090648749215,66.91680963373949L820.1036483022144,66.81357376907653L823.9982317295074,67.19507299482706L827.8928151568003,67.09918757063394L831.7873985840934,67.15848416283853L835.6819820113864,67.18545369711018L839.5765654386793,67.41958384606721L843.4711488659723,67.38320719721202L847.3657322932653,67.22038427183321L851.2603157205582,67.36160399350337L855.1548991478511,67.34608808313607L859.049482575144,67.67165174395518L862.944066002437,67.53681710626734L866.83864942973,67.36909699620418L870.7332328570229,67.26715520730619L874.6278162843159,67.40082763958424L878.5223997116088,67.16271759828021L882.4169831389019,67.1265126678602L886.3115665661949,67.68959629365895L890.2061499934878,67.57487544377898L894.1007334207808,67.21201789706959L897.9953168480738,67.36779411638588L901.8899002753666,67.48944127927462L905.7844837026596,67.22894565705451L909.6790671299525,67.5614817458412L913.5736505572455,67.25151086888445L917.4682339845385,67.54536241579723L921.3628174118314,67.57720066793303L925.2574008391244,67.1733095666944L929.1519842664173,67.33112980957458L933.0465676937104,67.5153216574214L936.9411511210034,67.45738636416797L940.8357345482963,67.65264213097453L944.7303179755892,67.43452640729095L948.6249014028821,66.74227632380945L952.5194848301751,67.29672226439527L956.4140682574681,66.98038388477158L960.308651684761,67.48581394259583L964.203235112054,67.56553927640141L968.0978185393469,67.32734581689033L971.9924019666399,67.19388845242173L975.886985393933,67.5432187658256L979.7815688212258,67.36014292234569L983.6761522485189,67.61917005673217L987.5707356758119,67.71735823722582L991.4653191031047,67.95526241013567L995.3599025303977,67.4432384781249L999.2544859576906,67.71713389475161L1003.1490693849836,67.19398177922392L1007.0436528122766,67.32340379198763L1010.9382362395695,67.31754154987277L1014.8328196668625,67.17683342825597L1018.7274030941554,67.46593568386999L1022.6219865214484,67.18937303063012L1026.5165699487413,67.59379015513105L1030.4111533760345,67.43100299719572L1034.3057368033271,67.69921070267492L1038.2003202306203,67.77405478967091L1042.0949036579132,67.9328951960751L1045.989487085206,67.46039219445515L1049.8840705124992,67.67077670280793L1053.778653939792,67.59333509763974L1057.673237367085,67.7405130853204L1061.5678207943781,67.80730214758529L1065.462404221671,67.71254589868136L1069.356987648964,67.69160731685008L1073.251571076257,67.41966308880313L1077.14615450355,67.7656677452834L1081.0407379308426,67.78002343014106L1084.9353213581358,67.96884625005572L1088.8299047854287,67.69781439122062L1092.7244882127216,67.67588248048929L1096.6190716400147,67.69771310554296L1100.5136550673076,67.55831964626066L1104.4082384946005,67.34777910924026L1108.3028219218936,67.24327700198768L1112.1974053491865,67.45205982554404L1116.0919887764794,67.80566437788968L1119.9865722037725,67.81826756848233L1123.8811556310654,67.50287788532916L1127.7757390583583,67.70470942202593L1131.6703224856512,67.48958551154595L1135.5649059129441,67.79390408126494L1139.4594893402373,68.01932011880842L1143.3540727675302,67.94328628149691L1147.248656194823,67.58744130670425L1151.1432396221162,67.85439475552027L1155.037823049409,68.0601347742143L1158.932406476702,67.85348824966178L1162.8269899039951,67.90785738007804L1166.721573331288,67.3650660711773L1170.616156758581,67.73545291475892L1174.5107401858738,67.64106843326852L1178.4053236131667,67.78537683840489L1182.2999070404596,68.05448232539038L1186.1944904677528,68.07031332797322L1190.0890738950457,67.51146924452189L1193.9836573223386,67.62718415352697L1197.8782407496317,67.83622353283045L1201.7728241769246,67.76907168326846L1205.6674076042175,67.78019728222984L1209.5619910315106,67.83059046733064L1213.4565744588035,67.76499422117445L1217.3511578860964,67.7922376674316L1221.2457413133893,67.64562248507877L1225.1403247406822,67.96402257312855L1229.0349081679753,67.9513839080343L1232.9294915952682,67.74330756819302L1236.8240750225611,68.23174551162981L1240.7186584498543,67.29143040763603L1244.6132418771472,67.98687281679912L1248.50782530444,68.05669377852615L1252.4024087317332,67.97323436262974L1256.296992159026,67.84869485627252L1260.191575586319,67.7837613522421L1264.086159013612,67.27374606880306L1267.9807424409048,67.63796752293877" fill="none"></path></g></g></g></g></g></g><g transform="translate(51, 377)" clip-path="url(#clip_1)"><clipPath id="clip_1"><rect width="1394" height="22"></rect></clipPath><g><g><line x1="0" y1="0" x2="0" y2="5" style="visibility: inherit;" fill="rgb(0, 0, 0)" stroke="rgb(204, 204, 204)" stroke-width="1px"></line><line x1="99.60571425301687" y1="0" x2="99.60571425301687" y2="5" style="visibility: inherit;" fill="rgb(0, 0, 0)" stroke="rgb(204, 204, 204)" stroke-width="1px"></line><line x1="199.21142850603374" y1="0" x2="199.21142850603374" y2="5" style="visibility: inherit;" fill="rgb(0, 0, 0)" stroke="rgb(204, 204, 204)" stroke-width="1px"></line><line x1="298.8171427590506" y1="0" x2="298.8171427590506" y2="5" style="visibility: inherit;" fill="rgb(0, 0, 0)" stroke="rgb(204, 204, 204)" stroke-width="1px"></line><line x1="398.4228570120675" y1="0" x2="398.4228570120675" y2="5" style="visibility: inherit;" fill="rgb(0, 0, 0)" stroke="rgb(204, 204, 204)" stroke-width="1px"></line><line x1="498.0285712650844" y1="0" x2="498.0285712650844" y2="5" style="visibility: inherit;" fill="rgb(0, 0, 0)" stroke="rgb(204, 204, 204)" stroke-width="1px"></line><line x1="597.6342855181013" y1="0" x2="597.6342855181013" y2="5" style="visibility: inherit;" fill="rgb(0, 0, 0)" stroke="rgb(204, 204, 204)" stroke-width="1px"></line><line x1="697.2399997711182" y1="0" x2="697.2399997711182" y2="5" style="visibility: inherit;" fill="rgb(0, 0, 0)" stroke="rgb(204, 204, 204)" stroke-width="1px"></line><line x1="796.845714024135" y1="0" x2="796.845714024135" y2="5" style="visibility: inherit;" fill="rgb(0, 0, 0)" stroke="rgb(204, 204, 204)" stroke-width="1px"></line><line x1="896.451428277152" y1="0" x2="896.451428277152" y2="5" style="visibility: inherit;" fill="rgb(0, 0, 0)" stroke="rgb(204, 204, 204)" stroke-width="1px"></line><line x1="996.0571425301688" y1="0" x2="996.0571425301688" y2="5" style="visibility: inherit;" fill="rgb(0, 0, 0)" stroke="rgb(204, 204, 204)" stroke-width="1px"></line><line x1="1095.6628567831856" y1="0" x2="1095.6628567831856" y2="5" style="visibility: inherit;" fill="rgb(0, 0, 0)" stroke="rgb(204, 204, 204)" stroke-width="1px"></line><line x1="1195.2685710362025" y1="0" x2="1195.2685710362025" y2="5" style="visibility: inherit;" fill="rgb(0, 0, 0)" stroke="rgb(204, 204, 204)" stroke-width="1px"></line><line x1="1294.8742852892194" y1="0" x2="1294.8742852892194" y2="5" style="visibility: inherit;" fill="rgb(0, 0, 0)" stroke="rgb(204, 204, 204)" stroke-width="1px"></line><line x1="1394.4799995422363" y1="0" x2="1394.4799995422363" y2="5" style="visibility: inherit;" fill="rgb(0, 0, 0)" stroke="rgb(204, 204, 204)" stroke-width="1px"></line></g><g transform="translate(0, 8)"><text style="text-anchor: middle; visibility: hidden; font-family: &quot;Helvetica Neue&quot;, sans-serif; font-size: 12px; font-weight: 200;" x="0" y="0" dx="0em" dy="0.95em" fill="rgb(50, 49, 63)" stroke="none" stroke-width="1px">-10k</text><text style="text-anchor: middle; visibility: inherit; font-family: &quot;Helvetica Neue&quot;, sans-serif; font-size: 12px; font-weight: 200;" x="99.60571425301687" y="0" dx="0em" dy="0.95em" fill="rgb(50, 49, 63)" stroke="none" stroke-width="1px">0</text><text style="text-anchor: middle; visibility: inherit; font-family: &quot;Helvetica Neue&quot;, sans-serif; font-size: 12px; font-weight: 200;" x="199.21142850603374" y="0" dx="0em" dy="0.95em" fill="rgb(50, 49, 63)" stroke="none" stroke-width="1px">10k</text><text style="text-anchor: middle; visibility: inherit; font-family: &quot;Helvetica Neue&quot;, sans-serif; font-size: 12px; font-weight: 200;" x="298.8171427590506" y="0" dx="0em" dy="0.95em" fill="rgb(50, 49, 63)" stroke="none" stroke-width="1px">20k</text><text style="text-anchor: middle; visibility: inherit; font-family: &quot;Helvetica Neue&quot;, sans-serif; font-size: 12px; font-weight: 200;" x="398.4228570120675" y="0" dx="0em" dy="0.95em" fill="rgb(50, 49, 63)" stroke="none" stroke-width="1px">30k</text><text style="text-anchor: middle; visibility: inherit; font-family: &quot;Helvetica Neue&quot;, sans-serif; font-size: 12px; font-weight: 200;" x="498.0285712650844" y="0" dx="0em" dy="0.95em" fill="rgb(50, 49, 63)" stroke="none" stroke-width="1px">40k</text><text style="text-anchor: middle; visibility: inherit; font-family: &quot;Helvetica Neue&quot;, sans-serif; font-size: 12px; font-weight: 200;" x="597.6342855181013" y="0" dx="0em" dy="0.95em" fill="rgb(50, 49, 63)" stroke="none" stroke-width="1px">50k</text><text style="text-anchor: middle; visibility: inherit; font-family: &quot;Helvetica Neue&quot;, sans-serif; font-size: 12px; font-weight: 200;" x="697.2399997711182" y="0" dx="0em" dy="0.95em" fill="rgb(50, 49, 63)" stroke="none" stroke-width="1px">60k</text><text style="text-anchor: middle; visibility: inherit; font-family: &quot;Helvetica Neue&quot;, sans-serif; font-size: 12px; font-weight: 200;" x="796.845714024135" y="0" dx="0em" dy="0.95em" fill="rgb(50, 49, 63)" stroke="none" stroke-width="1px">70k</text><text style="text-anchor: middle; visibility: inherit; font-family: &quot;Helvetica Neue&quot;, sans-serif; font-size: 12px; font-weight: 200;" x="896.451428277152" y="0" dx="0em" dy="0.95em" fill="rgb(50, 49, 63)" stroke="none" stroke-width="1px">80k</text><text style="text-anchor: middle; visibility: inherit; font-family: &quot;Helvetica Neue&quot;, sans-serif; font-size: 12px; font-weight: 200;" x="996.0571425301688" y="0" dx="0em" dy="0.95em" fill="rgb(50, 49, 63)" stroke="none" stroke-width="1px">90k</text><text style="text-anchor: middle; visibility: inherit; font-family: &quot;Helvetica Neue&quot;, sans-serif; font-size: 12px; font-weight: 200;" x="1095.6628567831856" y="0" dx="0em" dy="0.95em" fill="rgb(50, 49, 63)" stroke="none" stroke-width="1px">100k</text><text style="text-anchor: middle; visibility: inherit; font-family: &quot;Helvetica Neue&quot;, sans-serif; font-size: 12px; font-weight: 200;" x="1195.2685710362025" y="0" dx="0em" dy="0.95em" fill="rgb(50, 49, 63)" stroke="none" stroke-width="1px">110k</text><text style="text-anchor: middle; visibility: inherit; font-family: &quot;Helvetica Neue&quot;, sans-serif; font-size: 12px; font-weight: 200;" x="1294.8742852892194" y="0" dx="0em" dy="0.95em" fill="rgb(50, 49, 63)" stroke="none" stroke-width="1px">120k</text><text style="text-anchor: middle; visibility: hidden; font-family: &quot;Helvetica Neue&quot;, sans-serif; font-size: 12px; font-weight: 200;" x="1394.4799995422363" y="0" dx="0em" dy="0.95em" fill="rgb(50, 49, 63)" stroke="none" stroke-width="1px">130k</text></g><line x1="0" y1="0" x2="1394.4799995422363" y2="0" fill="rgb(0, 0, 0)" stroke="rgb(204, 204, 204)" stroke-width="1px"></line></g></g></g></g></svg>