<svg viewBox="0 0 1446 400" xmlns="http://www.w3.org/2000/svg"><g><g><g><g><g><line x1="51.52000045776367" y1="362.4408515028082" x2="46.52000045776367" y2="362.4408515028082" style="visibility: inherit;" fill="rgb(0, 0, 0)" stroke="rgb(204, 204, 204)" stroke-width="1px"></line><line x1="51.52000045776367" y1="350.8845159348462" x2="46.52000045776367" y2="350.8845159348462" style="visibility: inherit;" fill="rgb(0, 0, 0)" stroke="rgb(204, 204, 204)" stroke-width="1px"></line><line x1="51.52000045776367" y1="341.9207256755628" x2="46.52000045776367" y2="341.9207256755628" style="visibility: inherit;" fill="rgb(0, 0, 0)" stroke="rgb(204, 204, 204)" stroke-width="1px"></line><line x1="51.52000045776367" y1="334.596775755335" x2="46.52000045776367" y2="334.596775755335" style="visibility: inherit;" fill="rgb(0, 0, 0)" stroke="rgb(204, 204, 204)" stroke-width="1px"></line><line x1="51.52000045776367" y1="328.40446432997896" x2="46.52000045776367" y2="328.40446432997896" style="visibility: inherit;" fill="rgb(0, 0, 0)" stroke="rgb(204, 204, 204)" stroke-width="1px"></line><line x1="51.52000045776367" y1="323.040440187373" x2="46.52000045776367" y2="323.040440187373" style="visibility: inherit;" fill="rgb(0, 0, 0)" stroke="rgb(204, 204, 204)" stroke-width="1px"></line><line x1="51.52000045776367" y1="318.30903557582377" x2="46.52000045776367" y2="318.30903557582377" style="visibility: inherit;" fill="rgb(0, 0, 0)" stroke="rgb(204, 204, 204)" stroke-width="1px"></line><line x1="51.52000045776367" y1="314.0766499280896" x2="46.52000045776367" y2="314.0766499280896" style="visibility: inherit;" fill="rgb(0, 0, 0)" stroke="rgb(204, 204, 204)" stroke-width="1px"></line><line x1="51.52000045776367" y1="286.2325741806163" x2="46.52000045776367" y2="286.2325741806163" style="visibility: inherit;" fill="rgb(0, 0, 0)" stroke="rgb(204, 204, 204)" stroke-width="1px"></line><line x1="51.52000045776367" y1="269.94483400110516" x2="46.52000045776367" y2="269.94483400110516" style="visibility: inherit;" fill="rgb(0, 0, 0)" stroke="rgb(204, 204, 204)" stroke-width="1px"></line><line x1="51.52000045776367" y1="258.3884984331431" x2="46.52000045776367" y2="258.3884984331431" style="visibility: inherit;" fill="rgb(0, 0, 0)" stroke="rgb(204, 204, 204)" stroke-width="1px"></line><line x1="51.52000045776367" y1="249.42470817385967" x2="46.52000045776367" y2="249.42470817385967" style="visibility: inherit;" fill="rgb(0, 0, 0)" stroke="rgb(204, 204, 204)" stroke-width="1px"></line><line x1="51.52000045776367" y1="242.10075825363194" x2="46.52000045776367" y2="242.10075825363194" style="visibility: inherit;" fill="rgb(0, 0, 0)" stroke="rgb(204, 204, 204)" stroke-width="1px"></line><line x1="51.52000045776367" y1="235.90844682827588" x2="46.52000045776367" y2="235.90844682827588" style="visibility: inherit;" fill="rgb(0, 0, 0)" stroke="rgb(204, 204, 204)" stroke-width="1px"></line><line x1="51.52000045776367" y1="230.54442268566996" x2="46.52000045776367" y2="230.54442268566996" style="visibility: inherit;" fill="rgb(0, 0, 0)" stroke="rgb(204, 204, 204)" stroke-width="1px"></line><line x1="51.52000045776367" y1="225.81301807412072" x2="46.52000045776367" y2="225.81301807412072" style="visibility: inherit;" fill="rgb(0, 0, 0)" stroke="rgb(204, 204, 204)" stroke-width="1px"></line><line x1="51.52000045776367" y1="221.58063242638647" x2="46.52000045776367" y2="221.58063242638647" style="visibility: inherit;" fill="rgb(0, 0, 0)" stroke="rgb(204, 204, 204)" stroke-width="1px"></line><line x1="51.52000045776367" y1="193.7365566789133" x2="46.52000045776367" y2="193.7365566789133" style="visibility: inherit;" fill="rgb(0, 0, 0)" stroke="rgb(204, 204, 204)" stroke-width="1px"></line><line x1="51.52000045776367" y1="177.44881649940208" x2="46.52000045776367" y2="177.44881649940208" style="visibility: inherit;" fill="rgb(0, 0, 0)" stroke="rgb(204, 204, 204)" stroke-width="1px"></line><line x1="51.52000045776367" y1="165.89248093144008" x2="46.52000045776367" y2="165.89248093144008" style="visibility: inherit;" fill="rgb(0, 0, 0)" stroke="rgb(204, 204, 204)" stroke-width="1px"></line><line x1="51.52000045776367" y1="156.92869067215665" x2="46.52000045776367" y2="156.92869067215665" style="visibility: inherit;" fill="rgb(0, 0, 0)" stroke="rgb(204, 204, 204)" stroke-width="1px"></line><line x1="51.52000045776367" y1="149.6047407519289" x2="46.52000045776367" y2="149.6047407519289" style="visibility: inherit;" fill="rgb(0, 0, 0)" stroke="rgb(204, 204, 204)" stroke-width="1px"></line><line x1="51.52000045776367" y1="143.41242932657283" x2="46.52000045776367" y2="143.41242932657283" style="visibility: inherit;" fill="rgb(0, 0, 0)" stroke="rgb(204, 204, 204)" stroke-width="1px"></line><line x1="51.52000045776367" y1="138.04840518396688" x2="46.52000045776367" y2="138.04840518396688" style="visibility: inherit;" fill="rgb(0, 0, 0)" stroke="rgb(204, 204, 204)" stroke-width="1px"></line><line x1="51.52000045776367" y1="133.3170005724176" x2="46.52000045776367" y2="133.3170005724176" style="visibility: inherit;" fill="rgb(0, 0, 0)" stroke="rgb(204, 204, 204)" stroke-width="1px"></line><line x1="51.52000045776367" y1="129.08461492468345" x2="46.52000045776367" y2="129.08461492468345" style="visibility: inherit;" fill="rgb(0, 0, 0)" stroke="rgb(204, 204, 204)" stroke-width="1px"></line><line x1="51.52000045776367" y1="101.24053917721022" x2="46.52000045776367" y2="101.24053917721022" style="visibility: inherit;" fill="rgb(0, 0, 0)" stroke="rgb(204, 204, 204)" stroke-width="1px"></line><line x1="51.52000045776367" y1="84.952798997699" x2="46.52000045776367" y2="84.952798997699" style="visibility: inherit;" fill="rgb(0, 0, 0)" stroke="rgb(204, 204, 204)" stroke-width="1px"></line><line x1="51.52000045776367" y1="73.39646342973703" x2="46.52000045776367" y2="73.39646342973703" style="visibility: inherit;" fill="rgb(0, 0, 0)" stroke="rgb(204, 204, 204)" stroke-width="1px"></line><line x1="51.52000045776367" y1="64.4326731704536" x2="46.52000045776367" y2="64.4326731704536" style="visibility: inherit;" fill="rgb(0, 0, 0)" stroke="rgb(204, 204, 204)" stroke-width="1px"></line><line x1="51.52000045776367" y1="57.10872325022581" x2="46.52000045776367" y2="57.10872325022581" style="visibility: inherit;" fill="rgb(0, 0, 0)" stroke="rgb(204, 204, 204)" stroke-width="1px"></line><line x1="51.52000045776367" y1="50.91641182486978" x2="46.52000045776367" y2="50.91641182486978" style="visibility: inherit;" fill="rgb(0, 0, 0)" stroke="rgb(204, 204, 204)" stroke-width="1px"></line><line x1="51.52000045776367" y1="45.55238768226383" x2="46.52000045776367" y2="45.55238768226383" style="visibility: inherit;" fill="rgb(0, 0, 0)" stroke="rgb(204, 204, 204)" stroke-width="1px"></line><line x1="51.52000045776367" y1="40.82098307071453" x2="46.52000045776367" y2="40.82098307071453" style="visibility: inherit;" fill="rgb(0, 0, 0)" stroke="rgb(204, 204, 204)" stroke-width="1px"></line><line x1="51.52000045776367" y1="36.5885974229804" x2="46.52000045776367" y2="36.5885974229804" style="visibility: inherit;" fill="rgb(0, 0, 0)" stroke="rgb(204, 204, 204)" stroke-width="1px"></line><line x1="51.52000045776367" y1="8.744521675507201" x2="46.52000045776367" y2="8.744521675507201" style="visibility: inherit;" fill="rgb(0, 0, 0)" stroke="rgb(204, 204, 204)" stroke-width="1px"></line></g><g transform="translate(41.52000045776367, 0)"><text style="text-anchor: end; visibility: inherit; font-family: &quot;Helvetica Neue&quot;, sans-serif; font-size: 12px; font-weight: 200;" x="0" y="362.4408515028082" dx="0em" dy="0.3em" fill="rgb(50, 49, 63)" stroke="none" stroke-width="1px">3e-4</text><text style="text-anchor: end; visibility: hidden; font-family: &quot;Helvetica Neue&quot;, sans-serif; font-size: 12px; font-weight: 200;" x="0" y="350.8845159348462" dx="0em" dy="0.3em" fill="rgb(50, 49, 63)" stroke="none" stroke-width="1px">4e-4</text><text style="text-anchor: end; visibility: hidden; font-family: &quot;Helvetica Neue&quot;, sans-serif; font-size: 12px; font-weight: 200;" x="0" y="341.9207256755628" dx="0em" dy="0.3em" fill="rgb(50, 49, 63)" stroke="none" stroke-width="1px">5e-4</text><text style="text-anchor: end; visibility: hidden; font-family: &quot;Helvetica Neue&quot;, sans-serif; font-size: 12px; font-weight: 200;" x="0" y="334.596775755335" dx="0em" dy="0.3em" fill="rgb(50, 49, 63)" stroke="none" stroke-width="1px">6e-4</text><text style="text-anchor: end; visibility: hidden; font-family: &quot;Helvetica Neue&quot;, sans-serif; font-size: 12px; font-weight: 200;" x="0" y="328.40446432997896" dx="0em" dy="0.3em" fill="rgb(50, 49, 63)" stroke="none" stroke-width="1px">7e-4</text><text style="text-anchor: end; visibility: inherit; font-family: &quot;Helvetica Neue&quot;, sans-serif; font-size: 12px; font-weight: 200;" x="0" y="323.040440187373" dx="0em" dy="0.3em" fill="rgb(50, 49, 63)" stroke="none" stroke-width="1px">8e-4</text><text style="text-anchor: end; visibility: hidden; font-family: &quot;Helvetica Neue&quot;, sans-serif; font-size: 12px; font-weight: 200;" x="0" y="318.30903557582377" dx="0em" dy="0.3em" fill="rgb(50, 49, 63)" stroke="none" stroke-width="1px">9e-4</text><text style="text-anchor: end; visibility: hidden; font-family: &quot;Helvetica Neue&quot;, sans-serif; font-size: 12px; font-weight: 200;" x="0" y="314.0766499280896" dx="0em" dy="0.3em" fill="rgb(50, 49, 63)" stroke="none" stroke-width="1px">1e-3</text><text style="text-anchor: end; visibility: hidden; font-family: &quot;Helvetica Neue&quot;, sans-serif; font-size: 12px; font-weight: 200;" x="0" y="286.2325741806163" dx="0em" dy="0.3em" fill="rgb(50, 49, 63)" stroke="none" stroke-width="1px">2e-3</text><text style="text-anchor: end; visibility: hidden; font-family: &quot;Helvetica Neue&quot;, sans-serif; font-size: 12px; font-weight: 200;" x="0" y="269.94483400110516" dx="0em" dy="0.3em" fill="rgb(50, 49, 63)" stroke="none" stroke-width="1px">3e-3</text><text style="text-anchor: end; visibility: inherit; font-family: &quot;Helvetica Neue&quot;, sans-serif; font-size: 12px; font-weight: 200;" x="0" y="258.3884984331431" dx="0em" dy="0.3em" fill="rgb(50, 49, 63)" stroke="none" stroke-width="1px">4e-3</text><text style="text-anchor: end; visibility: hidden; font-family: &quot;Helvetica Neue&quot;, sans-serif; font-size: 12px; font-weight: 200;" x="0" y="249.42470817385967" dx="0em" dy="0.3em" fill="rgb(50, 49, 63)" stroke="none" stroke-width="1px">5e-3</text><text style="text-anchor: end; visibility: hidden; font-family: &quot;Helvetica Neue&quot;, sans-serif; font-size: 12px; font-weight: 200;" x="0" y="242.10075825363194" dx="0em" dy="0.3em" fill="rgb(50, 49, 63)" stroke="none" stroke-width="1px">6e-3</text><text style="text-anchor: end; visibility: hidden; font-family: &quot;Helvetica Neue&quot;, sans-serif; font-size: 12px; font-weight: 200;" x="0" y="235.90844682827588" dx="0em" dy="0.3em" fill="rgb(50, 49, 63)" stroke="none" stroke-width="1px">7e-3</text><text style="text-anchor: end; visibility: hidden; font-family: &quot;Helvetica Neue&quot;, sans-serif; font-size: 12px; font-weight: 200;" x="0" y="230.54442268566996" dx="0em" dy="0.3em" fill="rgb(50, 49, 63)" stroke="none" stroke-width="1px">8e-3</text><text style="text-anchor: end; visibility: inherit; font-family: &quot;Helvetica Neue&quot;, sans-serif; font-size: 12px; font-weight: 200;" x="0" y="225.81301807412072" dx="0em" dy="0.3em" fill="rgb(50, 49, 63)" stroke="none" stroke-width="1px">9e-3</text><text style="text-anchor: end; visibility: hidden; font-family: &quot;Helvetica Neue&quot;, sans-serif; font-size: 12px; font-weight: 200;" x="0" y="221.58063242638647" dx="0em" dy="0.3em" fill="rgb(50, 49, 63)" stroke="none" stroke-width="1px">0.01</text><text style="text-anchor: end; visibility: hidden; font-family: &quot;Helvetica Neue&quot;, sans-serif; font-size: 12px; font-weight: 200;" x="0" y="193.7365566789133" dx="0em" dy="0.3em" fill="rgb(50, 49, 63)" stroke="none" stroke-width="1px">0.02</text><text style="text-anchor: end; visibility: hidden; font-family: &quot;Helvetica Neue&quot;, sans-serif; font-size: 12px; font-weight: 200;" x="0" y="177.44881649940208" dx="0em" dy="0.3em" fill="rgb(50, 49, 63)" stroke="none" stroke-width="1px">0.03</text><text style="text-anchor: end; visibility: hidden; font-family: &quot;Helvetica Neue&quot;, sans-serif; font-size: 12px; font-weight: 200;" x="0" y="165.89248093144008" dx="0em" dy="0.3em" fill="rgb(50, 49, 63)" stroke="none" stroke-width="1px">0.04</text><text style="text-anchor: end; visibility: inherit; font-family: &quot;Helvetica Neue&quot;, sans-serif; font-size: 12px; font-weight: 200;" x="0" y="156.92869067215665" dx="0em" dy="0.3em" fill="rgb(50, 49, 63)" stroke="none" stroke-width="1px">0.05</text><text style="text-anchor: end; visibility: hidden; font-family: &quot;Helvetica Neue&quot;, sans-serif; font-size: 12px; font-weight: 200;" x="0" y="149.6047407519289" dx="0em" dy="0.3em" fill="rgb(50, 49, 63)" stroke="none" stroke-width="1px">0.06</text><text style="text-anchor: end; visibility: hidden; font-family: &quot;Helvetica Neue&quot;, sans-serif; font-size: 12px; font-weight: 200;" x="0" y="143.41242932657283" dx="0em" dy="0.3em" fill="rgb(50, 49, 63)" stroke="none" stroke-width="1px">0.07</text><text style="text-anchor: end; visibility: hidden; font-family: &quot;Helvetica Neue&quot;, sans-serif; font-size: 12px; font-weight: 200;" x="0" y="138.04840518396688" dx="0em" dy="0.3em" fill="rgb(50, 49, 63)" stroke="none" stroke-width="1px">0.08</text><text style="text-anchor: end; visibility: hidden; font-family: &quot;Helvetica Neue&quot;, sans-serif; font-size: 12px; font-weight: 200;" x="0" y="133.3170005724176" dx="0em" dy="0.3em" fill="rgb(50, 49, 63)" stroke="none" stroke-width="1px">0.09</text><text style="text-anchor: end; visibility: inherit; font-family: &quot;Helvetica Neue&quot;, sans-serif; font-size: 12px; font-weight: 200;" x="0" y="129.08461492468345" dx="0em" dy="0.3em" fill="rgb(50, 49, 63)" stroke="none" stroke-width="1px">0.1</text><text style="text-anchor: end; visibility: hidden; font-family: &quot;Helvetica Neue&quot;, sans-serif; font-size: 12px; font-weight: 200;" x="0" y="101.24053917721022" dx="0em" dy="0.3em" fill="rgb(50, 49, 63)" stroke="none" stroke-width="1px">0.2</text><text style="text-anchor: end; visibility: hidden; font-family: &quot;Helvetica Neue&quot;, sans-serif; font-size: 12px; font-weight: 200;" x="0" y="84.952798997699" dx="0em" dy="0.3em" fill="rgb(50, 49, 63)" stroke="none" stroke-width="1px">0.3</text><text style="text-anchor: end; visibility: hidden; font-family: &quot;Helvetica Neue&quot;, sans-serif; font-size: 12px; font-weight: 200;" x="0" y="73.39646342973703" dx="0em" dy="0.3em" fill="rgb(50, 49, 63)" stroke="none" stroke-width="1px">0.4</text><text style="text-anchor: end; visibility: hidden; font-family: &quot;Helvetica Neue&quot;, sans-serif; font-size: 12px; font-weight: 200;" x="0" y="64.4326731704536" dx="0em" dy="0.3em" fill="rgb(50, 49, 63)" stroke="none" stroke-width="1px">0.5</text><text style="text-anchor: end; visibility: inherit; font-family: &quot;Helvetica Neue&quot;, sans-serif; font-size: 12px; font-weight: 200;" x="0" y="57.10872325022581" dx="0em" dy="0.3em" fill="rgb(50, 49, 63)" stroke="none" stroke-width="1px">0.6</text><text style="text-anchor: end; visibility: hidden; font-family: &quot;Helvetica Neue&quot;, sans-serif; font-size: 12px; font-weight: 200;" x="0" y="50.91641182486978" dx="0em" dy="0.3em" fill="rgb(50, 49, 63)" stroke="none" stroke-width="1px">0.7</text><text style="text-anchor: end; visibility: hidden; font-family: &quot;Helvetica Neue&quot;, sans-serif; font-size: 12px; font-weight: 200;" x="0" y="45.55238768226383" dx="0em" dy="0.3em" fill="rgb(50, 49, 63)" stroke="none" stroke-width="1px">0.8</text><text style="text-anchor: end; visibility: hidden; font-family: &quot;Helvetica Neue&quot;, sans-serif; font-size: 12px; font-weight: 200;" x="0" y="40.82098307071453" dx="0em" dy="0.3em" fill="rgb(50, 49, 63)" stroke="none" stroke-width="1px">0.9</text><text style="text-anchor: end; visibility: hidden; font-family: &quot;Helvetica Neue&quot;, sans-serif; font-size: 12px; font-weight: 200;" x="0" y="36.5885974229804" dx="0em" dy="0.3em" fill="rgb(50, 49, 63)" stroke="none" stroke-width="1px">1</text><text style="text-anchor: end; visibility: inherit; font-family: &quot;Helvetica Neue&quot;, sans-serif; font-size: 12px; font-weight: 200;" x="0" y="8.744521675507201" dx="0em" dy="0.3em" fill="rgb(50, 49, 63)" stroke="none" stroke-width="1px">2</text></g><line x1="51.52000045776367" y1="0" x2="51.52000045776367" y2="377.95999908447266" fill="rgb(0, 0, 0)" stroke="rgb(204, 204, 204)" stroke-width="1px"></line></g></g><g transform="translate(51, 0)" clip-path="url(#clip_0)"><clipPath id="clip_0"><rect width="1394" height="377"></rect></clipPath><g><g><g><line x1="0" y1="0" x2="0" y2="377.95999908447266" fill="rgb(0, 0, 0)" stroke="rgb(60, 60, 60)" stroke-width="1px" opacity="0.25"></line><line x1="99.60571425301687" y1="0" x2="99.60571425301687" y2="377.95999908447266" fill="rgb(0, 0, 0)" stroke="rgb(60, 60, 60)" stroke-width="1px" opacity="0.25"></line><line x1="199.21142850603374" y1="0" x2="199.21142850603374" y2="377.95999908447266" fill="rgb(0, 0, 0)" stroke="rgb(60, 60, 60)" stroke-width="1px" opacity="0.25"></line><line x1="298.8171427590506" y1="0" x2="298.8171427590506" y2="377.95999908447266" fill="rgb(0, 0, 0)" stroke="rgb(60, 60, 60)" stroke-width="1px" opacity="0.25"></line><line x1="398.4228570120675" y1="0" x2="398.4228570120675" y2="377.95999908447266" fill="rgb(0, 0, 0)" stroke="rgb(60, 60, 60)" stroke-width="1px" opacity="0.25"></line><line x1="498.0285712650844" y1="0" x2="498.0285712650844" y2="377.95999908447266" fill="rgb(0, 0, 0)" stroke="rgb(60, 60, 60)" stroke-width="1px" opacity="0.25"></line><line x1="597.6342855181013" y1="0" x2="597.6342855181013" y2="377.95999908447266" fill="rgb(0, 0, 0)" stroke="rgb(60, 60, 60)" stroke-width="1px" opacity="0.25"></line><line x1="697.2399997711182" y1="0" x2="697.2399997711182" y2="377.95999908447266" fill="rgb(0, 0, 0)" stroke="rgb(60, 60, 60)" stroke-width="1px" opacity="0.25"></line><line x1="796.845714024135" y1="0" x2="796.845714024135" y2="377.95999908447266" fill="rgb(0, 0, 0)" stroke="rgb(60, 60, 60)" stroke-width="1px" opacity="0.25"></line><line x1="896.451428277152" y1="0" x2="896.451428277152" y2="377.95999908447266" fill="rgb(0, 0, 0)" stroke="rgb(60, 60, 60)" stroke-width="1px" opacity="0.25"></line><line x1="996.0571425301688" y1="0" x2="996.0571425301688" y2="377.95999908447266" fill="rgb(0, 0, 0)" stroke="rgb(60, 60, 60)" stroke-width="1px" opacity="0.25"></line><line x1="1095.6628567831856" y1="0" x2="1095.6628567831856" y2="377.95999908447266" fill="rgb(0, 0, 0)" stroke="rgb(60, 60, 60)" stroke-width="1px" opacity="0.25"></line><line x1="1195.2685710362025" y1="0" x2="1195.2685710362025" y2="377.95999908447266" fill="rgb(0, 0, 0)" stroke="rgb(60, 60, 60)" stroke-width="1px" opacity="0.25"></line><line x1="1294.8742852892194" y1="0" x2="1294.8742852892194" y2="377.95999908447266" fill="rgb(0, 0, 0)" stroke="rgb(60, 60, 60)" stroke-width="1px" opacity="0.25"></line><line x1="1394.4799995422363" y1="0" x2="1394.4799995422363" y2="377.95999908447266" fill="rgb(0, 0, 0)" stroke="rgb(60, 60, 60)" stroke-width="1px" opacity="0.25"></line></g><g><line x1="0" y1="362.4408515028082" x2="1394.4799995422363" y2="362.4408515028082" fill="rgb(0, 0, 0)" stroke="rgb(60, 60, 60)" stroke-width="1px" opacity="0.25"></line><line x1="0" y1="350.8845159348462" x2="1394.4799995422363" y2="350.8845159348462" fill="rgb(0, 0, 0)" stroke="rgb(60, 60, 60)" stroke-width="1px" opacity="0.25"></line><line x1="0" y1="341.9207256755628" x2="1394.4799995422363" y2="341.9207256755628" fill="rgb(0, 0, 0)" stroke="rgb(60, 60, 60)" stroke-width="1px" opacity="0.25"></line><line x1="0" y1="334.596775755335" x2="1394.4799995422363" y2="334.596775755335" fill="rgb(0, 0, 0)" stroke="rgb(60, 60, 60)" stroke-width="1px" opacity="0.25"></line><line x1="0" y1="328.40446432997896" x2="1394.4799995422363" y2="328.40446432997896" fill="rgb(0, 0, 0)" stroke="rgb(60, 60, 60)" stroke-width="1px" opacity="0.25"></line><line x1="0" y1="323.040440187373" x2="1394.4799995422363" y2="323.040440187373" fill="rgb(0, 0, 0)" stroke="rgb(60, 60, 60)" stroke-width="1px" opacity="0.25"></line><line x1="0" y1="318.30903557582377" x2="1394.4799995422363" y2="318.30903557582377" fill="rgb(0, 0, 0)" stroke="rgb(60, 60, 60)" stroke-width="1px" opacity="0.25"></line><line x1="0" y1="314.0766499280896" x2="1394.4799995422363" y2="314.0766499280896" fill="rgb(0, 0, 0)" stroke="rgb(60, 60, 60)" stroke-width="1px" opacity="0.25"></line><line x1="0" y1="286.2325741806163" x2="1394.4799995422363" y2="286.2325741806163" fill="rgb(0, 0, 0)" stroke="rgb(60, 60, 60)" stroke-width="1px" opacity="0.25"></line><line x1="0" y1="269.94483400110516" x2="1394.4799995422363" y2="269.94483400110516" fill="rgb(0, 0, 0)" stroke="rgb(60, 60, 60)" stroke-width="1px" opacity="0.25"></line><line x1="0" y1="258.3884984331431" x2="1394.4799995422363" y2="258.3884984331431" fill="rgb(0, 0, 0)" stroke="rgb(60, 60, 60)" stroke-width="1px" opacity="0.25"></line><line x1="0" y1="249.42470817385967" x2="1394.4799995422363" y2="249.42470817385967" fill="rgb(0, 0, 0)" stroke="rgb(60, 60, 60)" stroke-width="1px" opacity="0.25"></line><line x1="0" y1="242.10075825363194" x2="1394.4799995422363" y2="242.10075825363194" fill="rgb(0, 0, 0)" stroke="rgb(60, 60, 60)" stroke-width="1px" opacity="0.25"></line><line x1="0" y1="235.90844682827588" x2="1394.4799995422363" y2="235.90844682827588" fill="rgb(0, 0, 0)" stroke="rgb(60, 60, 60)" stroke-width="1px" opacity="0.25"></line><line x1="0" y1="230.54442268566996" x2="1394.4799995422363" y2="230.54442268566996" fill="rgb(0, 0, 0)" stroke="rgb(60, 60, 60)" stroke-width="1px" opacity="0.25"></line><line x1="0" y1="225.81301807412072" x2="1394.4799995422363" y2="225.81301807412072" fill="rgb(0, 0, 0)" stroke="rgb(60, 60, 60)" stroke-width="1px" opacity="0.25"></line><line x1="0" y1="221.58063242638647" x2="1394.4799995422363" y2="221.58063242638647" fill="rgb(0, 0, 0)" stroke="rgb(60, 60, 60)" stroke-width="1px" opacity="0.25"></line><line x1="0" y1="193.7365566789133" x2="1394.4799995422363" y2="193.7365566789133" fill="rgb(0, 0, 0)" stroke="rgb(60, 60, 60)" stroke-width="1px" opacity="0.25"></line><line x1="0" y1="177.44881649940208" x2="1394.4799995422363" y2="177.44881649940208" fill="rgb(0, 0, 0)" stroke="rgb(60, 60, 60)" stroke-width="1px" opacity="0.25"></line><line x1="0" y1="165.89248093144008" x2="1394.4799995422363" y2="165.89248093144008" fill="rgb(0, 0, 0)" stroke="rgb(60, 60, 60)" stroke-width="1px" opacity="0.25"></line><line x1="0" y1="156.92869067215665" x2="1394.4799995422363" y2="156.92869067215665" fill="rgb(0, 0, 0)" stroke="rgb(60, 60, 60)" stroke-width="1px" opacity="0.25"></line><line x1="0" y1="149.6047407519289" x2="1394.4799995422363" y2="149.6047407519289" fill="rgb(0, 0, 0)" stroke="rgb(60, 60, 60)" stroke-width="1px" opacity="0.25"></line><line x1="0" y1="143.41242932657283" x2="1394.4799995422363" y2="143.41242932657283" fill="rgb(0, 0, 0)" stroke="rgb(60, 60, 60)" stroke-width="1px" opacity="0.25"></line><line x1="0" y1="138.04840518396688" x2="1394.4799995422363" y2="138.04840518396688" fill="rgb(0, 0, 0)" stroke="rgb(60, 60, 60)" stroke-width="1px" opacity="0.25"></line><line x1="0" y1="133.3170005724176" x2="1394.4799995422363" y2="133.3170005724176" fill="rgb(0, 0, 0)" stroke="rgb(60, 60, 60)" stroke-width="1px" opacity="0.25"></line><line x1="0" y1="129.08461492468345" x2="1394.4799995422363" y2="129.08461492468345" fill="rgb(0, 0, 0)" stroke="rgb(60, 60, 60)" stroke-width="1px" opacity="0.25"></line><line x1="0" y1="101.24053917721022" x2="1394.4799995422363" y2="101.24053917721022" fill="rgb(0, 0, 0)" stroke="rgb(60, 60, 60)" stroke-width="1px" opacity="0.25"></line><line x1="0" y1="84.952798997699" x2="1394.4799995422363" y2="84.952798997699" fill="rgb(0, 0, 0)" stroke="rgb(60, 60, 60)" stroke-width="1px" opacity="0.25"></line><line x1="0" y1="73.39646342973703" x2="1394.4799995422363" y2="73.39646342973703" fill="rgb(0, 0, 0)" stroke="rgb(60, 60, 60)" stroke-width="1px" opacity="0.25"></line><line x1="0" y1="64.4326731704536" x2="1394.4799995422363" y2="64.4326731704536" fill="rgb(0, 0, 0)" stroke="rgb(60, 60, 60)" stroke-width="1px" opacity="0.25"></line><line x1="0" y1="57.10872325022581" x2="1394.4799995422363" y2="57.10872325022581" fill="rgb(0, 0, 0)" stroke="rgb(60, 60, 60)" stroke-width="1px" opacity="0.25"></line><line x1="0" y1="50.91641182486978" x2="1394.4799995422363" y2="50.91641182486978" fill="rgb(0, 0, 0)" stroke="rgb(60, 60, 60)" stroke-width="1px" opacity="0.25"></line><line x1="0" y1="45.55238768226383" x2="1394.4799995422363" y2="45.55238768226383" fill="rgb(0, 0, 0)" stroke="rgb(60, 60, 60)" stroke-width="1px" opacity="0.25"></line><line x1="0" y1="40.82098307071453" x2="1394.4799995422363" y2="40.82098307071453" fill="rgb(0, 0, 0)" stroke="rgb(60, 60, 60)" stroke-width="1px" opacity="0.25"></line><line x1="0" y1="36.5885974229804" x2="1394.4799995422363" y2="36.5885974229804" fill="rgb(0, 0, 0)" stroke="rgb(60, 60, 60)" stroke-width="1px" opacity="0.25"></line><line x1="0" y1="8.744521675507201" x2="1394.4799995422363" y2="8.744521675507201" fill="rgb(0, 0, 0)" stroke="rgb(60, 60, 60)" stroke-width="1px" opacity="0.25"></line></g></g></g><g><g><line x1="99.60571425301687" y1="0" x2="99.60571425301687" y2="377.95999908447266" fill="rgb(0, 0, 0)" stroke="rgb(153, 153, 153)" stroke-width="1.5px"></line></g></g><g><g><g><g><g><path style="fill: none;" stroke="rgb(255, 112, 67)" stroke-width="2px" d="M102.0958571093423,310.5468980906479L104.58599996566772,310.7644120304143L107.07614282199316,315.4159578192271L109.56628567831856,317.8237196476517L112.056428534644,121.99190155584705L114.54657139096942,115.61414734507036L117.03671424729482,124.43326728180816L119.52685710362026,134.78500572716976L122.01699995994566,117.58079858441516L124.5071428162711,126.96409277370864L126.99728567259652,136.38726164320383L129.48742852892195,132.01034859851418L131.97757138524736,143.41209111246326L134.4677142415728,158.48591967577275L136.9578570978982,152.97874601921623L139.44799995422363,160.0334577716913L141.93814281054907,171.8466976432217L144.42828566687447,168.89207555556825L146.9184285231999,168.8782963711222L149.4085713795253,169.0061657454069L151.89871423585075,183.29145288638685L154.38885709217615,191.65191790518685L156.8789999485016,198.33200411776818L159.369142804827,175.86333658456593L161.85928566115243,163.73246149195793L164.34942851747786,179.9782076818606L166.8395713738033,175.81258926835702L169.3297142301287,170.90442988282072L171.81985708645414,173.41614052061985L174.30999994277954,181.93484243125735L176.80014279910495,197.6505043475665L179.29028565543038,208.65985589624583L181.78042851175582,223.53935189954746L184.27057136808122,200.6082784525146L186.76071422440666,180.2783833927293L189.25085708073206,163.92480199596912L191.74099993705752,177.19297528858397L194.23114279338293,181.42287977445997L196.72128564970834,157.6665754738448L199.21142850603374,161.23257082809155L201.7015713623592,170.94516924383373L204.1917142186846,178.19975300253063L206.68185707501002,162.87005894459674L209.17199993133545,174.9204757318724L211.66214278766085,188.53486443140147L214.15228564398632,198.37112546805528L216.64242850031172,176.52293160963444L219.13257135663713,160.1382510673349L221.62271421296253,161.74068825680035L224.112857069288,153.21187902661194L226.6029999256134,168.1174390001041L229.09314278193884,184.17993868752126L231.58328563826424,187.42564314961214L234.07342849458965,181.46023545227192L236.5635713509151,192.91854859355237L239.05371420724052,186.60835641249923L241.54385706356592,196.29254265503016L244.03399991989133,209.50663482936272L246.5241427762168,193.75674922643316L249.0142856325422,195.77787606747893L251.50442848886763,197.2225335244844L253.99457134519304,203.2772335768968L256.4847142015185,179.80033425324623L258.9748570578439,185.26527607723108L261.4649999141693,190.4100444953332L263.9551427704947,166.3575798736811L266.4452856268201,166.90567055965L268.9354284831456,174.9090894687815L271.425571339471,169.43235072491086L273.9157141957964,184.38128451952863L276.4058570521218,193.685436601536L278.89599990844727,207.21622795899174L281.38614276477267,182.01021839293168L283.87628562109813,193.58060486550286L286.36642847742354,197.89882464552588L288.85657133374895,213.01532140288947L291.3467141900744,212.9106977357102L293.8368570463998,196.24440375323982L296.3269999027252,203.5861270674037L298.8171427590506,202.0994703237039L301.3072856153761,213.96855422729678L303.7974284717015,217.83029537549623L306.2875713280269,203.15912215958173L308.7777141843523,185.7813353560294L311.26785704067777,169.03876557660627L313.7579998970032,184.11648871756333L316.2481427533286,198.10882535603653L318.738285609654,192.02408713972528L321.22842846597945,194.7734047740866L323.71857132230485,203.46082614789927L326.20871417863026,216.50560943698332L328.6988570349557,228.10505699059541L331.1889998912811,229.12501801860466L333.6791427476066,196.83077241386184L336.169285603932,204.56504561773016L338.6594284602574,189.75425107080412L341.1495713165828,181.31026281790253L343.63971417290827,184.13969332705236L346.1298570292337,196.97461437157898L348.6199998855591,182.38484714922143L351.1101427418845,164.15453269312798L353.6002855982099,180.44556921830122L356.0904284545353,166.95370964452536L358.58057131086076,170.61122819102425L361.0707141671862,183.67988783878116L363.56085702351163,192.90332435225653L366.05099987983704,200.92205768668327L368.54114273616244,190.62323968904724L371.0312855924879,192.55655324486563L373.5214284488133,206.19858391309398L376.0115713051387,199.9325613596862L378.5017141614641,209.96611735839954L380.9918570177895,221.19272878121726L383.48199987411505,193.43072007679615L385.97214273044045,191.78181831499774L388.46228558676586,173.2373628059329L390.95242844309126,171.51316774634202L393.44257129941667,186.8350658786934L395.9327141557421,191.8105354310917L398.4228570120675,193.95265162140277L400.9129998683929,199.39358120476322L403.4031427247184,202.79636360036432L405.8932855810438,216.79058017741357L408.3834284373692,217.75464865119648L410.8735712936946,189.37100952975675L413.36371415002003,193.6145805612716L415.8538570063455,202.5271224128094L418.3439998626709,165.31718159458546L420.8341427189963,175.2868989406533L423.3242855753217,162.12144607469475L425.8144284316472,163.56599104494467L428.30457128797264,175.7563354236559L430.79471414429804,170.83692848245656L433.28485700062345,185.94840905117562L435.77499985694885,193.52420950292444L438.26514271327426,206.54170824909988L440.75528556959966,174.5499461817326L443.24542842592507,189.05629407407773L445.73557128225053,204.0601446180746L448.225714138576,197.20434410404152L450.7158569949014,210.3365917919931L453.2059998512268,222.06943911818556L455.6961427075522,213.4351573358743L458.1862855638777,226.67918855750762L460.6764284202031,199.83360740710893L463.1665712765285,169.992471961417L465.6567141328539,165.5294207011577L468.1468569891793,167.0516016367966L470.6369998455048,175.49857293132823L473.1271427018302,183.42599265301686L475.61728555815563,195.9344351683299L478.10742841448103,173.99509396786854L480.59757127080644,189.56569606708152L483.08771412713185,179.1662019329718L485.57785698345725,192.26093779720037L488.06799983978266,199.8235317642669L490.5581426961082,189.12817968231286L493.0482855524336,201.02033971910515L495.538428408759,176.48422757469842L498.0285712650844,191.64371509612582L500.5187141214098,179.36357722501975L503.00885697773526,189.00010658872574L505.49899983406067,200.30413593486057L507.9891426903861,182.18411894887134L510.4792855467115,193.93120571359742L512.969428403037,187.48834903567595L515.4595712593624,187.2583608455671L517.9497141156878,182.11401060187413L520.4398569720132,172.91088470626468L522.9299998283386,175.6017709165017L525.420142684664,167.6637009578865L527.9102855409894,174.2225382519457L530.4004283973148,190.4531068664416L532.8905712536402,187.82624353381198L535.3807141099658,200.70811434092508L537.8708569662912,197.34413848511585L540.3609998226166,208.84536133623266L542.851142678942,191.72012605005372L545.3412855352674,199.92518116002418L547.8314283915928,191.8359789514683L550.3215712479182,195.92939197997433L552.8117141042436,203.30360479116007L555.3018569605691,215.76819940448198L557.7919998168945,186.34515690607134L560.2821426732199,197.1280447350222L562.7722855295453,179.19665913072626L565.2624283858707,190.76431996761133L567.7525712421963,201.84371251007764L570.2427140985217,212.89523204062127L572.7328569548471,221.55825220142725L575.2229998111725,201.5025499368421L577.7131426674979,214.30474271640415L580.2032855238234,229.5547471535519L582.6934283801488,233.32748158073403L585.1835712364742,217.08489856327324L587.6737140927996,229.04539248215303L590.163856949125,214.85314889312627L592.6539998054504,214.17068376438294L595.1441426617758,226.61477966239383L597.6342855181013,229.70176224021563L600.1244283744268,237.06254335235502L602.6145712307522,201.50997407203354L605.1047140870776,192.21536844458348L607.594856943403,206.51082039880194L610.0849997997284,219.62904158582518L612.5751426560538,225.72472633904158L615.0652855123792,202.7078794777995L617.5554283687046,180.77615181180815L620.04557122503,192.97433932975522L622.5357140813555,177.78081704220287L625.0258569376809,186.09257450201855L627.5159997940063,186.13712319893904L630.0061426503318,193.27545777627356L632.4962855066572,187.53144116208836L634.9864283629826,198.44229000614754L637.476571219308,209.66716725234582L639.9667140756334,185.39568113500715L642.4568569319589,196.81105818250285L644.9469997882843,195.53143247358796L647.4371426446097,207.89180580231363L649.9272855009351,196.50751437698986L652.4174283572605,209.9232826132211L654.907571213586,222.72222656073L657.3977140699114,227.09675581324427L659.8878569262369,181.73090651132188L662.3779997825623,174.6098642038304L664.8681426388877,190.3751093237377L667.3582854952132,199.51185338041492L669.8484283515386,198.06938946318866L672.338571207864,206.7973426624831L674.8287140641894,212.77091646671172L677.3188569205148,214.61725747996124L679.8089997768402,219.09898440207348L682.2991426331656,232.9949744668173L684.789285489491,245.995916781861L687.2794283458165,256.4873049510377L689.769571202142,269.73927876595036L692.2597140584674,277.8283711534226L694.7498569147928,288.39542282808134L697.2399997711182,297.4625930641197L699.7301426274436,304.15641079334875L702.220285483769,308.92141163105174L704.7104283400944,309.1449358864935L707.2005711964198,312.61035380898346L709.6907140527452,316.8415659886967L712.1808569090706,309.3100070828269L714.670999765396,310.4556504419563L717.1611426217215,314.3714271106332L719.651285478047,317.5086885118291L722.1414283343724,320.02336954280554L724.6315711906979,320.84500954341155L727.1217140470233,317.7548759498995L729.6118569033487,318.74439507547464L732.1019997596741,319.1454982781919L734.5921426159995,320.572135913823L737.0822854723249,317.0572475009647L739.5724283286503,318.7479543076084L742.0625711849758,322.68190675235473L744.5527140413012,325.5077352237906L747.0428568976266,323.59719248603966L749.532999753952,323.7956259898118L752.0231426102774,321.8298507150574L754.5132854666028,312.5796176820727L757.0034283229282,314.94018839867846L759.4935711792536,319.5741617173045L761.983714035579,320.7146878532474L764.4738568919046,322.73837075210724L766.9639997482301,318.397114263259L769.4541426045555,319.9417214352209L771.9442854608809,321.64277908196436L774.4344283172063,323.71493626090864L776.9245711735317,322.8423339675345L779.4147140298571,321.1169408491325L781.9048568861825,321.4486788348836L784.3949997425079,324.1796535015481L786.8851425988333,325.1994087312055L789.3752854551587,327.033907344682L791.8654283114842,323.1679976951276L794.3555711678096,323.34579253108177L796.845714024135,314.2444184108175L799.3358568804604,318.14912067341913L801.8259997367858,321.7121699462643L804.3161425931113,320.2762880428035L806.8062854494368,324.08009999144775L809.2964283057622,324.5160485850598L811.7865711620876,324.72606137021313L814.276714018413,327.3066298073357L816.7668568747384,326.1299769425234L819.2569997310638,324.7451416722199L821.7471425873892,325.6810696623133L824.2372854437147,325.15160241713863L826.7274283000401,326.61665247928977L829.2175711563656,323.18882346740963L831.707714012691,323.96571350097656L834.1978568690164,323.57169578311635L836.6879997253418,322.42409223269783L839.1781425816672,323.3044729015476L841.6682854379926,323.01177392665875L844.158428294318,324.2185298554424L846.6485711506434,322.48123419641433L849.1387140069688,321.84654451503866L851.6288568632943,321.5066487629018L854.1189997196199,320.7582320632557L856.6091425759453,321.992654984109L859.0992854322707,322.7212821178862L861.5894282885961,323.0404791926823L864.0795711449215,325.2302779221716L866.5697140012469,326.50711624967005L869.0598568575723,327.22528784709533L871.5499997138977,326.25118868172416L874.0401425702231,325.8321198761884L876.5302854265485,326.2083667898098L879.0204282828739,325.10332283935816L881.5105711391993,324.69570369355233L884.0007139955247,326.62262432906914L886.4908568518501,322.84830963708873L888.9809997081755,322.2605906826837L891.4711425645011,323.1090216904475L893.9612854208266,322.1678336362331L896.451428277152,323.8888945829965L898.9415711334774,324.85842557840704L901.4317139898028,325.08994138230105L903.9218568461282,324.39545311551797L906.4119997024536,325.8084736587067L908.902142558779,324.3932065032388L911.3922854151044,324.3722052173396L913.8824282714298,326.3623728185536L916.3725711277554,327.23487036671577L918.8627139840808,326.02937653989045L921.3528568404062,325.17304576880326L923.8429996967316,325.096572342178L926.333142553057,325.74171957239395L928.8232854093824,326.8231943283379L931.3134282657078,323.11153687428543L933.8035711220332,321.91335555164306L936.2937139783586,322.24729724919547L938.7838568346841,321.0956225952166L941.2739996910096,324.2834427602502L943.764142547335,324.301657360056L946.2542854036604,324.3686255924957L948.7444282599859,323.60968374039624L951.2345711163113,322.86120868685066L953.7247139726367,323.5937032845583L956.2148568289621,320.7148716088629L958.7049996852875,321.35211496614505L961.1951425416129,319.98225722264516L963.6852853979383,322.9073205978277L966.1754282542637,322.6675165434078L968.6655711105891,319.44655290461833L971.1557139669145,318.9393958960159L973.6458568232399,320.89016103520277L976.1359996795653,320.4758151034874L978.6261425358908,320.94793268441845L981.1162853922164,318.6924346838319L983.6064282485418,320.31632601398496L986.0965711048672,322.2929061809547L988.5867139611926,320.49521693301386L991.076856817518,320.30050321649736L993.5669996738434,322.1779768207745L996.0571425301688,323.7772501965909L998.5472853864942,323.6352942652611L1001.0374282428196,322.0213312952651L1003.5275710991451,319.11113189377113L1006.0177139554705,320.9813742989329L1008.5078568117959,322.7093476582909L1010.9979996681213,323.20721692186044L1013.4881425244467,321.0298190448284L1015.9782853807721,322.0098253803121L1018.4684282370976,322.5726056557358L1020.958571093423,321.76324148818645L1023.4487139497484,322.49329385932054L1025.938856806074,321.0144933017302L1028.4289996623993,322.76307852835174L1030.9191425187248,323.40178158307805L1033.40928537505,322.33009416225553L1035.8994282313756,323.0920638931075L1038.389571087701,322.75386914893204L1040.8797139440264,319.79546126819633L1043.3698568003517,321.2703445807914L1045.8599996566772,321.87906664838556L1048.3501425130028,323.04844055688L1050.840285369328,322.3241803177242L1053.3304282256536,320.37139953974906L1055.8205710819789,318.3401987299466L1058.3107139383044,320.3359037044474L1060.8008567946297,320.42131278947807L1063.2909996509552,318.51179891108677L1065.7811425072805,319.0605789370325L1068.271285363606,320.37362001818093L1070.7614282199315,319.851942965731L1073.251571076257,318.4744881984652L1075.7417139325823,318.1305647802212L1078.2318567889079,316.79270364667786L1080.7219996452332,316.4981613177473L1083.2121425015587,312.74267374795966L1085.702285357884,316.18889249151556L1088.1924282142095,316.0285259211235L1090.6825710705348,318.5919216147027L1093.1727139268603,321.61462574798077L1095.6628567831856,322.1186708661525L1098.152999639511,323.3052276401621L1100.6431424958364,322.94729344004475L1103.133285352162,320.37987635030163L1105.6234282084872,320.89492310739513L1108.1135710648127,318.70143524861345L1110.6037139211383,320.2621619684227L1113.0938567774638,321.04785345229783L1115.583999633789,319.5463951757376L1118.0741424901146,320.7284647875076L1120.5642853464399,322.09667192580133L1123.0544282027654,321.553027341762L1125.5445710590907,320.4303837187556L1128.0347139154162,321.2868779254013L1130.5248567717415,317.5875203518226L1133.014999628067,318.20612500788235L1135.5051424843925,319.096391476406L1137.9952853407178,320.78917723977565L1140.4854281970433,318.127052185855L1142.9755710533686,319.77790941985467L1145.4657139096942,320.25592901468804L1147.9558567660195,314.43944875021566L1150.445999622345,316.39906611759375L1152.9361424786703,318.9350892751596L1155.4262853349958,320.7247359311358L1157.9164281913213,321.34847992341525L1160.4065710476468,318.74119506301935L1162.896713903972,320.5990267063279L1165.3868567602976,321.7084018025132L1167.876999616623,320.1200203144902L1170.3671424729484,316.0674658357179L1172.8572853292737,317.41733248009973L1175.3474281855993,318.1084626939366L1177.8375710419245,319.7446938199284L1180.32771389825,320.09974822359436L1182.8178567545754,318.1329777546725L1185.3079996109009,319.6819210597823L1187.7981424672262,321.3922976457302L1190.2882853235517,322.642340621711L1192.778428179877,318.8372768856618L1195.2685710362025,321.44566345563817L1197.758713892528,322.08421882683126L1200.2488567488535,323.464138453197L1202.7389996051788,323.37763212665357L1205.2291424615044,322.95852154103693L1207.7192853178296,322.34823564676856L1210.2094281741552,321.6875550912912L1212.6995710304805,322.1294823639464L1215.189713886806,321.89088016966554L1217.6798567431313,322.03782963925494L1220.1699995994568,320.1484993713866L1222.6601424557823,321.08141694473613L1225.1502853121076,321.39702421542756L1227.6404281684331,322.4255760061354L1230.1305710247584,322.8136306203005L1232.620713881084,323.06527042080506L1235.1108567374092,322.59464775961214L1237.6009995937347,316.36793728488726L1240.09114245006,318.48535036500544L1242.5812853063856,320.3400198684224L1245.071428162711,312.221920945877L1247.5615710190366,315.05497489030324L1250.0517138753619,317.4543076739836L1252.5418567316874,319.7879000565976L1255.0319995880127,318.7677749956926L1257.5221424443382,317.7216748237154L1260.0122853006635,319.4325734909394L1262.502428156989,318.9267784851756L1264.9925710133143,317.0993589812478L1267.4827138696398,319.7559649623324" fill="none"></path></g><g><path style="fill: none;" stroke="rgb(0, 119, 187)" stroke-width="2px" d="M103.50029768030984,58.77054863053104L107.3948811076028,58.65762415694229L111.28946453489576,58.483448715924226L115.18404796218873,49.796681124003044L119.07863138948169,52.84106369340077L122.97321481677464,56.17105530278877L126.86779824406759,55.28725681192327L130.76238167136057,55.07440809115917L134.65696509865353,55.143953667854646L138.5515485259465,56.693184516532085L142.44613195323944,56.59252315256879L146.3407153805324,57.59910501236084L150.23529880782536,57.50805183336212L154.12988223511832,57.52968267310217L158.02446566241127,56.98643193284761L161.91904908970423,58.08847945182333L165.81363251699722,57.24473540986247L169.70821594429017,58.4144386029385L173.60279937158313,57.33043506590781L177.49738279887606,56.79272173881981L181.39196622616905,56.89242277631962L185.28654965346203,54.36444161191372L189.18113308075496,56.13005887057756L193.07571650804792,55.30210844496207L196.97029993534088,55.54894936223366L200.86488336263383,56.283886057107L204.75946678992682,56.81634424929814L208.65405021721975,56.699779011524015L212.5486336445127,52.980480304346656L216.4432170718057,52.247562144842675L220.33780049909862,54.00669630456491L224.2323839263916,53.55154464290757L228.12696735368456,54.32643577664362L232.02155078097752,53.43137982125796L235.91613420827048,55.443469624130216L239.81071763556346,56.51353874281392L243.7053010628564,55.10820690364096L247.59988449014935,54.77672928648008L251.49446791744234,55.26397433169279L255.38905134473526,53.31072594942577L259.2836347720282,54.38131119837425L263.17821819932124,55.412997800043854L267.07280162661414,55.80755435022962L270.96738505390715,55.480679391136164L274.8619684812001,57.05677429025667L278.756551908493,57.1441870934496L282.651135335786,56.78742356573349L286.545718763079,57.57808428075606L290.44030219037194,56.46203118237389L294.3348856176649,55.74503615262603L298.2294690449578,56.25809146742017L302.1240524722508,55.131509226530966L306.01863589954377,56.096896948812116L309.9132193268367,54.17150998412404L313.8078027541297,54.594644956003606L317.70238618142264,55.63639337591468L321.5969696087156,55.97973193424184L325.49155303600855,54.686056809227296L329.3861364633015,56.038614511249875L333.28071989059447,52.9983465952015L337.1753033178874,54.463538810875434L341.06988674518044,54.40399617395582L344.96447017247334,54.51429415030623L348.8590535997663,52.445307989761034L352.75363702705926,53.93861917675889L356.6482204543522,54.816554072325346L360.5428038816452,55.31000946139841L364.4373873089382,55.323236110763276L368.33197073623114,53.331480807441665L372.22655416352404,54.068490868387016L376.121137590817,53.92023393303623L380.01572101811,55.150301945808565L383.91030444540297,55.24881795690817L387.80488787269593,53.3006331738996L391.69947129998894,51.52013873097144L395.5940547272818,52.02345711875023L399.4886381545748,54.627092544496065L403.38322158186776,52.96043702622012L407.2778050091607,52.96819206777644L411.17238843645373,53.51491547728443L415.0669718637467,54.751378564896754L418.9615552910396,55.87013982055976L422.85613871833255,54.35472166099987L426.7507221456255,54.67341298728974L430.6453055729185,55.3896932775466L434.5398890002115,56.49539291063218L438.4344724275044,55.55574571459198L442.32905585479733,54.29907464207463L446.2236392820903,54.31781153413783L450.1182227093833,55.06550503430475L454.01280613667626,53.63752086477433L457.9073895639692,52.792550062621615L461.8019729912621,52.81611458509343L465.6965564185551,50.92201483122972L469.5911398458481,52.36305782023271L473.48572327314105,50.430699443252195L477.380306700434,51.89727987808675L481.274890127727,53.44852704299336L485.16947355501986,53.37173087576417L489.0640569823129,53.77668624972813L492.95864040960583,53.99428558349615L496.8532238368988,52.994900993347926L500.7478072641918,51.80010138271041L504.64239069148476,53.337146737215846L508.53697411877766,53.56149179946442L512.4315575460706,54.59844887560729L516.3261409733636,54.557596655448435L520.2207244006565,54.78828389279283L524.1153078279496,52.04484487829251L528.0098912552426,53.9224849202227L531.9044746825355,55.62112054108405L535.7990581098284,56.16974797533334L539.6936415371214,55.0763665697134L543.5882249644144,55.21749413008445L547.4828083917073,54.77547109169893L551.3773918190002,53.175244374522265L555.2719752462932,54.47684328590498L559.1665586735861,54.719250072615296L563.0611421008791,56.43365843509167L566.9557255281721,55.2483178562469L570.850308955465,54.82805074608365L574.7448923827579,54.931192543847715L578.639475810051,54.99900856428803L582.534059237344,54.66414708061296L586.4286426646369,54.82287361409038L590.3232260919299,55.36780870851487L594.2178095192228,55.9877029621947L598.1123929465157,55.67456127707737L602.0069763738087,54.39370593055469L605.9015598011017,54.813165412363674L609.7961432283946,54.409487130102264L613.6907266556876,54.28374067388063L617.5853100829806,55.01002868792091L621.4798935102735,53.179944850278616L625.3744769375664,53.762507588025414L629.2690603648595,52.9559019991118L633.1636437921525,54.5847363647714L637.0582272194454,55.30995418021638L640.9528106467383,54.555705505877256L644.8473940740313,55.736985882791544L648.7419775013242,53.96254286601038L652.6365609286172,54.168287794338596L656.5311443559102,55.33921206307741L660.4257277832031,55.25636284544481L664.320311210496,55.98895899977708L668.214894637789,55.842353686992794L672.109478065082,54.632438375311835L676.004061492375,55.61033058185177L679.898644919668,55.82032526002405L683.793228346961,57.889506114127585L687.6878117742538,59.170193961660345L691.5823952015468,59.96507630769355L695.4769786288398,60.49337013671993L699.3715620561327,60.82003850687687L703.2661454834257,61.044428425335525L707.1607289107187,61.12169509365441L711.0553123380116,61.20608510283665L714.9498957653046,61.20227331369574L718.8444791925976,61.20504912716348L722.7390626198904,61.21448976899637L726.6336460471834,61.17002794117235L730.5282294744763,61.124870677250385L734.4228129017694,61.20405986180225L738.3173963290623,61.287935286307686L742.2119797563553,61.260760700051605L746.1065631836483,61.20061786939465L750.0011466109412,61.11162449000204L753.8957300382342,61.086682776253156L757.7903134655272,61.159059911408065L761.6848968928201,61.1465562127014L765.579480320113,61.131486120789134L769.4740637474059,61.1386969464906L773.3686471746989,61.16348811248167L777.263230601992,61.098963072044455L781.1578140292849,61.112738153888415L785.0523974565779,61.08009855002632L788.9469808838708,61.04670699828415L792.8415643111638,61.134805073969346L796.7361477384568,61.17142683905729L800.6307311657497,61.19472854446258L804.5253145930427,61.20910952222306L808.4198980203357,61.282962161792284L812.3144814476285,61.33054000546338L816.2090648749215,61.24227169799616L820.1036483022144,61.162810010040175L823.9982317295074,61.19545550921873L827.8928151568003,61.195465929298166L831.7873985840934,61.20847852589327L835.6819820113864,61.222774976718426L839.5765654386793,61.28327216256588L843.4711488659723,61.31431217561021L847.3657322932653,61.29859467740869L851.2603157205582,61.31945203881935L855.1548991478511,61.32948751604346L859.049482575144,61.40724490855763L862.944066002437,61.427864850177855L866.83864942973,61.40434335536361L870.7332328570229,61.36681020770118L874.6278162843159,61.371997724065864L878.5223997116088,61.323043774785845L882.4169831389019,61.28359292076567L886.3115665661949,61.38154552527925L890.2061499934878,61.41964132031103L894.1007334207808,61.36452837109351L897.9953168480738,61.363281221570105L901.8899002753666,61.38915245221858L905.7844837026596,61.34863884660706L909.6790671299525,61.39549403950372L913.5736505572455,61.35767839473283L917.4682339845385,61.39779215419037L921.3628174118314,61.430622730405105L925.2574008391244,61.36307354640337L929.1519842664173,61.354298449858675L933.0465676937104,61.3890335972676L936.9411511210034,61.39871709199184L940.8357345482963,61.447740368035795L944.7303179755892,61.431504947694634L948.6249014028821,61.26858129838297L952.5194848301751,61.28589139227063L956.4140682574681,61.22756462244433L960.308651684761,61.30084894170051L964.203235112054,61.365562556741054L968.0978185393469,61.35507041822842L971.9924019666399,61.319006104158575L975.886985393933,61.372388871509884L979.7815688212258,61.36666400544476L983.6761522485189,61.41974503492543L987.5707356758119,61.47546526571307L991.4653191031047,61.56344058182788L995.3599025303977,61.50786384903148L999.2544859576906,61.5322212473007L1003.1490693849836,61.432919771404386L1007.0436528122766,61.39755794233582L1010.9382362395695,61.37351385826901L1014.8328196668625,61.32712267181097L1018.7274030941554,61.360698876159745L1022.6219865214484,61.32163508235135L1026.5165699487413,61.38515055971101L1030.4111533760345,61.390429377088594L1034.3057368033271,61.45258725945405L1038.2003202306203,61.50905301964059L1042.0949036579132,61.58022421157409L1045.989487085206,61.522430398989L1049.8840705124992,61.5314428570033L1053.778653939792,61.52025516732692L1057.673237367085,61.54532986233386L1061.5678207943781,61.57612431113728L1065.462404221671,61.57518772768276L1069.356987648964,61.56999004466934L1073.251571076257,61.50688921406811L1077.14615450355,61.54222714750051L1081.0407379308426,61.56814743371086L1084.9353213581358,61.62620698768967L1088.8299047854287,61.60419799372107L1092.7244882127216,61.58521511971196L1096.6190716400147,61.57778666412253L1100.5136550673076,61.54239282080971L1104.4082384946005,61.47332754009875L1108.3028219218936,61.40592678177967L1112.1974053491865,61.408429628787644L1116.0919887764794,61.4874814738518L1119.9865722037725,61.54123195830573L1123.8811556310654,61.50668897866143L1127.7757390583583,61.52874110770824L1131.6703224856512,61.495730844555965L1135.5649059129441,61.54121771003088L1139.4594893402373,61.61987457858561L1143.3540727675302,61.65396127364056L1147.248656194823,61.59779586754547L1151.1432396221162,61.62025456970753L1155.037823049409,61.67978881111105L1158.932406476702,61.67286942668903L1162.8269899039951,61.680341776430225L1166.721573331288,61.56577229276769L1170.616156758581,61.57354549694958L1174.5107401858738,61.55783924995683L1178.4053236131667,61.57938085379442L1182.2999070404596,61.65218629096671L1186.1944904677528,61.70260865024892L1190.0890738950457,61.61234452541646L1193.9836573223386,61.57976128272617L1197.8782407496317,61.604650926965405L1201.7728241769246,61.605960633498285L1205.6674076042175,61.60924484195573L1209.5619910315106,61.62241249791788L1213.4565744588035,61.61650374074293L1217.3511578860964,61.61867640587292L1221.2457413133893,61.58788694741463L1225.1403247406822,61.637880602803136L1229.0349081679753,61.66734040881903L1232.9294915952682,61.64066403235415L1236.8240750225611,61.73048169859942L1240.7186584498543,61.581705402700436L1244.6132418771472,61.63889562049036L1248.50782530444,61.69105729343488L1252.4024087317332,61.70639446173698L1256.296992159026,61.688946020158426L1260.191575586319,61.66345501584789L1264.086159013612,61.53478487611983L1267.9807424409048,61.53220246993311" fill="none"></path></g></g></g></g><g opacity="0.2"><g><g><g><path style="fill: none;" stroke="rgb(255, 112, 67)" stroke-width="2px" d="M102.0958571093423,310.5468980906479L104.58599996566772,310.90511707652405L107.07614282199316,321.0091007368236L109.56628567831856,321.256159753458L112.056428534644,85.40322412320393L114.54657139096942,107.09789918528031L117.03671424729482,145.79475181514667L119.52685710362026,163.2209336333239L122.01699995994566,98.4114816202902L124.5071428162711,152.23441136334856L126.99728567259652,162.07190435902993L129.48742852892195,125.18253356423415L131.97757138524736,179.2976927701865L134.4677142415728,227.59913118986935L136.9578570978982,144.62158774009066L139.44799995422363,177.14248166768118L141.93814281054907,210.4967901774269L144.42828566687447,164.04631994487823L146.9184285231999,168.8533910255636L149.4085713795253,169.23846476707058L151.89871423585075,242.75577973152173L154.38885709217615,213.43003631440163L156.8789999485016,214.25549123544113L159.369142804827,152.81445986718623L161.85928566115243,148.21525871448793L164.34942851747786,273.14018599695646L166.8395713738033,169.22549995381698L169.3297142301287,163.3116663344746L171.81985708645414,178.40181262291586L174.30999994277954,204.32770505000892L176.80014279910495,278.4268003822101L179.29028565543038,242.59763401428512L181.78042851175582,290.4671896942357L184.27057136808122,177.29176867328314L186.76071422440666,158.52931740235164L189.25085708073206,144.9199005715402L191.74099993705752,226.6433020801579L194.23114279338293,190.4306099619234L196.72128564970834,133.8854904031439L199.21142850603374,168.6174666610759L201.7015713623592,198.37312145940297L204.1917142186846,196.0052804488718L206.68185707501002,144.6507590822487L209.17199993133545,215.17026690636L211.66214278766085,241.10015886031465L214.15228564398632,226.36786691645426L216.64242850031172,153.83926758113157L219.13257135663713,141.11003239678925L221.62271421296253,164.8125924093885L224.112857069288,141.27447486977374L226.6029999256134,235.40850506678217L229.09314278193884,272.6005184034543L231.58328563826424,194.05964641948447L234.07342849458965,172.50789342142414L236.5635713509151,229.4380041268256L239.05371420724052,177.2298906563934L241.54385706356592,223.59118807811143L244.03399991989133,258.49379402600323L246.5241427762168,175.21075674973562L249.0142856325422,199.71433805016176L251.50442848886763,199.97569083768943L253.99457134519304,217.27816788279918L256.4847142015185,156.17487427887298L258.9748570578439,197.55821287309425L261.4649999141693,201.8152747743589L263.9551427704947,142.41336120824909L266.4452856268201,167.91656901163432L268.9354284831456,195.35083078973625L271.425571339471,161.09824230117522L273.9157141957964,252.28449421070385L276.4058570521218,219.30175045299L278.89599990844727,259.0044600941065L281.38614276477267,157.4479844496378L283.87628562109813,230.77597787517112L286.36642847742354,207.1295376941879L288.85657133374895,283.3817595706987L291.3467141900744,212.72212425640296L293.8368570463998,177.00649628150924L296.3269999027252,221.6872183803794L298.8171427590506,199.5424203051835L301.3072856153761,253.0327412194502L303.7974284717015,225.92671259379844L306.2875713280269,185.46426043199705L308.7777141843523,166.0248790627034L311.26785704067777,149.74450271543915L313.7579998970032,253.89843452240103L316.2481427533286,254.4104035877994L318.738285609654,182.92333615741248L321.22842846597945,200.28205091135752L323.71857132230485,226.51951001593307L326.20871417863026,264.0801748697222L328.6988570349557,265.47788315774346L331.1889998912811,231.03860293357383L333.6791427476066,168.99985026779942L336.169285603932,224.03353329428012L338.6594284602574,171.94690119656045L341.1495713165828,169.46524997927955L343.63971417290827,189.82691229759374L346.1298570292337,242.87225956460205L348.6199998855591,164.75589833121435L351.1101427418845,143.7971475926779L353.6002855982099,274.88260036565646L356.0904284545353,150.23793067416966L358.58057131086076,178.21441461122214L361.0707141671862,231.45032146885669L363.56085702351163,218.1732064376214L366.05099987983704,221.42009171139728L368.54114273616244,176.8466207729507L371.0312855924879,196.3093877658197L373.5214284488133,259.024523708939L376.0115713051387,190.6082304086416L378.5017141614641,238.89107650419425L380.9918570177895,256.3555585036468L383.48199987411505,167.5912470215748L385.97214273044045,188.96077976630357L388.46228558676586,152.66394825694366L390.95242844309126,168.570565978608L393.44257129941667,260.4584969728737L395.9327141557421,202.756970119128L398.4228570120675,198.14416300818445L400.9129998683929,211.61900939859035L403.4031427247184,209.79612022026703L405.8932855810438,273.11173163592423L408.3834284373692,219.55968697075477L410.8735712936946,163.23876541361253L413.36371415002003,202.65670461226216L415.8538570063455,226.49613000606746L418.3439998626709,135.65498813571355L420.8341427189963,203.9086604566491L423.3242855753217,145.686141169335L425.8144284316472,166.31892245663283L428.30457128797264,216.9493548766027L430.79471414429804,163.2292165664253L433.28485700062345,256.23871812696837L435.77499985694885,212.43344965380217L438.26514271327426,253.89375106178562L440.75528556959966,146.84216695674257L443.24542842592507,251.13929141427028L445.73557128225053,272.75300785243616L448.225714138576,187.1679252818961L450.7158569949014,258.63395015695926L453.2059998512268,260.2687312372294L455.6961427075522,201.3834334163537L458.1862855638777,275.9220249393325L460.6764284202031,174.4381464783364L463.1665712765285,143.19919357737385L465.6567141328539,158.53417335725493L468.1468569891793,169.96089951771535L470.6369998455048,197.61262786903353L473.1271427018302,203.58985252637376L475.61728555815563,239.37098108671842L478.10742841448103,151.25711145948227L480.59757127080644,267.5485455375689L483.08771412713185,165.28981469164222L485.57785698345725,240.24651686379653L488.06799983978266,218.68661473464587L490.5581426961082,174.96145894277856L493.0482855524336,240.23318209645723L495.538428408759,152.27757000788884L498.0285712650844,262.66899280139313L500.5187141214098,163.71085401688333L503.00885697773526,216.08299314738684L505.49899983406067,235.91430896434005L507.9891426903861,161.90326339312423L510.4792855467115,232.21989402447588L512.969428403037,177.94808112791472L515.4595712593624,186.84563108342275L517.9497141156878,174.21032134100267L520.4398569720132,160.25321186099671L522.9299998283386,180.98089452716127L525.420142684664,156.37835003662377L527.9102855409894,189.7646190923105L530.4004283973148,283.205117141497L532.8905712536402,183.47116297653184L535.3807141099658,246.97413173867733L537.8708569662912,191.893658087269L540.3609998226166,245.62204239644333L542.851142678942,172.1459199567017L545.3412855352674,221.11624286703312L547.8314283915928,180.38188179492445L550.3215712479182,204.5958723822037L552.8117141042436,221.51561952835903L555.3018569605691,258.88686406299934L557.7919998168945,159.73795260889514L560.2821426732199,229.83427750967905L562.7722855295453,159.0475137199256L565.2624283858707,227.94309636979958L567.7525712421963,236.17168517187227L570.2427140985217,247.0674151736599L572.7328569548471,244.51979428357876L575.2229998111725,179.92846051963772L577.7131426674979,259.947834337298L580.2032855238234,302.0059861861377L582.6934283801488,241.20787961008028L585.1835712364742,198.16346462101274L587.6737140927996,268.7022005526378L590.163856949125,197.54957320522283L592.6539998054504,212.96482168480082L595.1441426617758,269.5858126978583L597.6342855181013,235.97096641359894L600.1244283744268,255.22865247360087L602.6145712307522,172.43125637746186L605.1047140870776,179.46188684480393L607.594856943403,266.1112331124673L610.0849997997284,267.8095012265534L612.5751426560538,239.84805677065566L615.0652855123792,179.3423757941767L617.5554283687046,158.04269899820835L620.04557122503,234.2209878636522L622.5357140813555,159.6687013192782L625.0258569376809,207.68744645953896L627.5159997940063,186.21783702742601L630.0061426503318,210.6910259403139L632.4962855066572,178.85708017921863L634.9864283629826,231.8389296168859L637.476571219308,244.82004303341503L639.9667140756334,161.3320119819019L642.4568569319589,233.07504042423625L644.9469997882843,193.3153516617519L647.4371426446097,250.26620891145245L649.9272855009351,181.6808075914001L652.4174283572605,260.6688778420327L654.907571213586,268.34014850589335L657.3977140699114,236.47054796624928L659.8878569262369,149.61807988927114L662.3779997825623,164.26060259174162L664.8681426388877,272.1557149933346L667.3582854952132,224.4137128417627L669.8484283515386,195.58473304978506L672.338571207864,230.01803679886174L674.8287140641894,226.53103585236346L677.3188569205148,218.18943883171525L679.8089997768402,228.74713602764027L682.2991426331656,288.30718162344573L684.789285489491,293.2136031788392L687.2794283458165,287.67152389921694L689.769571202142,319.05025044913043L692.2597140584674,298.5863272641815L694.7498569147928,319.96814652134503L697.2399997711182,322.072087743891L699.7301426274436,320.1247548644561L702.220285483769,319.30732926937424L704.7104283400944,309.55247615810197L707.2005711964198,319.75729264154637L709.6907140527452,325.852586174481L712.1808569090706,298.48530026263006L714.670999765396,312.61495089187633L717.1611426217215,322.5997924955865L719.651285478047,323.8929374483988L722.1414283343724,325.0155420452812L724.6315711906979,322.375438530116L727.1217140470233,312.70552868066943L729.6118569033487,320.59880494922305L732.1019997596741,319.8814241956166L734.5921426159995,323.2891291673984L737.0822854723249,311.3885593807636L739.5724283286503,321.99984188699096L742.0625711849758,330.9547927777716L744.5527140413012,331.1869004661448L747.0428568976266,320.3562687278517L749.532999753952,324.15709952074195L752.0231426102774,318.50119373856774L754.5132854666028,299.8725527010796L757.0034283229282,319.5983300777854L759.4935711792536,329.6164957399792L761.983714035579,322.86393939434856L764.4738568919046,326.6801963608632L766.9639997482301,311.5681096121142L769.4541426045555,322.8963579573784L771.9442854608809,324.9158511354436L774.4344283172063,327.7586808051794L776.9245711735317,321.3104126585321L779.4147140298571,318.1724095890059L781.9048568861825,322.05583934677395L784.3949997425079,329.64757424605125L786.8851425988333,327.1125931578498L789.3752854551587,330.5815833841268L791.8654283114842,316.99941100649744L794.3555711678096,323.66943445760927L796.845714024135,301.6938392006487L799.3358568804604,326.35039389617975L801.8259997367858,329.0900673229131L804.3161425931113,317.802431820346L806.8062854494368,332.0357368682354L809.2964283057622,325.3168996935159L811.7865711620876,325.1087843780427L814.276714018413,332.44285840618016L816.7668568747384,324.08523193651774L819.2569997310638,322.355205018232L821.7471425873892,327.43162531587757L824.2372854437147,324.21118100777693L826.7274283000401,329.41079471190847L829.2175711563656,317.6457716144526L831.707714012691,325.4104481232575L834.1978568690164,322.8685956247211L836.6879997253418,320.4278943807101L839.1781425816672,324.94781162519075L841.6682854379926,322.48764338633924L844.158428294318,326.49813362836073L846.6485711506434,319.51754186537954L849.1387140069688,320.72327292967157L851.6288568632943,320.8989943614414L854.1189997196199,319.4387969449548L856.6091425759453,324.3269017810988L859.0992854322707,324.07390626921324L861.5894282885961,323.62442718033395L864.0795711449215,329.5229645909378L866.5697140012469,328.92535247369005L869.0598568575723,328.55799980931215L871.5499997138977,324.5469170812509L874.0401425702231,325.084961429859L876.5302854265485,326.89807794794217L879.0204282828739,323.1784201923949L881.5105711391993,323.96867278898276L884.0007139955247,330.3621388840557L886.4908568518501,316.80914741399977L888.9809997081755,321.2187804380972L891.4711425645011,324.69088779532933L893.9612854208266,320.5193192535073L896.451428277152,327.2029534243985L898.9415711334774,326.6740528598496L901.4317139898028,325.5121713233826L903.9218568461282,323.1688485237871L906.4119997024536,328.49817103691373L908.902142558779,321.9532065487112L911.3922854151044,324.3342420005833L913.8824282714298,330.23395385386334L916.3725711277554,328.86302831353964L918.8627139840808,323.9365252041556L921.3528568404062,323.66886443000936L923.8429996967316,324.9586015797148L926.333142553057,326.9357776859815L928.8232854093824,328.8567579720867L931.3134282657078,317.161321461259L933.8035711220332,319.8326926549622L936.2937139783586,322.85853884318004L938.7838568346841,319.0926154709848L941.2739996910096,330.7838561139612L943.764142547335,324.3346283650809L946.2542854036604,324.49005475474314L948.7444282599859,322.27217049123215L951.2345711163113,321.5416733036838L953.7247139726367,324.95369669564434L956.2148568289621,315.97970619546953L958.7049996852875,322.531209470404L961.1951425416129,317.61699687895134L963.6852853979383,328.8092217142479L966.1754282542637,322.2373177702011L968.6655711105891,314.20472048257034L971.1557139669145,318.03791303438476L973.6458568232399,324.6793901003592L976.1359996795653,319.73695715624797L978.6261425358908,321.81634607318813L981.1162853922164,314.9086314371769L983.6064282485418,323.431865112535L986.0965711048672,326.1360609911436L988.5867139611926,317.43452897064503L991.076856817518,319.95064850383915L993.5669996738434,325.81468634269396L996.0571425301688,326.8427255425754L998.5472853864942,323.3797652351178L1001.0374282428196,319.2569053156785L1003.5275710991451,314.3290658400538L1006.0177139554705,324.60308209026607L1008.5078568117959,326.03758452015717L1010.9979996681213,324.1238399764697L1013.4881425244467,317.3678799225224L1015.9782853807721,323.84577069049425L1018.4684282370976,323.61114353241743L1020.958571093423,320.3393004343625L1023.4487139497484,323.84863348954616L1025.938856806074,318.47029739145245L1028.4289996623993,326.1336365411437L1030.9191425187248,324.58363894475497L1033.40928537505,320.4612114056325L1035.8994282313756,324.50828850820653L1038.389571087701,322.1492202938299L1040.8797139440264,314.94149225217166L1043.3698568003517,324.08427201035727L1045.8599996566772,323.0042353947991L1048.3501425130028,325.254391340833L1050.840285369328,321.0462853600308L1053.3304282256536,317.06335538424116L1055.8205710819789,314.9080203278153L1058.3107139383044,324.21907799120504L1060.8008567946297,320.57627975793815L1063.2909996509552,315.2725123929743L1065.7811425072805,320.07277377620716L1068.271285363606,322.86375315635917L1070.7614282199315,318.9251112062963L1073.251571076257,316.09670829042255L1075.7417139325823,317.51579521551287L1078.2318567889079,314.4802412203282L1080.7219996452332,315.9707634998752L1083.2121425015587,306.73020282031945L1085.702285357884,323.29063495685494L1088.1924282142095,315.74004125192903L1090.6825710705348,323.69053116725564L1093.1727139268603,327.7374388628576L1095.6628567831856,323.0468689301831L1098.152999639511,325.54500817302585L1100.6431424958364,322.307788181752L1103.133285352162,316.1153455582096L1105.6234282084872,321.8437535183524L1108.1135710648127,315.0143403472639L1110.6037139211383,323.24943433369003L1113.0938567774638,322.5094205222866L1115.583999633789,316.96514522775254L1118.0741424901146,322.9594068179222L1120.5642853464399,324.6967353432436L1123.0544282027654,320.58789273238153L1125.5445710590907,318.47597385698435L1128.0347139154162,322.8842445132304L1130.5248567717415,311.65480504441376L1133.014999628067,319.3499664280481L1135.5051424843925,320.7587799252256L1137.9952853407178,324.0453183668188L1140.4854281970433,313.71841964762586L1142.9755710533686,322.9483941159765L1145.4657139096942,321.1353837117604L1147.9558567660195,305.6737207665261L1150.445999622345,320.2067747959309L1152.9361424786703,323.97384176556363L1155.4262853349958,324.17980102889817L1157.9164281913213,322.50203711954754L1160.4065710476468,314.4158995177805L1162.896713903972,324.1950066690902L1165.3868567602976,323.7965624533044L1167.876999616623,317.39712686409973L1170.3671424729484,309.63733620631825L1172.8572853292737,319.9807983503564L1175.3474281855993,319.3897450451258L1177.8375710419245,322.8853625242889L1180.32771389825,320.7501210976184L1182.8178567545754,314.80274283917566L1185.3079996109009,322.6453326788087L1187.7981424672262,324.6844564756265L1190.2882853235517,325.00748694104374L1192.778428179877,312.7545865584199L1195.2685710362025,326.64294021985063L1197.758713892528,323.2657966457696L1200.2488567488535,326.0875997711385L1202.7389996051788,323.2216148991463L1205.2291424615044,322.21128967779464L1207.7192853178296,321.267255046996L1210.2094281741552,320.5193192535073L1212.6995710304805,322.94148938529736L1215.189713886806,321.46281967496657L1217.6798567431313,322.3050331098174L1220.1699995994568,316.94135334086997L1222.6601424557823,322.82615077442296L1225.1502853121076,321.97433147852087L1227.6404281684331,324.35588413727703L1230.1305710247584,323.5252853851249L1232.620713881084,323.52452807254184L1235.1108567374092,321.75705754338105L1237.6009995937347,307.0918992922622L1240.09114245006,322.6245925347979L1242.5812853063856,323.929448536955L1245.071428162711,300.7357118505601L1247.5615710190366,320.75029778973067L1250.0517138753619,322.19608388047436L1252.5418567316874,324.38798233852486L1255.0319995880127,316.98573336451665L1257.5221424443382,315.8958486138787L1260.0122853006635,322.72580203164546L1262.502428156989,318.02767468088734L1264.9925710133143,313.9910617869719L1267.4827138696398,325.0593822605122" fill="none"></path></g><g><path style="fill: none;" stroke="rgb(0, 119, 187)" stroke-width="2px" d="M103.50029768030984,58.77054863053104L107.3948811076028,58.58506848182719L111.28946453489576,58.299862263246894L115.18404796218873,40.58219386384769L119.07863138948169,57.881708378510496L122.97321481677464,62.184425907749585L126.86779824406759,53.84494695565576L130.76238167136057,54.709688571039976L134.65696509865353,55.266330657255025L138.5515485259465,59.59861097421526L142.44613195323944,56.41328787902944L146.3407153805324,59.47139747256716L150.23529880782536,57.34469407478463L154.12988223511832,57.56871383709887L158.02446566241127,56.02399488465164L161.91904908970423,60.159397536563006L165.81363251699722,55.76330722649931L169.70821594429017,60.61975860999246L173.60279937158313,55.441523863470366L177.49738279887606,55.83814387112767L181.39196622616905,57.073384639835524L185.28654965346203,50.16055448218049L189.18113308075496,59.5354159226506L193.07571650804792,53.84644072905144L196.97029993534088,55.999360659586785L200.86488336263383,57.64851067385683L204.75946678992682,57.797850428085724L208.65405021721975,56.489770817957606L212.5486336445127,47.01942423107124L216.4432170718057,50.95477460999314L220.33780049909862,57.398932962577874L224.2323839263916,52.741059852185515L228.12696735368456,55.767347949307236L232.02155078097752,51.8612297349938L235.91613420827048,59.360975472970836L239.81071763556346,58.52481500459578L243.7053010628564,52.68454075721286L247.59988449014935,54.18395255471023L251.49446791744234,56.16069700496672L255.38905134473526,50.001939858424464L259.2836347720282,56.39359596586797L263.17821819932124,57.349410910049755L267.07280162661414,56.53130027824716L270.96738505390715,54.89604067660605L274.8619684812001,60.07519817630123L278.756551908493,57.30280077648314L282.651135335786,56.14998418874944L286.545718763079,59.049159565648665L290.44030219037194,54.51866679476376L294.3348856176649,54.479647961692706L298.2294690449578,57.20318594564304L302.1240524722508,53.17050070313081L306.01863589954377,57.90449221093877L309.9132193268367,50.90697646168314L313.8078027541297,55.371602512142886L317.70238618142264,57.592411280110014L321.5969696087156,56.608382863987856L325.49155303600855,52.44668976281116L329.3861364633015,58.60744712136267L333.28071989059447,48.022774074708025L337.1753033178874,57.25796696254895L341.06988674518044,54.296507938095374L344.96447017247334,54.71459467339412L348.8590535997663,48.953540487052805L352.75363702705926,56.78966412002035L356.6482204543522,56.455181959727554L360.5428038816452,56.21836300642775L364.4373873089382,55.34717404137996L368.33197073623114,49.961664057191626L372.22655416352404,55.4370908786716L376.121137590817,53.65342115826661L380.01572101811,57.47594025911906L383.91030444540297,55.42764849102042L387.80488787269593,49.99988365157691L391.69947129998894,48.487027950415325L395.5940547272818,52.950292852917414L399.4886381545748,59.81393313813851L403.38322158186776,50.11068081055487L407.2778050091607,52.982224655739685L411.17238843645373,54.52324279013243L415.0669718637467,57.08965917937479L418.9615552910396,57.97669308295059L422.85613871833255,51.7506693616121L426.7507221456255,55.2564252960392L430.6453055729185,56.718804921272636L434.5398890002115,58.5763547864845L438.4344724275044,53.90984483487483L442.32905585479733,52.12108665935301L446.2236392820903,54.351728581943746L450.1182227093833,56.45447917904448L454.01280613667626,51.17662992187769L457.9073895639692,51.30775342258323L461.8019729912621,52.85877769413514L465.6965564185551,47.70727006787604L469.5911398458481,55.10895732975911L473.48572327314105,47.15508567486222L477.380306700434,54.694500370653145L481.274890127727,56.416602182564134L485.16947355501986,53.23317939411112L489.0640569823129,54.51978174805623L492.95864040960583,54.390940308950235L496.8532238368988,51.247874905418314L500.7478072641918,49.725077105131845L504.64239069148476,56.27648714713922L508.53697411877766,53.97054045543882L512.4315575460706,56.54512936821982L516.3261409733636,54.48380083849395L520.2207244006565,55.20899041834792L524.1153078279496,47.51317064596566L528.0098912552426,57.55953982881567L531.9044746825355,58.88923408171547L535.7990581098284,57.18165584184686L539.6936415371214,53.17103615889374L543.5882249644144,55.474058869369L547.4828083917073,53.988008632974015L551.3773918190002,50.43311110811709L555.2719752462932,56.94423191232812L559.1665586735861,55.16151264171384L563.0611421008791,59.73407921511307L566.9557255281721,53.18907216203394L570.850308955465,54.07878669505561L574.7448923827579,55.11845041763729L578.639475810051,55.121978620888L582.534059237344,54.06538885413454L586.4286426646369,55.11161137120007L590.3232260919299,56.37277350699793L594.2178095192228,57.13398199409397L598.1123929465157,55.114220020570315L602.0069763738087,52.1755861888451L605.9015598011017,55.58327331256436L609.7961432283946,53.68938759457836L613.6907266556876,54.05726204620237L617.5853100829806,56.35819676341583L621.4798935102735,50.06738553622091L625.3744769375664,54.83831353388308L629.2690603648595,51.536681758192174L633.1636437921525,57.71033898555413L637.0582272194454,56.65608375456782L640.9528106467383,53.22625172617035L644.8473940740313,57.96637363602804L648.7419775013242,50.93914473245883L652.6365609286172,54.5431767127875L656.5311443559102,57.54821344468144L660.4257277832031,55.10692230373991L664.320311210496,57.34914594972747L668.214894637789,55.57849813578542L672.109478065082,52.532220204172916L676.004061492375,57.44217406095538L679.898644919668,56.203015025645186L683.793228346961,61.926981822153266L687.6878117742538,61.59606595870292L691.5823952015468,61.44423203198289L695.4769786288398,61.46706553026695L699.3715620561327,61.41781295614152L703.2661454834257,61.45355951541546L707.1607289107187,61.26184835097115L711.0553123380116,61.3591975765093L714.9498957653046,61.19537874881513L718.8444791925976,61.210071029926155L722.7390626198904,61.231573423083546L726.6336460471834,61.08972181415368L730.5282294744763,61.04331044592328L734.4228129017694,61.3477100396845L738.3173963290623,61.44011137900668L742.2119797563553,61.21164883645315L746.1065631836483,61.092048417635965L750.0011466109412,60.95113567968173L753.8957300382342,61.041602804807155L757.7903134655272,61.2903215802134L761.6848968928201,61.12394704588536L765.579480320113,61.10423884972016L769.4740637474059,61.1517445387297L773.3686471746989,61.208373962671374L777.263230601992,60.98250068244562L781.1578140292849,61.137669130044856L785.0523974565779,61.02112117034682L788.9469808838708,60.98637248779096L792.8415643111638,61.2946660532466L796.7361477384568,61.23776014547178L800.6307311657497,61.2369154402889L804.5253145930427,61.23513763715113L808.4198980203357,61.41690670570853L812.3144814476285,61.416751223620395L816.2090648749215,61.08308644671132L820.1036483022144,61.019462856985456L823.9982317295074,61.2545783403412L827.8928151568003,61.19548477911155L831.7873985840934,61.232028881947144L835.6819820113864,61.248650029929024L839.5765654386793,61.392942912914236L843.4711488659723,61.370524221600704L847.3657322932653,61.27017751519128L851.2603157205582,61.35721030812687L855.1548991478511,61.34764795381659L859.049482575144,61.548290713512756L862.944066002437,61.46519300616956L866.83864942973,61.36182819679573L870.7332328570229,61.299002137519324L874.6278162843159,61.38138358525242L878.5223997116088,61.23463792058459L882.4169831389019,61.21232505822212L886.3115665661949,61.55934982239802L890.2061499934878,61.488648111228144L894.1007334207808,61.26502137301918L897.9953168480738,61.361025240465665L901.8899002753666,61.43599559314504L905.7844837026596,61.27545384103581L909.6790671299525,61.48039366258979L913.5736505572455,61.28936063383725L917.4682339845385,61.47045942467042L921.3628174118314,61.49008113170112L925.2574008391244,61.24116568160031L929.1519842664173,61.33842926743091L933.0465676937104,61.45194550131441L936.9411511210034,61.416240358139305L940.8357345482963,61.53657521308003L944.7303179755892,61.40215191588868L948.6249014028821,60.975522706719005L952.5194848301751,61.31722412186343L956.4140682574681,61.1222668427684L960.308651684761,61.43376008922013L964.203235112054,61.48289429219659L968.0978185393469,61.3360972174321L971.9924019666399,61.25384831458649L975.886985393933,61.46913830718131L979.7815688212258,61.35630985950655L983.6761522485189,61.51594659214658L987.5707356758119,61.57645932705765L991.4653191031047,61.72307811637751L995.3599025303977,61.407521108293L999.2544859576906,61.57632106625465L1003.1490693849836,61.25390583128569L1007.0436528122766,61.33366777320822L1010.9382362395695,61.330054911646926L1014.8328196668625,61.24333741448572L1018.7274030941554,61.421509248083055L1022.6219865214484,61.25106548960173L1026.5165699487413,61.50030512440645L1030.4111533760345,61.39998046123901L1034.3057368033271,61.56527511993562L1038.2003202306203,61.611401042355965L1042.0949036579132,61.70929334830936L1045.989487085206,61.41809283173069L1049.8840705124992,61.54775143136379L1053.778653939792,61.500024675444024L1057.673237367085,61.590729508841264L1061.5678207943781,61.63189117208293L1065.462404221671,61.573493514215556L1069.356987648964,61.56058920286779L1073.251571076257,61.392991749695284L1077.14615450355,61.606232161629634L1081.0407379308426,61.61507947652939L1084.9353213581358,61.73144974827892L1088.8299047854287,61.564414582298014L1092.7244882127216,61.55089808883105L1096.6190716400147,61.56435216059583L1100.5136550673076,61.478444881252585L1104.4082384946005,61.34869012216984L1108.3028219218936,61.28428615539883L1112.1974053491865,61.412957647143685L1116.0919887764794,61.630881825306744L1119.9865722037725,61.63864908942685L1123.8811556310654,61.4442764857759L1127.7757390583583,61.56866394478976L1131.6703224856512,61.4360844825527L1135.5649059129441,61.62363403123874L1139.4594893402373,61.76255646422379L1143.3540727675302,61.71569730644768L1147.248656194823,61.49639237055044L1151.1432396221162,61.660914039050226L1155.037823049409,61.78771027001426L1158.932406476702,61.66035536540505L1162.8269899039951,61.6938627056947L1166.721573331288,61.35934396400546L1170.616156758581,61.587610958744335L1174.5107401858738,61.529442418708015L1178.4053236131667,61.61837874710869L1182.2999070404596,61.78422670268918L1186.1944904677528,61.79398324627573L1190.0890738950457,61.44957128438341L1193.9836573223386,61.52088562770524L1197.8782407496317,61.64971523308287L1201.7728241769246,61.60832998639745L1205.6674076042175,61.615186620437214L1209.5619910315106,61.64624361157399L1213.4565744588035,61.605817073116384L1217.3511578860964,61.622607031267535L1221.2457413133893,61.532249051121255L1225.1403247406822,61.72847694766557L1229.0349081679753,61.72068782084165L1232.9294915952682,61.59245173040023L1236.8240750225611,61.8934728476371L1240.7186584498543,61.31396278507475L1244.6132418771472,61.74255940373041L1248.50782530444,61.78558960682591L1252.4024087317332,61.73415411342364L1256.296992159026,61.657401228338585L1260.191575586319,61.61738313352839L1264.086159013612,61.30306404245118L1267.9807424409048,61.5275313479068" fill="none"></path></g></g></g></g></g></g><g transform="translate(51, 377)" clip-path="url(#clip_1)"><clipPath id="clip_1"><rect width="1394" height="22"></rect></clipPath><g><g><line x1="0" y1="0" x2="0" y2="5" style="visibility: inherit;" fill="rgb(0, 0, 0)" stroke="rgb(204, 204, 204)" stroke-width="1px"></line><line x1="99.60571425301687" y1="0" x2="99.60571425301687" y2="5" style="visibility: inherit;" fill="rgb(0, 0, 0)" stroke="rgb(204, 204, 204)" stroke-width="1px"></line><line x1="199.21142850603374" y1="0" x2="199.21142850603374" y2="5" style="visibility: inherit;" fill="rgb(0, 0, 0)" stroke="rgb(204, 204, 204)" stroke-width="1px"></line><line x1="298.8171427590506" y1="0" x2="298.8171427590506" y2="5" style="visibility: inherit;" fill="rgb(0, 0, 0)" stroke="rgb(204, 204, 204)" stroke-width="1px"></line><line x1="398.4228570120675" y1="0" x2="398.4228570120675" y2="5" style="visibility: inherit;" fill="rgb(0, 0, 0)" stroke="rgb(204, 204, 204)" stroke-width="1px"></line><line x1="498.0285712650844" y1="0" x2="498.0285712650844" y2="5" style="visibility: inherit;" fill="rgb(0, 0, 0)" stroke="rgb(204, 204, 204)" stroke-width="1px"></line><line x1="597.6342855181013" y1="0" x2="597.6342855181013" y2="5" style="visibility: inherit;" fill="rgb(0, 0, 0)" stroke="rgb(204, 204, 204)" stroke-width="1px"></line><line x1="697.2399997711182" y1="0" x2="697.2399997711182" y2="5" style="visibility: inherit;" fill="rgb(0, 0, 0)" stroke="rgb(204, 204, 204)" stroke-width="1px"></line><line x1="796.845714024135" y1="0" x2="796.845714024135" y2="5" style="visibility: inherit;" fill="rgb(0, 0, 0)" stroke="rgb(204, 204, 204)" stroke-width="1px"></line><line x1="896.451428277152" y1="0" x2="896.451428277152" y2="5" style="visibility: inherit;" fill="rgb(0, 0, 0)" stroke="rgb(204, 204, 204)" stroke-width="1px"></line><line x1="996.0571425301688" y1="0" x2="996.0571425301688" y2="5" style="visibility: inherit;" fill="rgb(0, 0, 0)" stroke="rgb(204, 204, 204)" stroke-width="1px"></line><line x1="1095.6628567831856" y1="0" x2="1095.6628567831856" y2="5" style="visibility: inherit;" fill="rgb(0, 0, 0)" stroke="rgb(204, 204, 204)" stroke-width="1px"></line><line x1="1195.2685710362025" y1="0" x2="1195.2685710362025" y2="5" style="visibility: inherit;" fill="rgb(0, 0, 0)" stroke="rgb(204, 204, 204)" stroke-width="1px"></line><line x1="1294.8742852892194" y1="0" x2="1294.8742852892194" y2="5" style="visibility: inherit;" fill="rgb(0, 0, 0)" stroke="rgb(204, 204, 204)" stroke-width="1px"></line><line x1="1394.4799995422363" y1="0" x2="1394.4799995422363" y2="5" style="visibility: inherit;" fill="rgb(0, 0, 0)" stroke="rgb(204, 204, 204)" stroke-width="1px"></line></g><g transform="translate(0, 8)"><text style="text-anchor: middle; visibility: hidden; font-family: &quot;Helvetica Neue&quot;, sans-serif; font-size: 12px; font-weight: 200;" x="0" y="0" dx="0em" dy="0.95em" fill="rgb(50, 49, 63)" stroke="none" stroke-width="1px">-10k</text><text style="text-anchor: middle; visibility: inherit; font-family: &quot;Helvetica Neue&quot;, sans-serif; font-size: 12px; font-weight: 200;" x="99.60571425301687" y="0" dx="0em" dy="0.95em" fill="rgb(50, 49, 63)" stroke="none" stroke-width="1px">0</text><text style="text-anchor: middle; visibility: inherit; font-family: &quot;Helvetica Neue&quot;, sans-serif; font-size: 12px; font-weight: 200;" x="199.21142850603374" y="0" dx="0em" dy="0.95em" fill="rgb(50, 49, 63)" stroke="none" stroke-width="1px">10k</text><text style="text-anchor: middle; visibility: inherit; font-family: &quot;Helvetica Neue&quot;, sans-serif; font-size: 12px; font-weight: 200;" x="298.8171427590506" y="0" dx="0em" dy="0.95em" fill="rgb(50, 49, 63)" stroke="none" stroke-width="1px">20k</text><text style="text-anchor: middle; visibility: inherit; font-family: &quot;Helvetica Neue&quot;, sans-serif; font-size: 12px; font-weight: 200;" x="398.4228570120675" y="0" dx="0em" dy="0.95em" fill="rgb(50, 49, 63)" stroke="none" stroke-width="1px">30k</text><text style="text-anchor: middle; visibility: inherit; font-family: &quot;Helvetica Neue&quot;, sans-serif; font-size: 12px; font-weight: 200;" x="498.0285712650844" y="0" dx="0em" dy="0.95em" fill="rgb(50, 49, 63)" stroke="none" stroke-width="1px">40k</text><text style="text-anchor: middle; visibility: inherit; font-family: &quot;Helvetica Neue&quot;, sans-serif; font-size: 12px; font-weight: 200;" x="597.6342855181013" y="0" dx="0em" dy="0.95em" fill="rgb(50, 49, 63)" stroke="none" stroke-width="1px">50k</text><text style="text-anchor: middle; visibility: inherit; font-family: &quot;Helvetica Neue&quot;, sans-serif; font-size: 12px; font-weight: 200;" x="697.2399997711182" y="0" dx="0em" dy="0.95em" fill="rgb(50, 49, 63)" stroke="none" stroke-width="1px">60k</text><text style="text-anchor: middle; visibility: inherit; font-family: &quot;Helvetica Neue&quot;, sans-serif; font-size: 12px; font-weight: 200;" x="796.845714024135" y="0" dx="0em" dy="0.95em" fill="rgb(50, 49, 63)" stroke="none" stroke-width="1px">70k</text><text style="text-anchor: middle; visibility: inherit; font-family: &quot;Helvetica Neue&quot;, sans-serif; font-size: 12px; font-weight: 200;" x="896.451428277152" y="0" dx="0em" dy="0.95em" fill="rgb(50, 49, 63)" stroke="none" stroke-width="1px">80k</text><text style="text-anchor: middle; visibility: inherit; font-family: &quot;Helvetica Neue&quot;, sans-serif; font-size: 12px; font-weight: 200;" x="996.0571425301688" y="0" dx="0em" dy="0.95em" fill="rgb(50, 49, 63)" stroke="none" stroke-width="1px">90k</text><text style="text-anchor: middle; visibility: inherit; font-family: &quot;Helvetica Neue&quot;, sans-serif; font-size: 12px; font-weight: 200;" x="1095.6628567831856" y="0" dx="0em" dy="0.95em" fill="rgb(50, 49, 63)" stroke="none" stroke-width="1px">100k</text><text style="text-anchor: middle; visibility: inherit; font-family: &quot;Helvetica Neue&quot;, sans-serif; font-size: 12px; font-weight: 200;" x="1195.2685710362025" y="0" dx="0em" dy="0.95em" fill="rgb(50, 49, 63)" stroke="none" stroke-width="1px">110k</text><text style="text-anchor: middle; visibility: inherit; font-family: &quot;Helvetica Neue&quot;, sans-serif; font-size: 12px; font-weight: 200;" x="1294.8742852892194" y="0" dx="0em" dy="0.95em" fill="rgb(50, 49, 63)" stroke="none" stroke-width="1px">120k</text><text style="text-anchor: middle; visibility: hidden; font-family: &quot;Helvetica Neue&quot;, sans-serif; font-size: 12px; font-weight: 200;" x="1394.4799995422363" y="0" dx="0em" dy="0.95em" fill="rgb(50, 49, 63)" stroke="none" stroke-width="1px">130k</text></g><line x1="0" y1="0" x2="1394.4799995422363" y2="0" fill="rgb(0, 0, 0)" stroke="rgb(204, 204, 204)" stroke-width="1px"></line></g></g></g></g></svg>