<svg viewBox="0 0 1446 400" xmlns="http://www.w3.org/2000/svg"><g><g><g><g><g><line x1="51.52000045776367" y1="377.95999908447266" x2="46.52000045776367" y2="377.95999908447266" style="visibility: inherit;" fill="rgb(0, 0, 0)" stroke="rgb(204, 204, 204)" stroke-width="1px"></line><line x1="51.52000045776367" y1="348.8861530010517" x2="46.52000045776367" y2="348.8861530010517" style="visibility: inherit;" fill="rgb(0, 0, 0)" stroke="rgb(204, 204, 204)" stroke-width="1px"></line><line x1="51.52000045776367" y1="319.81230691763074" x2="46.52000045776367" y2="319.81230691763074" style="visibility: inherit;" fill="rgb(0, 0, 0)" stroke="rgb(204, 204, 204)" stroke-width="1px"></line><line x1="51.52000045776367" y1="290.7384608342097" x2="46.52000045776367" y2="290.7384608342097" style="visibility: inherit;" fill="rgb(0, 0, 0)" stroke="rgb(204, 204, 204)" stroke-width="1px"></line><line x1="51.52000045776367" y1="261.66461475078876" x2="46.52000045776367" y2="261.66461475078876" style="visibility: inherit;" fill="rgb(0, 0, 0)" stroke="rgb(204, 204, 204)" stroke-width="1px"></line><line x1="51.52000045776367" y1="232.5907686673678" x2="46.52000045776367" y2="232.5907686673678" style="visibility: inherit;" fill="rgb(0, 0, 0)" stroke="rgb(204, 204, 204)" stroke-width="1px"></line><line x1="51.52000045776367" y1="203.51692258394684" x2="46.52000045776367" y2="203.51692258394684" style="visibility: inherit;" fill="rgb(0, 0, 0)" stroke="rgb(204, 204, 204)" stroke-width="1px"></line><line x1="51.52000045776367" y1="174.44307650052585" x2="46.52000045776367" y2="174.44307650052585" style="visibility: inherit;" fill="rgb(0, 0, 0)" stroke="rgb(204, 204, 204)" stroke-width="1px"></line><line x1="51.52000045776367" y1="145.3692304171049" x2="46.52000045776367" y2="145.3692304171049" style="visibility: inherit;" fill="rgb(0, 0, 0)" stroke="rgb(204, 204, 204)" stroke-width="1px"></line><line x1="51.52000045776367" y1="116.2953843336839" x2="46.52000045776367" y2="116.2953843336839" style="visibility: inherit;" fill="rgb(0, 0, 0)" stroke="rgb(204, 204, 204)" stroke-width="1px"></line><line x1="51.52000045776367" y1="87.22153825026294" x2="46.52000045776367" y2="87.22153825026294" style="visibility: inherit;" fill="rgb(0, 0, 0)" stroke="rgb(204, 204, 204)" stroke-width="1px"></line><line x1="51.52000045776367" y1="58.14769216684198" x2="46.52000045776367" y2="58.14769216684198" style="visibility: inherit;" fill="rgb(0, 0, 0)" stroke="rgb(204, 204, 204)" stroke-width="1px"></line><line x1="51.52000045776367" y1="29.07384608342096" x2="46.52000045776367" y2="29.07384608342096" style="visibility: inherit;" fill="rgb(0, 0, 0)" stroke="rgb(204, 204, 204)" stroke-width="1px"></line><line x1="51.52000045776367" y1="0" x2="46.52000045776367" y2="0" style="visibility: inherit;" fill="rgb(0, 0, 0)" stroke="rgb(204, 204, 204)" stroke-width="1px"></line></g><g transform="translate(41.52000045776367, 0)"><text style="text-anchor: end; visibility: hidden; font-family: &quot;Helvetica Neue&quot;, sans-serif; font-size: 12px; font-weight: 200;" x="0" y="377.95999908447266" dx="0em" dy="0.3em" fill="rgb(50, 49, 63)" stroke="none" stroke-width="1px">-0.1</text><text style="text-anchor: end; visibility: inherit; font-family: &quot;Helvetica Neue&quot;, sans-serif; font-size: 12px; font-weight: 200;" x="0" y="348.8861530010517" dx="0em" dy="0.3em" fill="rgb(50, 49, 63)" stroke="none" stroke-width="1px">0</text><text style="text-anchor: end; visibility: inherit; font-family: &quot;Helvetica Neue&quot;, sans-serif; font-size: 12px; font-weight: 200;" x="0" y="319.81230691763074" dx="0em" dy="0.3em" fill="rgb(50, 49, 63)" stroke="none" stroke-width="1px">0.1</text><text style="text-anchor: end; visibility: inherit; font-family: &quot;Helvetica Neue&quot;, sans-serif; font-size: 12px; font-weight: 200;" x="0" y="290.7384608342097" dx="0em" dy="0.3em" fill="rgb(50, 49, 63)" stroke="none" stroke-width="1px">0.2</text><text style="text-anchor: end; visibility: inherit; font-family: &quot;Helvetica Neue&quot;, sans-serif; font-size: 12px; font-weight: 200;" x="0" y="261.66461475078876" dx="0em" dy="0.3em" fill="rgb(50, 49, 63)" stroke="none" stroke-width="1px">0.3</text><text style="text-anchor: end; visibility: inherit; font-family: &quot;Helvetica Neue&quot;, sans-serif; font-size: 12px; font-weight: 200;" x="0" y="232.5907686673678" dx="0em" dy="0.3em" fill="rgb(50, 49, 63)" stroke="none" stroke-width="1px">0.4</text><text style="text-anchor: end; visibility: inherit; font-family: &quot;Helvetica Neue&quot;, sans-serif; font-size: 12px; font-weight: 200;" x="0" y="203.51692258394684" dx="0em" dy="0.3em" fill="rgb(50, 49, 63)" stroke="none" stroke-width="1px">0.5</text><text style="text-anchor: end; visibility: inherit; font-family: &quot;Helvetica Neue&quot;, sans-serif; font-size: 12px; font-weight: 200;" x="0" y="174.44307650052585" dx="0em" dy="0.3em" fill="rgb(50, 49, 63)" stroke="none" stroke-width="1px">0.6</text><text style="text-anchor: end; visibility: inherit; font-family: &quot;Helvetica Neue&quot;, sans-serif; font-size: 12px; font-weight: 200;" x="0" y="145.3692304171049" dx="0em" dy="0.3em" fill="rgb(50, 49, 63)" stroke="none" stroke-width="1px">0.7</text><text style="text-anchor: end; visibility: inherit; font-family: &quot;Helvetica Neue&quot;, sans-serif; font-size: 12px; font-weight: 200;" x="0" y="116.2953843336839" dx="0em" dy="0.3em" fill="rgb(50, 49, 63)" stroke="none" stroke-width="1px">0.8</text><text style="text-anchor: end; visibility: inherit; font-family: &quot;Helvetica Neue&quot;, sans-serif; font-size: 12px; font-weight: 200;" x="0" y="87.22153825026294" dx="0em" dy="0.3em" fill="rgb(50, 49, 63)" stroke="none" stroke-width="1px">0.9</text><text style="text-anchor: end; visibility: inherit; font-family: &quot;Helvetica Neue&quot;, sans-serif; font-size: 12px; font-weight: 200;" x="0" y="58.14769216684198" dx="0em" dy="0.3em" fill="rgb(50, 49, 63)" stroke="none" stroke-width="1px">1</text><text style="text-anchor: end; visibility: inherit; font-family: &quot;Helvetica Neue&quot;, sans-serif; font-size: 12px; font-weight: 200;" x="0" y="29.07384608342096" dx="0em" dy="0.3em" fill="rgb(50, 49, 63)" stroke="none" stroke-width="1px">1.1</text><text style="text-anchor: end; visibility: hidden; font-family: &quot;Helvetica Neue&quot;, sans-serif; font-size: 12px; font-weight: 200;" x="0" y="0" dx="0em" dy="0.3em" fill="rgb(50, 49, 63)" stroke="none" stroke-width="1px">1.2</text></g><line x1="51.52000045776367" y1="0" x2="51.52000045776367" y2="377.95999908447266" fill="rgb(0, 0, 0)" stroke="rgb(204, 204, 204)" stroke-width="1px"></line></g></g><g transform="translate(51, 0)" clip-path="url(#clip_0)"><clipPath id="clip_0"><rect width="1394" height="377"></rect></clipPath><g><g><g><line x1="0" y1="0" x2="0" y2="377.95999908447266" fill="rgb(0, 0, 0)" stroke="rgb(60, 60, 60)" stroke-width="1px" opacity="0.25"></line><line x1="174.30999994277954" y1="0" x2="174.30999994277954" y2="377.95999908447266" fill="rgb(0, 0, 0)" stroke="rgb(60, 60, 60)" stroke-width="1px" opacity="0.25"></line><line x1="348.6199998855591" y1="0" x2="348.6199998855591" y2="377.95999908447266" fill="rgb(0, 0, 0)" stroke="rgb(60, 60, 60)" stroke-width="1px" opacity="0.25"></line><line x1="522.9299998283386" y1="0" x2="522.9299998283386" y2="377.95999908447266" fill="rgb(0, 0, 0)" stroke="rgb(60, 60, 60)" stroke-width="1px" opacity="0.25"></line><line x1="697.2399997711182" y1="0" x2="697.2399997711182" y2="377.95999908447266" fill="rgb(0, 0, 0)" stroke="rgb(60, 60, 60)" stroke-width="1px" opacity="0.25"></line><line x1="871.5499997138977" y1="0" x2="871.5499997138977" y2="377.95999908447266" fill="rgb(0, 0, 0)" stroke="rgb(60, 60, 60)" stroke-width="1px" opacity="0.25"></line><line x1="1045.8599996566772" y1="0" x2="1045.8599996566772" y2="377.95999908447266" fill="rgb(0, 0, 0)" stroke="rgb(60, 60, 60)" stroke-width="1px" opacity="0.25"></line><line x1="1220.1699995994568" y1="0" x2="1220.1699995994568" y2="377.95999908447266" fill="rgb(0, 0, 0)" stroke="rgb(60, 60, 60)" stroke-width="1px" opacity="0.25"></line><line x1="1394.4799995422363" y1="0" x2="1394.4799995422363" y2="377.95999908447266" fill="rgb(0, 0, 0)" stroke="rgb(60, 60, 60)" stroke-width="1px" opacity="0.25"></line></g><g><line x1="0" y1="377.95999908447266" x2="1394.4799995422363" y2="377.95999908447266" fill="rgb(0, 0, 0)" stroke="rgb(60, 60, 60)" stroke-width="1px" opacity="0.25"></line><line x1="0" y1="348.8861530010517" x2="1394.4799995422363" y2="348.8861530010517" fill="rgb(0, 0, 0)" stroke="rgb(60, 60, 60)" stroke-width="1px" opacity="0.25"></line><line x1="0" y1="319.81230691763074" x2="1394.4799995422363" y2="319.81230691763074" fill="rgb(0, 0, 0)" stroke="rgb(60, 60, 60)" stroke-width="1px" opacity="0.25"></line><line x1="0" y1="290.7384608342097" x2="1394.4799995422363" y2="290.7384608342097" fill="rgb(0, 0, 0)" stroke="rgb(60, 60, 60)" stroke-width="1px" opacity="0.25"></line><line x1="0" y1="261.66461475078876" x2="1394.4799995422363" y2="261.66461475078876" fill="rgb(0, 0, 0)" stroke="rgb(60, 60, 60)" stroke-width="1px" opacity="0.25"></line><line x1="0" y1="232.5907686673678" x2="1394.4799995422363" y2="232.5907686673678" fill="rgb(0, 0, 0)" stroke="rgb(60, 60, 60)" stroke-width="1px" opacity="0.25"></line><line x1="0" y1="203.51692258394684" x2="1394.4799995422363" y2="203.51692258394684" fill="rgb(0, 0, 0)" stroke="rgb(60, 60, 60)" stroke-width="1px" opacity="0.25"></line><line x1="0" y1="174.44307650052585" x2="1394.4799995422363" y2="174.44307650052585" fill="rgb(0, 0, 0)" stroke="rgb(60, 60, 60)" stroke-width="1px" opacity="0.25"></line><line x1="0" y1="145.3692304171049" x2="1394.4799995422363" y2="145.3692304171049" fill="rgb(0, 0, 0)" stroke="rgb(60, 60, 60)" stroke-width="1px" opacity="0.25"></line><line x1="0" y1="116.2953843336839" x2="1394.4799995422363" y2="116.2953843336839" fill="rgb(0, 0, 0)" stroke="rgb(60, 60, 60)" stroke-width="1px" opacity="0.25"></line><line x1="0" y1="87.22153825026294" x2="1394.4799995422363" y2="87.22153825026294" fill="rgb(0, 0, 0)" stroke="rgb(60, 60, 60)" stroke-width="1px" opacity="0.25"></line><line x1="0" y1="58.14769216684198" x2="1394.4799995422363" y2="58.14769216684198" fill="rgb(0, 0, 0)" stroke="rgb(60, 60, 60)" stroke-width="1px" opacity="0.25"></line><line x1="0" y1="29.07384608342096" x2="1394.4799995422363" y2="29.07384608342096" fill="rgb(0, 0, 0)" stroke="rgb(60, 60, 60)" stroke-width="1px" opacity="0.25"></line><line x1="0" y1="0" x2="1394.4799995422363" y2="0" fill="rgb(0, 0, 0)" stroke="rgb(60, 60, 60)" stroke-width="1px" opacity="0.25"></line></g></g></g><g><g><line x1="0" y1="348.8861530010517" x2="1394.4799995422363" y2="348.8861530010517" fill="rgb(0, 0, 0)" stroke="rgb(153, 153, 153)" stroke-width="1.5px"></line></g></g><g><g><line x1="174.30999994277954" y1="0" x2="174.30999994277954" y2="377.95999908447266" fill="rgb(0, 0, 0)" stroke="rgb(153, 153, 153)" stroke-width="1.5px"></line></g></g><g><g><g><g><g><path style="fill: none;" stroke="rgb(255, 112, 67)" stroke-width="2px" d="M200.45649993419644,-24.176259011446746L204.81424993276596,11.46106793952356L209.17199993133545,44.3754410285967L213.52974992990497,69.36623839369605L217.88749992847443,109.71714404498846L222.2452499270439,137.9925081611159L226.6029999256134,147.99204333595378L230.9607499241829,186.00303994412127L235.3184999227524,179.71109272727327L239.67624992132187,185.16787587197325L244.03399991989133,174.63268356852907L248.39174991846085,200.28901403625042L252.74949991703033,199.80293490286778L257.1072499155998,179.92566870257002L261.4649999141693,205.60002574457957L265.8227499127388,199.70621925748554L270.1804999113083,223.300353376819L274.5382499098778,213.00507664069696L278.89599990844727,227.5044062038347L283.25374990701675,217.16836207778164L287.61149990558624,214.30206823416563L291.96924990415573,211.34722116176147L296.3269999027252,222.74820255310485L300.6847499012947,234.81616052338043L305.0424998998642,254.3461238296539L309.4002498984337,259.733277700444L313.7579998970032,247.40750710412624L318.11574989557266,261.0594970553129L322.47349989414215,240.66514858142332L326.83124989271164,241.76180572918284L331.1889998912811,235.02328737504735L335.5467498898506,218.53468391543038L339.9044998884201,233.94913146299842L344.2622498869896,229.1072643629051L348.6199998855591,234.4807661830584L352.97774988412857,229.2347554483179L357.335499882698,225.284298040621L361.6932498812676,245.0383401518395L366.05099987983704,247.38249032891804L370.4087498784065,234.26513229346725L374.766499876976,237.18977690253013L379.12424987554544,244.75807809300798L383.48199987411505,224.63219638260398L387.8397498726845,244.4567181124466L392.19749987125397,240.77173354507445L396.55524986982346,251.8937556011407L400.9129998683929,267.6490449255966L405.2707498669625,256.9817052484561L409.6284998655319,260.87165065012744L413.9862498641014,248.3700916215938L418.3439998626709,247.43114846939835L422.70174986124033,251.6147885203065L427.05949985980993,251.6625323527717L431.41724985837936,249.50884523499013L435.77499985694885,246.01087947965786L440.13274985551834,247.7921696391122L444.4904998540878,257.69350072632733L448.8482498526574,281.499000562178L453.2059998512268,256.3651314683604L457.5637498497963,249.88674534277004L461.9214998483658,240.60361662253402L466.2792498469352,257.5857721369923L470.6369998455048,254.62680423459108L474.99474984407425,249.79919074812761L479.35249984264374,251.55094311673983L483.7102498412132,236.37726024615935L488.06799983978266,258.63194643765513L492.42574983835226,258.30527683684664L496.7834998369217,248.93151867841752L501.1412498354912,250.86725619326884L505.49899983406067,242.61015910953262L509.8567498326301,239.89311427948272L514.2144998311996,246.92481465227814L518.5722498297691,256.0959368030942L522.9299998283386,255.5136610246729L527.2877498269081,260.60898479160466L531.6454998254776,269.1417796875202L536.0032498240471,279.558091314564L540.3609998226166,268.9222440357002L544.7187498211861,271.31744922965413L549.0764998197556,266.74065228720434L553.434249818325,262.12418646488095L557.7919998168945,261.77665656602653L562.149749815464,262.75057556130486L566.5074998140335,252.7398312994826L570.865249812603,276.56381788663873L575.2229998111725,275.1812714574583L579.580749809742,280.31989785296633L583.9384998083115,280.93677796719794L588.296249806881,280.1536658706429L592.6539998054504,273.1939840196011L597.0117498040199,263.35290469932636L601.3694998025894,247.88591579119543L605.7272498011589,254.06460618541064L610.0849997997284,264.8322710318019L614.4427497982979,262.2654350035113L618.8004997968674,262.53634179106166L623.1582497954369,261.9399580042772L627.5159997940063,264.51881730825494L631.8737497925758,271.64523796999936L636.2314997911453,272.1026140145073L640.5892497897148,285.84915932159345L644.9469997882843,292.6694399108625L649.3047497868538,286.60328223064494L653.6624997854233,277.73297933841L658.0202497839928,283.37872176453794L662.3779997825623,286.4452681976338L666.7357497811317,257.5031470262352L671.0934997797012,257.81133908060576L675.4512497782707,263.8735287882026L679.8089997768402,277.4944459509016L684.1667497754097,279.546903537896L688.5244997739792,281.8320907930041L692.8822497725487,294.2822209447002L697.2399997711182,286.3704543347256L701.5977497696878,280.27814502963014L705.9554997682571,275.30774148253533L710.3132497668266,286.3409133778707L714.670999765396,282.5219523366077L719.0287497639656,274.19437871652633L723.3864997625352,268.9330132855498L727.7442497611046,272.3424748645658L732.1019997596741,256.9118539896286L736.4597497582434,266.5640216641779L740.817499756813,274.4380683448192L745.1752497553827,290.3225078587909L749.532999753952,292.0374529878357L753.8907497525215,291.87899888814553L758.2484997510909,286.7839888830059L762.6062497496605,294.7473714294458L766.9639997482301,281.6903331934306L771.3217497467995,287.5448733248089L775.679499745369,291.3158144944532L780.0372497439383,281.48390793761774L784.3949997425079,285.0028582154108L788.7527497410775,286.21955296352064L793.1104997396469,284.469480067177L797.4682497382164,273.61718814598134L801.8259997367858,278.56583278995095L806.1837497353554,267.4399592630969L810.541499733925,276.55453024662995L814.8992497324944,268.56938867043993L819.2569997310638,267.4390118797526L823.6147497296332,278.0202304865184L827.9724997282028,262.6266805398727L832.3302497267724,262.7010930297492L836.6879997253418,269.0071051812995L841.0457497239113,238.60043691290454L845.4034997224807,260.6248401553644L849.7612497210503,278.4289568575065L854.1189997196199,263.9541861437149L858.4767497181892,262.13386737911986L862.8344997167587,272.59398911643797L867.1922497153281,279.2101869610106L871.5499997138977,280.46567620342375L875.9077497124673,257.9271911908038L880.2654997110367,259.54732916399576L884.6232497096062,273.49859353801827L888.9809997081755,264.0039345108064L893.3387497067451,254.5569685205942L897.6964997053147,252.51629985432982L902.0542497038841,256.00042437420404L906.4119997024536,260.6977028211396L910.769749701023,283.84939385534165L915.1274996995926,285.04007882721925L919.4852496981622,279.1630905364117L923.8429996967316,290.7944668403925L928.200749695301,297.0329760443393L932.5584996938704,298.1435155591438L936.91624969244,278.79329939967596L941.2739996910096,277.66106637962855L945.631749689579,273.1128491136394L949.9894996881485,281.64841108266035L954.3472496867179,264.6651309413979L958.7049996852875,271.0327102738655L963.0627496838571,274.5760508926666L967.4204996824265,268.84493865914106L971.7782496809959,286.1382643523465L976.1359996795653,293.0018973118825L980.4937496781349,293.89415757419715L984.8514996767045,297.7659565241364L989.2092496752739,287.4819275242032L993.5669996738434,287.87691622822297L997.9247496724128,294.91979128047024L1002.2824996709824,290.51827931639525L1006.640249669552,299.01889153234504L1010.9979996681213,300.3350920822795L1015.3557496666908,303.17502913022673L1019.7134996652602,303.6745275337037L1024.0712496638298,300.0134822141647L1028.4289996623993,297.15532773557084L1032.7867496609688,296.9885022282993L1037.1444996595383,299.715106668838L1041.5022496581078,307.7547704238739L1045.8599996566772,305.8151123869475L1050.2177496552467,305.672810366886L1054.5754996538162,294.78737606973476L1058.9332496523857,285.6658754249318L1063.2909996509552,277.46631878658866L1067.6487496495247,274.19499273225347L1072.0064996480942,254.7150083726523L1076.3642496466637,262.59567024095406L1080.7219996452332,268.54999101328804L1085.0797496438026,277.68696310889885L1089.4374996423721,272.486937912203L1093.7952496409416,278.5127187639641L1098.152999639511,276.33794090142374L1102.5107496380806,285.8330129272939L1106.86849963665,281.6269356472254L1111.2262496352196,273.7136849016116L1115.583999633789,278.7147521763957L1119.9417496323586,287.59517246709396L1124.299499630928,262.91362753507184L1128.6572496294975,282.45287488965437L1133.014999628067,283.70608305545227L1137.3727496266365,270.6327560087954L1141.730499625206,277.87693219364445L1146.0882496237755,282.8660902148526L1150.445999622345,291.56645084315164L1154.8037496209145,298.84910535784763L1159.161499619484,283.3988067625829L1163.5192496180534,286.6805709091073L1167.876999616623,293.08933585418265L1172.2347496151924,285.3567700058882L1176.592499613762,290.7646378824294L1180.9502496123314,274.9956137809968L1185.3079996109009,278.5206242362999L1189.6657496094704,281.7241802029651L1194.0234996080399,305.51184417308L1198.3812496066093,319.7065618089008L1202.7389996051788,330.3935785129329L1207.0967496037483,337.3487131448446L1211.4544996023178,341.0956842429326L1215.8122496008873,343.83708644993993L1220.1699995994568,345.56776438492795L1224.5277495980263,346.61341459106836L1228.8854995965958,347.3232691377393L1233.2432495951653,347.72952708116185L1237.6009995937347,348.07279023478435L1241.9587495923042,348.30605541062823L1246.3164995908737,348.30423881973843L1250.6742495894432,348.4281219227304L1255.0319995880127,348.4453060431314L1259.3897495865822,348.51675296783947L1263.7474995851517,348.53861435136895L1268.1052495837212,348.5823560683749L1272.4629995822906,348.4949355799955L1276.8207495808601,348.48275495688705L1281.1784995794296,348.4930061529817L1285.5362495779991,348.53811498716885L1289.8939995765686,348.55869044638854L1294.251749575138,348.5759774613629L1298.6094995737076,348.61368898088864" fill="none"></path></g><g><path style="fill: none;" stroke="rgb(0, 119, 187)" stroke-width="2px" d="M215.2031259293556,-43.47990405520227L222.0186469271183,0.0240687005589848L228.83416792488097,-123.17864332879185L235.6496889226437,-24.36128829493674L242.46520992040635,33.434805164191346L249.280730918169,51.58714365719072L256.0962519159317,72.69291633358506L262.9117729136944,94.03998124288734L269.7272939114571,102.50077861449807L276.54281490921977,109.69382563701146L283.3583359069824,123.61719773771352L290.1738569047451,130.6844639873178L296.9893779025078,132.5811541715964L303.8048989002704,118.91820272106696L310.62041989803316,121.70004641135472L317.4359408957958,115.75282280051323L324.25146189355854,108.702107837217L331.0669828913212,132.83185472502598L337.88250388908386,37.49731220997285L344.69802488684655,77.23913780656363L351.5135458846092,83.58563822982165L358.3290668823719,65.38903230253248L365.1445878801346,82.1917258596045L371.9601088778973,91.85908390652173L378.77562987565994,120.95160150740139L385.59115087342263,108.85935273936298L392.40667187118527,116.31235718445942L399.22219286894796,111.68329317347349L406.0377138667107,125.54725641748382L412.85323486447334,115.01680914787374L419.668755862236,124.36386023004965L426.48427685999866,145.93274963467334L433.29979785776135,109.75294095306856L440.1153188555241,95.54487104824887L446.9308398532867,117.37471048249785L453.7463608510494,131.64417180442533L460.5618818488121,138.8628801231308L467.37740284657474,134.3315991017216L474.1929238443375,146.54705084610768L481.0084448421002,137.81034964685972L487.8239658398628,147.79001689608785L494.6394868376255,151.6551174346278L501.45500783538813,122.7201442506612L508.2705288331509,130.88583130121347L515.0860498309136,135.302387228003L521.9015708286762,103.88756187332837L528.7170918264388,130.5267601235789L535.5326128242016,140.43516875569142L542.3481338219643,132.14202050167273L549.163654819727,116.60224087431936L555.9791758174896,128.44322678210338L562.7946968152523,155.7254134526376L569.610217813015,146.67241505156048L576.4257388107777,157.2028815521991L583.2412598085403,158.08380601958507L590.056780806303,125.49654634361826L596.8723018040657,139.54042529600815L603.6878228018284,136.35879958965216L610.5033437995911,121.97523246460483L617.3188647973537,134.35073544763753L624.1343857951164,134.11648248623118L630.9499067928791,146.56759749193745L637.7654277906418,144.61978337842066L644.5809487884045,149.56987215925594L651.3964697861671,151.95463200510292L658.2119907839299,152.56877338789965L665.0275117816925,147.47628550366113L671.8430327794551,131.52514706729224L678.6585537772179,126.78374410625338L685.4740747749805,129.92066228377115L692.2895957727433,131.26768897190186L699.1051167705059,139.1982321291734L705.9206377682686,131.43488617950464L712.7361587660312,130.12746288744512L719.5516797637939,116.31085256346489L726.3672007615565,101.37489923381787L733.1827217593193,56.86947763301026L739.998242757082,89.57992334373023L746.8137637548447,122.67013660107824L753.6292847526074,137.0005567466928L760.4448057503699,139.43095618210896L767.2603267481327,150.0866851585198L774.0758477458954,160.2598846778139L780.8913687436581,170.65368791924774L787.7068897414208,166.08031995174773L794.5224107391833,149.02683344065719L801.3379317369461,152.74504478089696L808.1534527347088,140.43304501846464L814.9689737324715,131.30348805692682L821.7844947302342,120.12002345803694L828.6000157279967,141.9929809968483L835.4155367257595,143.6683162976813L842.2310577235222,157.7381980177823L849.0465787212848,149.32994376422644L855.8620997190476,125.8373850781748L862.6776207168101,137.92152749838962L869.4931417145729,138.3730313841373L876.3086627123356,134.34350442035057L883.1241837100982,99.43572778200223L889.939704707861,130.94941473946523L896.7552257056236,140.46543101117325L903.5707467033862,157.822158412967L910.386267701149,152.02353840071115L917.2017886989116,149.30125344246096L924.0173096966744,156.1393244506766L930.832830694437,164.0431729144797L937.6483516921998,147.29125285020334L944.4638726899625,151.005609115783L951.279393687725,141.42298328133847L958.0949146854878,149.3848410041677L964.9104356832504,158.8210333299964L971.7259566810131,154.28676682091967L978.5414776787759,156.37860936200238L985.3569986765384,164.76322660996829L992.1725196743012,163.75198949954927L998.9880406720638,151.19445153435552L1005.8035616698265,151.2863782849026L1012.6190826675893,138.5768945175331L1019.4346036653518,129.87594599080523L1026.2501246631145,141.20001076418887L1033.0656456608772,124.09051929693223L1039.8811666586398,137.37765803116093L1046.6966876564027,133.95198210220696L1053.5122086541653,124.68879128615194L1060.327729651928,136.21211206406068L1067.1432506496906,127.36708022512852L1073.9587716474532,104.51729492649844L1080.774292645216,121.89515684989505L1087.5898136429787,125.95704684481393L1094.4053346407413,124.01771918123933L1101.220855638504,139.43137066111058L1108.0363766362668,125.92962376251793L1114.8518976340295,137.45230997905455L1121.667418631792,142.4171783257733L1128.4829396295547,130.53200838168993L1135.2984606273174,142.4739954931041L1142.1139816250802,136.66345914422467L1148.9295026228428,139.40521634672615L1155.7450236206055,132.4963405125205L1162.560544618368,131.9616867952406L1169.3760656161307,131.3028159461389L1176.1915866138936,108.73398148447626L1183.0071076116562,123.09260580019983L1189.8226286094189,129.2381573138076L1196.6381496071815,170.87798887464115L1203.4536706049441,193.0765508558987L1210.269191602707,203.541581385211L1217.0847126004696,207.861583893038L1223.9002335982323,209.76025952196758L1230.715754595995,209.9869951189553L1237.5312755937575,209.83227765379863L1244.3467965915204,209.86685463285744L1251.162317589283,210.08862528885223L1257.9778385870457,208.65301486496972L1264.7933595848083,207.83863559094578L1271.608880582571,207.41821108054438L1278.4244015803338,207.0459088921993L1285.2399225780964,207.33237252419488L1292.055443575859,207.68071630276503L1298.8709645736217,206.9260513304987" fill="none"></path></g></g></g></g><g opacity="0.2"><g><g><g><path style="fill: none;" stroke="rgb(255, 112, 67)" stroke-width="2px" d="M191.74099993705752,-64.69537697159694L196.09874993562698,23.297927911517547L200.45649993419644,25.027744894291743L204.81424993276596,64.32973435078202L209.17199993133545,94.23896662332749L213.52974992990497,107.70505982279025L217.88749992847443,172.0920469219963L222.2452499270439,181.90259771080687L226.6029999256134,163.56428487625203L230.9607499241829,245.29832793532185L235.3184999227524,169.88577644168262L239.67624992132187,193.69441453488668L244.03399991989133,158.16449012371274L248.39174991846085,240.40339817043687L252.74949991703033,199.04282772707808L257.1072499155998,148.83983733510257L261.4649999141693,245.75400352700737L265.8227499127388,190.48817051045356L270.1804999113083,260.20285354876637L274.5382499098778,196.90251280112662L278.89599990844727,250.1825828127956L283.25374990701675,201.00184286066545L287.61149990558624,209.81890995168044L291.96924990415573,206.72554939574854L296.3269999027252,240.58047826298824L300.6847499012947,253.691666114753L305.0424998998642,284.8929713364208L309.4002498984337,268.1593358243831L313.7579998970032,228.12874197866978L318.11574989557266,282.4126066589293L322.47349989414215,208.7662984684188L326.83124989271164,243.47708989972634L331.1889998912811,224.48355386221925L335.5467498898506,192.74481744807966L339.9044998884201,258.0589081213334L344.2622498869896,221.53408766930542L348.6199998855591,242.88547412249312L352.97774988412857,221.0294566280473L357.335499882698,219.10537748962398L361.6932498812676,275.9356880396167L366.05099987983704,251.04898162937323L370.4087498784065,213.7482389633229L374.766499876976,241.76422103365374L379.12424987554544,256.59567738935567L383.48199987411505,193.15325319709794L387.8397498726845,275.46430338066125L392.19749987125397,235.00803973474382L396.55524986982346,269.28973881671783L400.9129998683929,292.29193335587837L405.2707498669625,240.2968919074021L409.6284998655319,266.9559242270752L413.9862498641014,228.8163710898347L418.3439998626709,245.9625450775053L422.70174986124033,258.1584306512078L427.05949985980993,251.73720860355058L431.41724985837936,246.14025769179452L435.77499985694885,240.53970227260086L440.13274985551834,250.578290144925L444.4904998540878,273.18019806786776L448.8482498526574,318.7332438951734L453.2059998512268,217.0531823729032L457.5637498497963,239.75388499248788L461.9214998483658,226.08385118831887L466.2792498469352,284.147605121145L470.6369998455048,249.9986749513481L474.99474984407425,242.24830811545405L479.35249984264374,254.29086348815895L483.7102498412132,212.64406396140524L488.06799983978266,293.4405581730717L492.42574983835226,257.7943320766078L496.7834998369217,234.26999950754114L501.1412498354912,253.89494820367736L505.49899983406067,229.69521238881694L509.8567498326301,235.6433774940201L514.2144998311996,257.9231152353684L518.5722498297691,270.4405124748836L522.9299998283386,254.60292198662924L527.2877498269081,268.5785937603954L531.6454998254776,282.487946063183L536.0032498240471,295.85027103891457L540.3609998226166,252.286688035426L544.7187498211861,275.0637958150693L549.0764998197556,259.5820724541418L553.434249818325,254.90356043509306L557.7919998168945,261.2330841601261L562.149749815464,264.27388475904786L566.5074998140335,237.08200053099137L570.865249812603,313.8269763947547L575.2229998111725,273.01882704258634L579.580749809742,288.3572365741456L583.9384998083115,281.9016417356114L588.296249806881,278.9287982324415L592.6539998054504,262.30832779104855L597.0117498040199,247.96044730094786L601.3694998025894,223.69395878104189L605.7272498011589,263.72871167379856L610.0849997997284,281.67400322743947L614.4427497982979,258.25064019003116L618.8004997968674,262.960067792102L623.1582497954369,261.0071525941782L627.5159997940063,268.55241775806644L631.8737497925758,282.7916907999073L636.2314997911453,272.81799705848124L640.5892497897148,307.35016608395887L644.9469997882843,303.3370582684372L649.3047497868538,277.1151894487661L653.6624997854233,263.858915840299L658.0202497839928,292.2092419695074L662.3779997825623,291.24166133657855L666.7357497811317,212.23470109148354L671.0934997797012,258.2933830630828L675.4512497782707,273.35541525393097L679.8089997768402,298.7989574105078L684.1667497754097,282.7571577124256L688.5244997739792,285.40635803817327L692.8822497725487,313.7555014383787L697.2399997711182,273.9956398934832L701.5977497696878,270.7491484242245L705.9554997682571,267.5335205498998L710.3132497668266,303.5979258295491L714.670999765396,276.5487055797604L719.0287497639656,261.16919946460416L723.3864997625352,260.7036981242788L727.7442497611046,277.675222462514L732.1019997596741,232.77678031344473L736.4597497582434,281.66100187308837L740.817499756813,286.75388494787353L745.1752497553827,315.1674004319262L749.532999753952,294.7198030614698L753.8907497525215,291.63116042452765L758.2484997510909,278.8148706698388L762.6062497496605,307.20291848926206L766.9639997482301,261.26778620889394L771.3217497467995,296.70197455593905L775.679499745369,297.21395324697374L780.0372497439383,266.1057976820546L784.3949997425079,290.5068573678565L788.7527497410775,288.1225883387694L793.1104997396469,281.7321865626395L797.4682497382164,256.6430905256497L801.8259997367858,286.30602056641624L806.1837497353554,250.0379519518636L810.541499733925,290.81065409266887L814.8992497324944,256.07980825639925L819.2569997310638,265.6709866430365L823.6147497296332,294.5703416406906L827.9724997282028,238.54958959768322L832.3302497267724,262.8174817959663L836.6879997253418,278.8703549568013L841.0457497239113,191.04128910849187L845.4034997224807,295.07326573972466L849.7612497210503,306.27642144290826L854.1189997196199,241.31416015547674L858.4767497181892,259.2867021319329L862.8344997167587,288.95469234660214L867.1922497153281,289.55859897431657L871.5499997138977,282.4293901466854L875.9077497124673,222.67468899157765L880.2654997110367,262.0813911220652L884.6232497096062,295.3198019178997L888.9809997081755,249.15331398106468L893.3387497067451,239.7809447923136L897.6964997053147,249.32448476094197L902.0542497038841,261.44995246939203L906.4119997024536,268.0447280842952L910.769749701023,320.06101316524746L915.1274996995926,286.9024322447713L919.4852496981622,269.97087808155885L923.8429996967316,308.98713234149056L928.200749695301,306.79064428641004L932.5584996938704,299.88051326178663L936.91624969244,248.52757668871342L941.2739996910096,275.8901378098108L945.631749689579,265.99897082581026L949.9894996881485,294.99890544446237L954.3472496867179,238.10153892557716L958.7049996852875,280.9922574349047L963.0627496838571,280.1181990400222L967.4204996824265,259.88089131952415L971.7782496809959,313.18679941094985L976.1359996795653,303.7373232229516L980.4937496781349,295.2897441383303L984.8514996767045,303.8218471894261L989.2092496752739,271.39665139610247L993.5669996738434,288.49471907297186L997.9247496724128,305.9355702083442L1002.2824996709824,283.63386316745755L1006.640249669552,312.3147208957537L1010.9979996681213,302.3937647373052L1015.3557496666908,307.61698194881086L1019.7134996652602,304.45579426734724L1024.0712496638298,294.28723184257814L1028.4289996623993,292.6848809870009L1032.7867496609688,296.7275700246183L1037.1444996595383,303.9797956655781L1041.5022496581078,320.3296291176479L1045.8599996566772,302.78128827790874L1050.2177496552467,305.45023541243086L1054.5754996538162,277.7614403741905L1058.9332496523857,271.3989128779323L1063.2909996509552,264.64137122405197L1067.6487496495247,269.07830326265224L1072.0064996480942,224.24631488712228L1076.3642496466637,274.9218336759901L1080.7219996452332,277.86315940078475L1085.0797496438026,291.9781245917773L1089.4374996423721,264.35356516865306L1093.7952496409416,287.9376580449237L1098.152999639511,272.93636527027087L1102.5107496380806,300.684279429296L1106.86849963665,275.0481993886568L1111.2262496352196,261.33654912001043L1115.583999633789,286.5369343241348L1119.9417496323586,301.4850606140837L1124.299499630928,224.30915982088337L1128.6572496294975,313.0142617775911L1133.014999628067,285.6662291609311L1137.3727496266365,250.18473165376798L1141.730499625206,289.20756673917765L1146.0882496237755,290.6696450685371L1150.445999622345,305.1747072104912L1154.8037496209145,310.2399239577568L1159.161499619484,259.23295511357907L1163.5192496180534,291.813586625466L1167.876999616623,303.1133015375057L1172.2347496151924,273.2622439354789L1176.592499613762,299.2230978944553L1180.9502496123314,250.33124275055084L1185.3079996109009,284.0341021279279L1189.6657496094704,286.73487030467226L1194.0234996080399,342.71819038274697L1198.3812496066093,341.9085560597999L1202.7389996051788,347.1091687423165L1207.0967496037483,348.2272570562963L1211.4544996023178,346.95633134507005L1215.8122496008873,348.1249206711566L1220.1699995994568,348.2747221806784L1224.5277495980263,348.24891875964704L1228.8854995965958,348.4335544543271L1233.2432495951653,348.3649561721561L1237.6009995937347,348.60968901352726L1241.9587495923042,348.67090607028155L1246.3164995908737,348.30139748526966L1250.6742495894432,348.6218878017692L1255.0319995880127,348.4721837699125L1259.3897495865822,348.6285032859725L1263.7474995851517,348.57280779740233L1268.1052495837212,348.6507726001022L1272.4629995822906,348.3582009699662L1276.8207495808601,348.4637032130507L1281.1784995794296,348.50904007507853L1285.5362495779991,348.6086698303846L1289.8939995765686,348.59087257491166L1294.251749575138,348.6030161258101L1298.6094995737076,348.67267366527494" fill="none"></path></g><g><path style="fill: none;" stroke="rgb(0, 119, 187)" stroke-width="2px" d="M194.75656293606758,-44.43170262578036L201.57208393383027,29.128981183725443L208.38760493159293,-250.87373151752092L215.2031259293556,86.96176070606361L222.0186469271183,64.56305688991313L228.83416792488097,-309.8242029446676L235.6496889226437,127.23615269064851L242.46520992040635,122.77668381588214L249.280730918169,79.77672966889764L256.0962519159317,105.56086311959837L262.9117729136944,127.34035414844675L269.7272939114571,115.71290632939218L276.54281490921977,120.93337683691294L283.3583359069824,145.38165903601939L290.1738569047451,141.73433074327778L296.9893779025078,135.54710707989622L303.8048989002704,97.55086777202405L310.62041989803316,126.0507722952097L317.4359408957958,106.45122844476322L324.25146189355854,97.67440879857378L331.0669828913212,170.57253908471347L337.88250388908386,-111.61396791344993L344.69802488684655,139.39899116971924L351.5135458846092,93.51217315250454L358.3290668823719,36.9277489295863L365.1445878801346,108.47281990699008L371.9601088778973,106.97980866524586L378.77562987565994,166.4552558054376L385.59115087342263,89.94584230093187L392.40667187118527,127.9696179661035L399.22219286894796,104.44296326243767L406.0377138667107,147.2319150894235L412.85323486447334,98.54611040013168L419.668755862236,138.98360634626604L426.48427685999866,179.66870422638036L433.29979785776135,53.16401007098847L440.1153188555241,73.32199263381625L446.9308398532867,151.51881817061678L453.7463608510494,153.9630727886227L460.5618818488121,150.15368029609243L467.37740284657474,127.24421084429497L474.1929238443375,165.65327022994364L481.0084448421002,124.14525290421724L487.8239658398628,163.3992400260823L494.6394868376255,157.7005310966659L501.45500783538813,77.46287850506303L508.2705288331509,143.6578033540073L515.0860498309136,142.2103336773876L521.9015708286762,54.75155298615516L528.7170918264388,172.19319841196278L535.5326128242016,155.9329361032481L542.3481338219643,119.17068605313375L549.163654819727,92.29643171364933L555.9791758174896,146.96374320194172L562.7946968152523,198.39755157830447L569.610217813015,132.5125970396275L576.4257388107777,173.67361120703825L583.2412598085403,159.4616622378039L590.056780806303,74.52672992736922L596.8723018040657,161.50649237538542L603.6878228018284,131.3824106643263L610.5033437995911,99.47785824337774L617.3188647973537,153.70729139545753L624.1343857951164,133.7500868286468L630.9499067928791,166.04241839829845L637.7654277906418,141.57320232907387L644.5809487884045,157.31231871389588L651.3964697861671,155.68464099476094L658.2119907839299,153.52935349945346L665.0275117816925,139.5111121462625L671.8430327794551,106.57593053861257L678.6585537772179,119.3677035774491L685.4740747749805,134.82712404860672L692.2895957727433,133.3745768687216L699.1051167705059,151.60241501618785L705.9206377682686,119.29221687361252L712.7361587660312,128.08251876396739L719.5516797637939,94.70025692852153L726.3672007615565,78.01353633360071L733.1827217593193,-12.741566409278391L739.998242757082,140.7424153528048L746.8137637548447,174.4266240035969L753.6292847526074,159.41480364111564L760.4448057503699,143.2323501708367L767.2603267481327,166.753338172906L774.0758477458954,176.17181213106878L780.8913687436581,186.91066221995194L787.7068897414208,158.92710338719644L794.5224107391833,122.35343146177198L801.3379317369461,158.56070867204122L808.1534527347088,121.1758146208141L814.9689737324715,117.02392460426512L821.7844947302342,102.62793780336307L828.6000157279967,176.2045299678097L835.4155367257595,146.2887125374456L842.2310577235222,179.74493609281217L849.0465787212848,136.1785717266134L855.8620997190476,89.09261379999151L862.6776207168101,156.8223656428282L869.4931417145729,139.07922976953742L876.3086627123356,128.04091096417136L883.1241837100982,44.83638483484202L889.939704707861,180.24005331395864L896.7552257056236,155.3494564617934L903.5707467033862,184.96986024654186L910.386267701149,142.95390197128535L917.2017886989116,145.043320559044L924.0173096966744,166.834768848142L930.832830694437,176.4056025629923L937.6483516921998,121.08953172402755L944.4638726899625,156.8152432747665L951.279393687725,126.43477364284837L958.0949146854878,161.83800308346468L964.9104356832504,173.58020594219L971.7259566810131,147.19470894774832L978.5414776787759,159.65046564420868L985.3569986765384,177.87762794653037L992.1725196743012,162.17031094222722L998.9880406720638,131.5531742041806L1005.8035616698265,151.430161151143L1012.6190826675893,118.69795836857048L1019.4346036653518,116.26677009002577L1026.2501246631145,158.91200951230167L1033.0656456608772,97.32951982250518L1039.8811666586398,158.16010579495455L1046.6966876564027,128.59387359794556L1053.5122086541653,110.200210778989L1060.327729651928,154.2357676397641L1067.1432506496906,113.53254324628591L1073.9587716474532,68.77788715171795L1080.774292645216,149.07591524289995L1087.5898136429787,132.31025940096922L1094.4053346407413,120.9844118100072L1101.220855638504,163.53990246296047L1108.0363766362668,104.81150681856525L1114.8518976340295,155.47497303568875L1121.667418631792,150.18274163730774L1128.4829396295547,111.94238359735442L1135.2984606273174,161.1524881545468L1142.1139816250802,127.57518434213111L1148.9295026228428,143.69360581730535L1155.7450236206055,121.69015010517325L1162.560544618368,131.1254335451362L1169.3760656161307,130.2722743616465L1176.1915866138936,73.43400963418338L1183.0071076116562,145.55096690940852L1189.8226286094189,138.8504301940659L1196.6381496071815,236.00695618773972L1203.4536706049441,227.79737857017332L1210.269191602707,219.90996246952002L1217.0847126004696,214.61851089245962L1223.9002335982323,212.72998294157549L1230.715754595995,210.34163284757707L1237.5312755937575,209.5902836698357L1244.3467965915204,209.92093657446227L1251.162317589283,210.43549734053636L1257.9778385870457,206.4075729199228L1264.7933595848083,206.56486288029296L1271.608880582571,206.760624025814L1278.4244015803338,206.46359008478774L1285.2399225780964,207.78043102552135L1292.055443575859,208.22556170001573L1298.8709645736217,205.74567791233855" fill="none"></path></g></g></g></g></g></g><g transform="translate(51, 377)" clip-path="url(#clip_1)"><clipPath id="clip_1"><rect width="1394" height="22"></rect></clipPath><g><g><line x1="0" y1="0" x2="0" y2="5" style="visibility: inherit;" fill="rgb(0, 0, 0)" stroke="rgb(204, 204, 204)" stroke-width="1px"></line><line x1="174.30999994277954" y1="0" x2="174.30999994277954" y2="5" style="visibility: inherit;" fill="rgb(0, 0, 0)" stroke="rgb(204, 204, 204)" stroke-width="1px"></line><line x1="348.6199998855591" y1="0" x2="348.6199998855591" y2="5" style="visibility: inherit;" fill="rgb(0, 0, 0)" stroke="rgb(204, 204, 204)" stroke-width="1px"></line><line x1="522.9299998283386" y1="0" x2="522.9299998283386" y2="5" style="visibility: inherit;" fill="rgb(0, 0, 0)" stroke="rgb(204, 204, 204)" stroke-width="1px"></line><line x1="697.2399997711182" y1="0" x2="697.2399997711182" y2="5" style="visibility: inherit;" fill="rgb(0, 0, 0)" stroke="rgb(204, 204, 204)" stroke-width="1px"></line><line x1="871.5499997138977" y1="0" x2="871.5499997138977" y2="5" style="visibility: inherit;" fill="rgb(0, 0, 0)" stroke="rgb(204, 204, 204)" stroke-width="1px"></line><line x1="1045.8599996566772" y1="0" x2="1045.8599996566772" y2="5" style="visibility: inherit;" fill="rgb(0, 0, 0)" stroke="rgb(204, 204, 204)" stroke-width="1px"></line><line x1="1220.1699995994568" y1="0" x2="1220.1699995994568" y2="5" style="visibility: inherit;" fill="rgb(0, 0, 0)" stroke="rgb(204, 204, 204)" stroke-width="1px"></line><line x1="1394.4799995422363" y1="0" x2="1394.4799995422363" y2="5" style="visibility: inherit;" fill="rgb(0, 0, 0)" stroke="rgb(204, 204, 204)" stroke-width="1px"></line></g><g transform="translate(0, 8)"><text style="text-anchor: middle; visibility: hidden; font-family: &quot;Helvetica Neue&quot;, sans-serif; font-size: 12px; font-weight: 200;" x="0" y="0" dx="0em" dy="0.95em" fill="rgb(50, 49, 63)" stroke="none" stroke-width="1px">-10k</text><text style="text-anchor: middle; visibility: inherit; font-family: &quot;Helvetica Neue&quot;, sans-serif; font-size: 12px; font-weight: 200;" x="174.30999994277954" y="0" dx="0em" dy="0.95em" fill="rgb(50, 49, 63)" stroke="none" stroke-width="1px">0</text><text style="text-anchor: middle; visibility: inherit; font-family: &quot;Helvetica Neue&quot;, sans-serif; font-size: 12px; font-weight: 200;" x="348.6199998855591" y="0" dx="0em" dy="0.95em" fill="rgb(50, 49, 63)" stroke="none" stroke-width="1px">10k</text><text style="text-anchor: middle; visibility: inherit; font-family: &quot;Helvetica Neue&quot;, sans-serif; font-size: 12px; font-weight: 200;" x="522.9299998283386" y="0" dx="0em" dy="0.95em" fill="rgb(50, 49, 63)" stroke="none" stroke-width="1px">20k</text><text style="text-anchor: middle; visibility: inherit; font-family: &quot;Helvetica Neue&quot;, sans-serif; font-size: 12px; font-weight: 200;" x="697.2399997711182" y="0" dx="0em" dy="0.95em" fill="rgb(50, 49, 63)" stroke="none" stroke-width="1px">30k</text><text style="text-anchor: middle; visibility: inherit; font-family: &quot;Helvetica Neue&quot;, sans-serif; font-size: 12px; font-weight: 200;" x="871.5499997138977" y="0" dx="0em" dy="0.95em" fill="rgb(50, 49, 63)" stroke="none" stroke-width="1px">40k</text><text style="text-anchor: middle; visibility: inherit; font-family: &quot;Helvetica Neue&quot;, sans-serif; font-size: 12px; font-weight: 200;" x="1045.8599996566772" y="0" dx="0em" dy="0.95em" fill="rgb(50, 49, 63)" stroke="none" stroke-width="1px">50k</text><text style="text-anchor: middle; visibility: inherit; font-family: &quot;Helvetica Neue&quot;, sans-serif; font-size: 12px; font-weight: 200;" x="1220.1699995994568" y="0" dx="0em" dy="0.95em" fill="rgb(50, 49, 63)" stroke="none" stroke-width="1px">60k</text><text style="text-anchor: middle; visibility: hidden; font-family: &quot;Helvetica Neue&quot;, sans-serif; font-size: 12px; font-weight: 200;" x="1394.4799995422363" y="0" dx="0em" dy="0.95em" fill="rgb(50, 49, 63)" stroke="none" stroke-width="1px">70k</text></g><line x1="0" y1="0" x2="1394.4799995422363" y2="0" fill="rgb(0, 0, 0)" stroke="rgb(204, 204, 204)" stroke-width="1px"></line></g></g></g></g></svg>